<svg id="Ebene_1" xmlns="http://www.w3.org/2000/svg" xmlns:xlink="http://www.w3.org/1999/xlink" x="0px" y="0px" viewBox="0 0 268.5 34.2" style="enable-background:new 0 0 268.5 34.2;" xml:space="preserve">
  <style>.st0{fill:#232a78}</style>
  <g id="bw-logo-svg">
    <path class="st0" d="M268.4 15.1c-1.9-.5-4.1-.2-5.4 1.3-.4.6-.8 1.3-.8 2V27h-8.9V8.1h8.6c.1.7 0 1.7.2 2.3 1.4-2.2 4-3.1 6.4-2.7l-.1 7.4zM250.5 11.8c1.2 2 1.8 4 1.6 7h-13.3c-.2.8 0 1.7.5 2.3.6.7 1.3 1 2.2.9.9 0 1.5-.7 2-1.4h8.5c-.4 2.7-2.9 5-5.4 6-4.3 1.5-10.2 1.6-13.7-1.8-2.7-2.5-3.5-6.6-2.4-10.1.7-3 3.3-5.5 6.1-6.5 4.8-1.6 11.1-1 13.9 3.6m-10.1 1.1c-.9.4-1.6 1.5-1.5 2.4h4.5c0-.9-.3-1.6-.9-2.1-.6-.5-1.4-.5-2.1-.3M228.7 10.7l.4 1.8V27h-8.8V15c-.1-.4-.5-.9-1-1.1-.8-.3-1.7.1-2.2.7-.6.6-.5.9-.5 2.5 0 3.3.1 9.6 0 10h-8.4v-19h8.3c.1.9.2 1.2.2 2.4 1.8-2.2 4.3-3.4 7.2-2.9 1.9.2 3.9 1.2 4.8 3.1M207 7.6v7.2c-2.1-.3-4.6-.1-5.7 2 0 0-.4.1-.6 1.4V27H192V8.1h8.5c0 .8.1 1.5.1 2.4 1.4-2.3 3.8-3.3 6.4-2.9M181.1 9.9c.1-.9 0-1.2.2-1.8h8.9c.1 5.8 0 12.5 0 18.9h-9c0-1.1-.1-1-.1-2.2-1.6 1.9-4 3.2-6.8 2.7-2.6-.4-5-2.5-5.9-5-1.4-4-1.4-9.6 1.8-12.8 2-2.1 5.3-2.8 8.1-1.8 1.1.4 1.8 1 2.8 2m-2.4 5c-.8.1-1.6.4-2.1 1.1-.5.8-.6 1.9-.2 2.7.4.7 1 1.1 1.7 1.4 1 .2 2-.1 2.7-.8.7-.7.8-2 .4-2.9-.6-1-1.5-1.4-2.5-1.5M142.4 13.8L145.9.1h8.6l.2.2 3.2 13.3.1.1c1.2-4.5 2.1-9.1 3.2-13.6h9.7l-7.4 27h-9.6l-3.7-13-3.6 13h-9.5l-7.5-27h9.7l3.1 13.7zM122.1 10.2c.2-1.1 0-1 .2-2h8.9v18.5c.1 2.8-2.1 5-4.4 6.1-3.9 1.8-9 1.8-13 .3-2-.9-4.2-3-4.7-5.2h8.5c.3.5.9 1.1 1.5 1.2 1.3.2 2.5-.3 3.2-1.4.4-.9.4-1.8.2-2.8-2.4 2-6.5 2.4-9.3.8-3.4-1.9-4.4-5.6-4.2-9.3.1-3.1 1.8-6.2 4.8-7.5 2.5-1.2 6.3-.9 8.3 1.3m-1.3 4.8c-.9-.4-2-.1-2.7.6s-.9 1.7-.6 2.7c.3.9.9 1.6 2.1 1.7.8.1 1.4-.1 2-.6 1.1-.9 1-1.9.8-3-.3-.6-1-1.2-1.6-1.4M108.6 7.6v7.2c-2.1-.3-4.6-.1-5.7 2 0 0-.4.1-.6 1.4V27h-8.7V8.1h8.5c.1.8.1 1.5.1 2.4 1.4-2.3 3.9-3.3 6.4-2.9M91.5 13.7c1.6 3.6.8 8.3-2 11-3.4 3.4-9.2 3.9-13.5 2.1-3.5-1.4-5.9-5.1-6-8.8.1-3.7 2-7.1 5.2-8.9 4.1-2.1 10.1-1.9 13.7 1 1.3 1.1 2 2.3 2.6 3.6m-10.8 1.1c-1 .2-1.8 1.1-2.1 2.1-.3 1.2 0 2.4.9 3.3.6.4 1.3.7 2.1.5 1.1-.1 2-.9 2.3-1.9.4-1.4.2-2.7-1.1-3.7-.6-.3-1.3-.3-2.1-.3M58.7.1c3.4 0 7 .8 8.7 4.1.8 1.9.7 4.5-.6 6.2-.8 1.3-2.1 1.7-3.2 2.5 1.9.7 4.2 1.6 5.1 3.7 1.2 2.6.4 5.8-1.5 7.9-2 1.9-4.5 2.4-7.3 2.5h-15V0l13.8.1zm-4 6.3v3.8c1.5-.2 3.6.6 4.3-1.1.1-.5.3-.8 0-1.5-.7-1.8-2.8-1-4.3-1.2m.1 10.1v4.3c1.6-.2 4 .7 4.5-1.4.2-.6.2-1.5-.2-2-1-1.4-2.9-.8-4.3-.9M8.9.2l4.6 4.7L18.1.2h8.7v12.1h-3.6L22 13.7l1.2 1.3h3.6v2.8h-4.7l-8.7-8.6v2.7l7.8 7.9h5.6v2.6h-6.7c-2.3-2.1-4.4-4.5-6.7-6.5v2.5l6 6.1h7.3v2.6h-8.5l-4.8-4.7-4.5 4.7H0V15h3.7L5 13.7l-1.3-1.4H0V9.7h4.9l2.1 2 1.4-1.4L6 7.7H.2V4.9h6.6l3.5 3.4 1.3-1.4-3.9-4H.2V.1l8.7.1z"/>
  </g>
</svg>