<?xml version="1.0" standalone="no"?>
<!DOCTYPE svg PUBLIC "-//W3C//DTD SVG 1.1//EN" "http://www.w3.org/Graphics/SVG/1.1/DTD/svg11.dtd">
<svg xmlns="http://www.w3.org/2000/svg">
<metadata>iconshock</metadata>
<defs>
<font id="materialblack_text" horiz-adv-x="1000" >
<font-face font-family="materialblack_text" font-weight="400" font-stretch="normal" units-per-em="1000" ascent="850" descent="-150" />
<missing-glyph horiz-adv-x="1000" />
<glyph glyph-name="accept_document" unicode="&#xe800;" d="M667 433c-92 0-167 75-167 167v167h-250c-46 0-83-38-83-84v-666c0-46 37-84 83-84h500c46 0 83 38 83 84v416h-166z m-209-395l-154 157 59 60 95-93 177 215 64-54-241-285z m125 729l1-167c0-46 37-83 83-83h166l-250 250z" horiz-adv-x="1000" />

<glyph glyph-name="access" unicode="&#xe801;" d="M708 225c-45 0-83 38-83 83 0 46 38 84 83 84s84-38 84-84c0-45-38-83-84-83z m-391 583c-147 0-275-128-275-275v-141h431c34 97 127 166 235 166 138 0 250-112 250-250v500h-641z m391-750c-108 0-201 70-235 167h-181v-167h-167v167h-83v-333h916v416c0-138-112-250-250-250z" horiz-adv-x="1000" />

<glyph glyph-name="acrobat" unicode="&#xe802;" d="M458 353c13-20 27-40 41-59-26-6-51-12-74-20 12 26 23 53 33 79z m206-104c-13 0-26-1-39-2 31-27 62-48 94-57 35-10 66-4 96 18 12 9 17 15 19 19-13 10-67 25-170 22z m-218 258c14 50 23 97 23 135 0 32-4 49-7 58-5-6-13-15-20-32-15-34-24-89-5-140 3-7 6-14 9-21z m512 218c0-83 0-750 0-750s0-83-83-83-750 0-750 0-83 0-83 83 0 739 0 739 0 94 83 94 750 0 750 0 83 0 83-83z m-61-484c-8 32-40 52-100 63-56 10-142 11-227 1-31 38-60 81-84 123 28 83 45 159 45 214 0 68-15 107-46 120-10 5-37 12-66-17-41-39-77-145-40-240 10-25 23-54 40-85-23-63-52-129-82-189-7-13-19-37-19-37-57-107-114-187-142-191-1 0-6 3-6 5-2 20 34 99 80 134l-23 25c-30-22-125-99-119-165 2-23 16-43 40-55 7-3 15-6 25-6 11 0 25 4 41 13 49 31 112 123 169 233 34 22 93 40 162 51 48-51 101-92 156-108 54-15 106-5 151 28 36 28 51 55 45 83z" horiz-adv-x="1000" />

<glyph glyph-name="add_column" unicode="&#xe803;" d="M375 433h250v-500h-250v500z m-250 334h167v-500h-167v500z m583 0h167v-500h-167v500z m-83-84v-83h-83v-83h-84v83h-83v83h83v84h84v-84h83z" horiz-adv-x="1000" />

<glyph glyph-name="add_row" unicode="&#xe804;" d="M417 225v250h500v-250h-500z m-334-250v167h500v-167h-500z m0 583v167h500v-167h-500z m84-83h83v-83h83v-84h-83v-83h-83v83h-84v84h84v83z" horiz-adv-x="1000" />

<glyph glyph-name="align_center" unicode="&#xe805;" d="M875 58v-83h-750v83h750z m-750 334v-84h750v84h-750z m0 333v-83h750v83h-750z m167-500v-83h416v83h-416z m0 333v-83h416v83h-416z" horiz-adv-x="1000" />

<glyph glyph-name="align_justify" unicode="&#xe806;" d="M875 58l-3-83h-750l3 83h750z m-750 334v-84h750v84h-750z m0 333v-83h750v83h-750z m0-500v-83h750v83h-750z m0 333v-83h750v83h-750z" horiz-adv-x="1000" />

<glyph glyph-name="align_left" unicode="&#xe807;" d="M875 58v-83h-750v83h750z m-750 334v-84h750v84h-750z m0 333v-83h750v83h-750z m0-500v-83h500v83h-500z m0 333v-83h500v83h-500z" horiz-adv-x="1000" />

<glyph glyph-name="align_right" unicode="&#xe808;" d="M875 58v-83h-750v83h750z m-750 334v-84h750v84h-750z m0 333v-83h750v83h-750z m250-500v-83h500v83h-500z m0 333v-83h500v83h-500z" horiz-adv-x="1000" />

<glyph glyph-name="alphaber_cyrillic2" unicode="&#xe809;" d="M677 350l231 308c10 13 11 30 4 44-7 14-21 23-37 23h-167v-83h84l-188-250h-62v250h83v83h-250v-83h83v-250h-102l-156 250h92v83h-167c-15 0-29-8-36-21s-7-30 1-43l194-311-194-311c-8-13-9-29-1-43 7-13 21-21 36-21h167v83h-92l156 250h102v-250h-83v-83h250v83h-83v250h62l188-250h-84v-83h167c16 0 30 9 37 23 7 14 6 31-4 44l-231 308z" horiz-adv-x="1000" />

<glyph glyph-name="alphaber_greek" unicode="&#xe80a;" d="M917 17v-84h-375v250c118 16 208 105 208 250 0 162-112 250-250 250-138 0-250-88-250-250 0-145 90-233 208-250v-250h-375v84h167c34 4 42 41 42 41v84c-124 50-209 143-209 290 0 218 187 335 417 335 230 0 417-117 417-335 0-147-84-240-209-290v-84c0 0 0-41 42-41h167z" horiz-adv-x="1000" />

<glyph glyph-name="alphaber_hebrew2" unicode="&#xe80b;" d="M917 642v83h-167v-83c0-3-2-213-132-307l-311 390h-214l195-244c-93-48-205-160-205-423v-83h292v167h-120c21 155 101 195 141 205l297-372h214l-184 230c191 143 194 423 194 437z" horiz-adv-x="1000" />

<glyph glyph-name="alphaber_indic" unicode="&#xe80c;" d="M917 642v125h-834v-125h375v-84h-104c-92 0-229-61-229-229 0-92 61-229 229-229 42 0 76 11 104 28v-195h125v335c36 53 61 82 105 82 94 0 103-80 104-104-1-24-10-104-104-104v-125c168 0 229 137 229 229s-61 229-229 229c-42 0-76-11-105-28v195h334z m-563-417c-95 0-103 80-104 104 0 95 80 104 104 104h104v-126c-35-52-60-82-104-82z" horiz-adv-x="1000" />

<glyph glyph-name="alphaber_latin" unicode="&#xe80d;" d="M625 767h-208l-292-834h208l59 167h258l58-167h209l-292 834z m-190-542l86 244 85-244h-171z" horiz-adv-x="1000" />

<glyph glyph-name="alphabet_arabic" unicode="&#xe80e;" d="M917 350v-83h-584c-166 0-250 41-250 209 0 207 209 249 209 249-84-84-125-292 0-292l451 0c-31 165-154 167-160 167v167c116 0 334-87 334-417z m-500-292l125-125 125 125-125 125-125-125z" horiz-adv-x="1000" />

<glyph glyph-name="alphabet_chinesse" unicode="&#xe80f;" d="M583 683v84h-166v-84h-292v-541l125-42v83h167v-166l166-84v250h167v-83l125 42v541h-292z m-333-333v167h167v-167h-167z m500 0h-167v167h167v-167z" horiz-adv-x="1000" />

<glyph glyph-name="alphabet_hiragana" unicode="&#xe810;" d="M825 255c-20 76-78 146-158 189v73h-84v-42c-39 10-81 13-125 8v78c159 18 240 136 243 141l-69 46c-1-1-59-85-174-103v163h-83v-164c-100 11-129 57-130 59l-74-38c5-10 51-92 204-105v-95c-203-61-214-166-209-210 11-87 103-155 209-155 10 0 19 0 29 1 36-64 99-84 138-84v83c-2 0-19 1-38 13 92 22 161 81 163 231 39-30 67-69 78-111 33-124-81-239-298-301l23-80c317 90 392 267 355 403z m-450-72c-68 0-121 44-126 82-4 34 29 79 126 113v-153c0-15 1-29 3-42-1 0-2 0-3 0z m208 167c0-102-29-147-122-161-2 11-3 22-3 36v174c13 2 26 3 39 3 31 0 60-5 86-14v-38z" horiz-adv-x="1000" />

<glyph glyph-name="arrange_all" unicode="&#xe811;" d="M875 767h-750c-42 0-42-42-42-42v-125h834v125c0 42-42 42-42 42z m-292-125c-23 0-41 18-41 41s18 42 41 42 42-19 42-42-19-41-42-41z m125 0c-23 0-41 18-41 41s18 42 41 42 42-19 42-42-19-41-42-41z m125 0c-23 0-41 18-41 41s18 42 41 42 42-19 42-42-19-41-42-41z m42-125h-750c-42 0-42-42-42-42v-500c0-42 42-42 42-42h750c42 0 42 42 42 42v500c0 42-42 42-42 42z m-167-42c23 0 42-19 42-42s-19-41-42-41-41 18-41 41 18 42 41 42z m-125 0c23 0 42-19 42-42s-19-41-42-41-41 18-41 41 18 42 41 42z m250-458h-666v333h666v-333z m0 375c-23 0-41 18-41 41s18 42 41 42 42-19 42-42-19-41-42-41z" horiz-adv-x="1000" />

<glyph glyph-name="auto_correct" unicode="&#xe812;" d="M979 545l-354-400-225 230 117 117 108-103 229 266 125-110z m-670-195l-196 196-59-59 137-137-137-137 59-59 196 196z" horiz-adv-x="1000" />

<glyph glyph-name="border_all" unicode="&#xe813;" d="M125 725v-750h750v750h-750z m667-83v-250h-250v250h250z m-334 0v-250h-250v250h250z m-250-584v250h250v-250h-250z m334 0v250h250v-250h-250z" horiz-adv-x="1000" />

<glyph glyph-name="border_bottom" unicode="&#xe814;" d="M292 725h83v-83h-83v83z m0-333h83v-84h-83v84z m166-167h84v-83h-84v83z m-333 0h83v-83h-83v83z m0 167h83v-84h-83v84z m0 166h83v-83h-83v83z m0 167h83v-83h-83v83z m333-333h84v-84h-84v84z m334-167h83v-83h-83v83z m0 167h83v-84h-83v84z m0 166h83v-83h-83v83z m-334 0h84v-83h-84v83z m334 167h83v-83h-83v83z m-334 0h84v-83h-84v83z m167-333h83v-84h-83v84z m0 333h83v-83h-83v83z m250-667h-750v-83h750v83z" horiz-adv-x="1000" />

<glyph glyph-name="border_clear" unicode="&#xe815;" d="M292 725h83v-83h-83v83z m0-333h83v-84h-83v84z m0-334h83v-83h-83v83z m166 167h84v-83h-84v83z m0-167h84v-83h-84v83z m-333 0h83v-83h-83v83z m0 167h83v-83h-83v83z m0 167h83v-84h-83v84z m0 166h83v-83h-83v83z m0 167h83v-83h-83v83z m333-333h84v-84h-84v84z m334-167h83v-83h-83v83z m0 167h83v-84h-83v84z m0-334h83v-83h-83v83z m0 500h83v-83h-83v83z m-334 0h84v-83h-84v83z m334 167h83v-83h-83v83z m-334 0h84v-83h-84v83z m167-667h83v-83h-83v83z m0 334h83v-84h-83v84z m0 333h83v-83h-83v83z" horiz-adv-x="1000" />

<glyph glyph-name="border_color" unicode="&#xe816;" d="M0 17h1000v-167h-1000v167z m739 541v0l-369-369-156 157 369 368 0 0 156-156z m124 182l-98 98c-16 16-42 16-58 0l-77-76 157-157 76 77c16 16 16 42 0 58z m-696-442v-156h156l-156 156z" horiz-adv-x="1000" />

<glyph glyph-name="border_diagonal" unicode="&#xe817;" d="M708 642h-83v83h83v-83z m0-667h-83v83h83v-83z m167 167h-83v83h83v-83z m0 333h-83v83h83v-83z m0 167h-83v83h83v-83z m-333-667h-84v83h84v-83z m-334 167h-83v83h83v-83z m0-167h-83v83h83v-83z m0 500h-83v83h83v-83z m334 167h-84v83h84v-83z m-167-667h-83v83h83v-83z m0 667h-83v83h83v-83z m333-167h-83v83h83v-83z m167 0h-83v83h83v-83z m-667 0h-83v83h83v-83z m500 0h-83v83h83v-83z m167-167h-83v84h83v-84z m-667 0h-83v84h83v-84z m667 0h-83v84h83v-84z m-667 0h-83v84h83v-84z m167-166h-83v83h83v-83z m0 0h-83v83h83v-83z m429-155l59 59-667 667-59-59 667-667z m-262 155h-84v83h84v-83z m0 333h-84v83h84v-83z m0 0h-84v83h84v-83z m166-167h-83v84h83v-84z m-333 0h-83v84h83v-84z m333 0h-83v84h83v-84z m-333 0h-83v84h83v-84z" horiz-adv-x="1000" />

<glyph glyph-name="border_diagonal2" unicode="&#xe818;" d="M292 725h83v-83h-83v83z m0-667h83v-83h-83v83z m166 167h84v-83h-84v83z m-333 0h83v-83h-83v83z m0 333h83v-83h-83v83z m0 167h83v-83h-83v83z m333-667h84v-83h-84v83z m334 167h83v-83h-83v83z m0-167h83v-83h-83v83z m0 500h83v-83h-83v83z m-334 0h84v-83h-84v83z m0 167h84v-83h-84v83z m167-667h83v-83h-83v83z m0 667h83v-83h-83v83z m-333-167h83v-83h-83v83z m-167 0h83v-83h-83v83z m667 0h83v-83h-83v83z m-334 0h84v-83h-84v83z m-166 0h83v-83h-83v83z m-167-166h83v-84h-83v84z m667 0h83v-84h-83v84z m-500 0h83v-84h-83v84z m333 0h83v-84h-83v84z m-500 0h83v-84h-83v84z m667 0h83v-84h-83v84z m-500 0h83v-84h-83v84z m333 0h83v-84h-83v84z m0-167h83v-83h-83v83z m0 0h83v-83h-83v83z m238 429l-59 59-667-667 59-59 667 667z" horiz-adv-x="1000" />

<glyph glyph-name="border_horizontal" unicode="&#xe819;" d="M292 725h83v-83h-83v83z m0-667h83v-83h-83v83z m166 167h84v-83h-84v83z m-333 0h83v-83h-83v83z m0-167h83v-83h-83v83z m0 500h83v-83h-83v83z m0 167h83v-83h-83v83z m333-667h84v-83h-84v83z m334 167h83v-83h-83v83z m0-167h83v-83h-83v83z m0 500h83v-83h-83v83z m-334 0h84v-83h-84v83z m334 167h83v-83h-83v83z m-334 0h84v-83h-84v83z m167-667h83v-83h-83v83z m0 667h83v-83h-83v83z m250-333h-750v-84h750v84z" horiz-adv-x="1000" />

<glyph glyph-name="border_inner" unicode="&#xe81a;" d="M125 58h83v-83h-83v83z m83 500h-83v-83h83v83z m0 167h-83v-83h83v83z m-83-583h83v83h-83v-83z m583 583h-83v-83h83v83z m-333 0h-83v-83h83v83z m417-750h83v83h-83v-83z m-500 0h83v83h-83v-83z m250 750h-84v-333h-333v-84h333v-333h84v333h333v84h-333v333z m250 0v-83h83v83h-83z m0-250h83v83h-83v-83z m0-333h83v83h-83v-83z m-167-167h83v83h-83v-83z" horiz-adv-x="1000" />

<glyph glyph-name="border_left" unicode="&#xe81b;" d="M792 142v83h83v-83h-83z m-334 0v83h84v-83h-84z m-166 166v84h83v-84h-83z m0-333v83h83v-83h-83z m166 0v83h84v-83h-84z m167 0v83h83v-83h-83z m167 0v83h83v-83h-83z m-334 333v84h84v-84h-84z m-166 334v83h83v-83h-83z m166 0v83h84v-83h-84z m167 0v83h83v-83h-83z m0-334v84h83v-84h-83z m167 334v83h83v-83h-83z m0-334v84h83v-84h-83z m-334 167v83h84v-83h-84z m334 0v83h83v-83h-83z m-667 250v-750h83v750h-83z" horiz-adv-x="1000" />

<glyph glyph-name="border_outer" unicode="&#xe81c;" d="M292 392h83v-84h-83v84z m166-167h84v-83h-84v83z m0 167h84v-84h-84v84z m0 166h84v-83h-84v83z m167-166h83v-84h-83v84z m167 250v-584h-584v584h584m83 83h-750v-750h750v750l0 0z" horiz-adv-x="1000" />

<glyph glyph-name="border_right" unicode="&#xe81d;" d="M125 142v83h83v-83h-83z m333 0v83h84v-83h-84z m167 166v84h83v-84h-83z m0-333v83h83v-83h-83z m-167 0v83h84v-83h-84z m-166 0v83h83v-83h-83z m-167 0v83h83v-83h-83z m333 333v84h84v-84h-84z m167 334v83h83v-83h-83z m-167 0v83h84v-83h-84z m-166 0v83h83v-83h-83z m0-334v84h83v-84h-83z m-167 334v83h83v-83h-83z m0-334v84h83v-84h-83z m333 167v83h84v-83h-84z m-333 0v83h83v-83h-83z m667 250v-750h83v750h-83z" horiz-adv-x="1000" />

<glyph glyph-name="border_style" unicode="&#xe81e;" d="M458 58h84v-83h-84v83z m-166-83h83v83h-83v-83z m500 333h83v84h-83v-84z m0 167h83v83h-83v-83z m-167-500h83v83h-83v-83z m-417 750h-83v-83-667h83v667h667v83h-667z m584-583h83v83h-83v-83z m0-167h83v83h-83v-83z" horiz-adv-x="1000" />

<glyph glyph-name="border_top" unicode="&#xe81f;" d="M708-25h-83v83h83v-83z m0 333h-83v84h83v-84z m-166 167h-84v83h84v-83z m333 0h-83v83h83v-83z m0-167h-83v84h83v-84z m0-166h-83v83h83v-83z m0-167h-83v83h83v-83z m-333 333h-84v84h84v-84z m-334 167h-83v83h83v-83z m0-167h-83v84h83v-84z m0-166h-83v83h83v-83z m334 0h-84v83h84v-83z m-334-167h-83v83h83v-83z m334 0h-84v83h84v-83z m-167 333h-83v84h83v-84z m0-333h-83v83h83v-83z m-250 667h750v83h-750v-83z" horiz-adv-x="1000" />

<glyph glyph-name="border_vertical" unicode="&#xe820;" d="M125 142v83h83v-83h-83z m667 0v83h83v-83h-83z m-167 166v84h83v-84h-83z m0-333v83h83v-83h-83z m167 0v83h83v-83h-83z m-500 0v83h83v-83h-83z m-167 0v83h83v-83h-83z m667 333v84h83v-84h-83z m-167 334v83h83v-83h-83z m167 0v83h83v-83h-83z m-500 0v83h83v-83h-83z m0-334v84h83v-84h-83z m-167 334v83h83v-83h-83z m0-334v84h83v-84h-83z m667 167v83h83v-83h-83z m-667 0v83h83v-83h-83z m333 250v-750h84v750h-84z" horiz-adv-x="1000" />

<glyph glyph-name="bring_to_front" unicode="&#xe821;" d="M708 350v208h-208v209h-417v-417h209v-208h208v-209h417v417h-209z m-479 271v-208h-83v291h292v-83h-209z m625-625h-291v83h208v209h83v-292z" horiz-adv-x="1000" />

<glyph glyph-name="bullets" unicode="&#xe822;" d="M292 142h583v-84h-583v84z m0 166h583v84h-583v-84z m0 334v-84h583v84h-583z m-125 21c-35 0-63-28-63-63s28-62 63-62 62 27 62 62-28 63-62 63z m0-508c-31 0-56-25-56-55s25-55 56-55 55 25 55 55-24 55-55 55z m0 258c-35 0-63-28-63-63s28-62 63-62 62 27 62 62-28 63-62 63z" horiz-adv-x="1000" />

<glyph glyph-name="change_lowercase" unicode="&#xe823;" d="M500 350c0-90-57-167-125-167s-125 77-125 167 57 167 125 167 125-77 125-167z m417 292v-584c0-23-19-41-42-41h-750c-23 0-42 18-42 41v584c0 23 19 41 42 41h750c23 0 42-18 42-41z m-334-42h-83v-50c-35 31-78 50-125 50-115 0-208-112-208-250 0-138 93-250 208-250 47 0 90 19 125 50v-50h83v500z m209-167h-125v-208h41v83h42v-83h42v208z m-42-83h-42v42h42v-42z" horiz-adv-x="1000" />

<glyph glyph-name="change_uppercase" unicode="&#xe824;" d="M375 403l45-136h-90l45 136z m542 239v-584c0-23-19-41-42-41h-750c-23 0-42 18-42 41v584c0 23 19 41 42 41h750c23 0 42-18 42-41z m-309-542l-167 500h-132l-166-500h131l28 83h146l28-83h132z m225 333h-41v-21c-18 13-39 21-63 21-57 0-104-46-104-104s47-104 104-104c24 0 45 8 63 21v-21h41v208z m-41-104c0-34-28-62-63-62s-62 28-62 62 28 63 62 63 63-28 63-63z" horiz-adv-x="1000" />

<glyph glyph-name="character_map" unicode="&#xe825;" d="M574 350h-148c10 21 31 42 74 42 43 0 64-21 74-42z m343 292v-584c0-23-19-41-42-41h-750c-23 0-42 18-42 41v584c0 23 19 41 42 41h750c23 0 42-18 42-41z m-375-125h83v83h-83v-83z m-167 0h83v83h-83v-83z m292-209c0 67-45 167-167 167-122 0-167-100-167-167 0-72 35-208 167-208 98 0 146 65 161 125h-87c-10-21-31-42-74-42-51 0-71 47-78 84h245v41z" horiz-adv-x="1000" />

<glyph glyph-name="clipart" unicode="&#xe826;" d="M250 600c-46 0-83-37-83-83v-375c-46 0-84 37-84 83v375c0 46 38 83 84 83h583c46 0 83-37 83-83h-583z m667-167v-375c0-45-38-83-84-83h-83c0 0 0 0 0 83s-167 84-167 84-166 0-166-84 0-83 0-83h-84c-45 0-83 38-83 83v375c0 46 38 84 83 84h500c46 0 84-38 84-84z m-209-125c0 70-55 125-125 125s-125-55-125-125 56-125 125-125 125 56 125 125z" horiz-adv-x="1000" />

<glyph glyph-name="clipboard" unicode="&#xe827;" d="M792 725h-174c-18 48-64 83-118 83s-100-35-117-83h-175c-83 0-83-83-83-83v-625c0 0 0-84 83-84h584c83 0 83 84 83 84v625c0 83-83 83-83 83z m-250-42c0-23-19-41-42-41s-42 18-42 41 19 42 42 42 42-19 42-42z m250-666h-584v625h84v-125h416v125h84v-625z" horiz-adv-x="1000" />

<glyph glyph-name="columns" unicode="&#xe828;" d="M125 725h333v-83h-333v83z m0-167h333v-83h-333v83z m0-166h333v-84h-333v84z m0-167h333v-83h-333v83z m0-167h333v-83h-333v83z m417 667h333v-83h-333v83z m0-167h333v-83h-333v83z m0-166h333v-84h-333v84z m0-167h333v-83h-333v83z m0-167h333v-83h-333v83z" horiz-adv-x="1000" />

<glyph glyph-name="comment" unicode="&#xe829;" d="M583 558v84h-500v-84h167v-83h-167v-83h167v-84h-167v-83h167v-83h-167v-84h500v84h334v416h-334z m250-333h-500v83h500v-83z m0 167h-500v83h500v-83z" horiz-adv-x="1000" />

<glyph glyph-name="compare_documents" unicode="&#xe82a;" d="M542 433c69 0 125-55 125-125s-56-125-125-125-125 56-125 125 56 125 125 125z m333-399v483c0 83-83 83-83 83h-459c-83 0-83-83-83-83v-500c0-84 83-84 83-84h459c22 0 38 7 51 15l-186 186c-33-21-73-34-115-34-115 0-209 93-209 208s94 209 209 209 208-94 208-209c0-42-13-82-34-115l159-159z m-167 649c0 46-37 84-83 84h-458c-46 0-84-38-84-84v-500c0-45 38-83 84-83v500c0 46 37 83 83 83h458z" horiz-adv-x="1000" />

<glyph glyph-name="convert_to_text" unicode="&#xe82b;" d="M508 58l-98-148-70 46 40 61h-213v250h83v-167h130l-40 60 70 46 98-148z m-425 709v-417h584v417h-584z m167-334h-83v84h83v-84z m0 167h-83v83h83v-83z m167-167h-84v84h84v-84z m0 167h-84v83h84v-83z m166-167h-83v84h83v-84z m0 167h-83v83h83v-83z m0-583v-84h334v84h-334z m0 166v-83h334v83h-334z" horiz-adv-x="1000" />

<glyph glyph-name="copy" unicode="&#xe82c;" d="M250 683c-46 0-83-37-83-83v-500c-46 0-84 38-84 83v500c0 46 38 84 84 84h458c46 0 83-38 83-84h-458z m542-83h-459c-45 0-83-37-83-83v-500c0-46 38-84 83-84h459c46 0 83 38 83 84v500c0 46-37 83-83 83z" horiz-adv-x="1000" />

<glyph glyph-name="copy2" unicode="&#xe82d;" d="M750 683h-500c-46 0-83-37-83-83v-542c-46 0-84 38-84 84v541c0 46 38 84 84 84h500c46 0 83-38 83-84z m167-166v-500c0-46-38-84-84-84h-500c-45 0-83 38-83 84v500c0 46 38 83 83 83h500c46 0 84-37 84-83z m-84-375h-500v-84h500v84z m0 166h-500v-83h500v83z m0 167h-500v-83h500v83z" horiz-adv-x="1000" />

<glyph glyph-name="cover_page" unicode="&#xe82e;" d="M584 600l-1 167 250-250h-166c-46 0-83 37-83 83z m83-167h166v-416c0-46-37-84-83-84h-500c-46 0-83 38-83 84v666c0 46 37 84 83 84h250v-84h-208v-83h208c0-92 75-167 167-167z m-42-333h-250v-83h250v83z m83 167h-416v-84h416v84z" horiz-adv-x="1000" />

<glyph glyph-name="delete_column" unicode="&#xe82f;" d="M375 433h250v-500h-250v500z m-250 334h167v-500h-167v500z m583 0h167v-500h-167v500z m-326-66l59 59 59-59 59 59 59-59-59-59 59-59-59-59-59 59-59-59-59 59 59 59-59 59z" horiz-adv-x="1000" />

<glyph glyph-name="delete_row" unicode="&#xe830;" d="M417 225v250h500v-250h-500z m-334-250v167h500v-167h-500z m0 583v167h500v-167h-500z m66-326l-58 59 58 59-58 59 58 59 59-59 59 59 59-59-59-59 59-59-59-59-59 59-59-59z" horiz-adv-x="1000" />

<glyph glyph-name="dimensions2" unicode="&#xe831;" d="M667 850v-167h-84v42h-500v-42h-83v167h83v-42h500v42h84z m208-333v-584h42v-83h-167v83h42v584h-42v83h167v-83h-42z m-458-84l0 167 250-250h-167c-46 0-83 38-83 83z m-83 0v167h-251c-45 0-83-37-83-83v-584c0-46 38-83 83-83h500c46 0 84 37 84 83v334h-167c-92 0-166 74-166 166z" horiz-adv-x="1000" />

<glyph glyph-name="distribute_columns" unicode="&#xe832;" d="M833 767v-167h-83v42h-208v-42h-84v42h-208v-42h-83v167h83v-42h208v42h84v-42h208v42h83z m-583-209h208v-625h-208v625z m292 0h208v-625h-208v625z" horiz-adv-x="1000" />

<glyph glyph-name="distribute_rows" unicode="&#xe833;" d="M83 683h167v-83h-42v-208h42v-84h-42v-208h42v-83h-167v83h42v208h-42v84h42v208h-42v83z m209-583v208h625v-208h-625z m0 292v208h625v-208h-625z" horiz-adv-x="1000" />

<glyph glyph-name="document" unicode="&#xe834;" d="M584 600l-1 167 250-250h-166c-46 0-83 37-83 83z m-84 0v167h-250c-46 0-83-38-83-84v-666c0-46 37-84 83-84h500c46 0 83 38 83 84v416h-166c-92 0-167 75-167 167z" horiz-adv-x="1000" />

<glyph glyph-name="document_map" unicode="&#xe835;" d="M750 767h-542c-45 0-83-38-83-84v-666c0-46 38-84 83-84h542c46 0 83 38 83 84v666c0 46-37 84-83 84z m-417-750h-125v166h125v-166z m0 250h-125v166h125v-166z m0 250h-125v166h125v-166z m209-500h-125v166h125v-166z m0 250h-125v166h125v-166z m0 250h-125v166h125v-166z m208-500h-125v166h125v-166z m0 250h-125v166h125v-166z m0 250h-125v166h125v-166z" horiz-adv-x="1000" />

<glyph glyph-name="document_orientation" unicode="&#xe836;" d="M667 350v167l250-250h-167c-83 0-83 83-83 83z m-84 0v167h-333c-83 0-83-84-83-84v-416c0 0 0-84 83-84h583c0 0 84 0 84 84v166h-167c-92 0-167 75-167 167z m-291 250v167h-167c-83 0-83-84-83-84v-583c0-56 38-75 62-80v413c0 59 39 146 146 146h43c-1 7-1 14-1 21z m83 167v-167c0-7 1-15 2-21h186l-188 188z" horiz-adv-x="1000" />

<glyph glyph-name="document_orientation_landscape" unicode="&#xe837;" d="M667 683h-500c-46 0-84-37-84-83v-500c0-46 38-83 84-83h666c46 0 84 37 84 83v333l-250 250z m-12-529l-60 59 96 95h-382l96-95-60-59-195 196 195 196 60-59-96-95h382l-96 95 60 59 195-196-195-196z" horiz-adv-x="1000" />

<glyph glyph-name="document_orientation_portrtait" unicode="&#xe838;" d="M583 767h-333c-46 0-83-38-83-84v-666c0-46 37-84 83-84h500c46 0 83 38 83 84v500l-250 250z m54-512l59-60-196-195-196 195 59 60 95-96v382l-95-96-59 60 196 195 196-195-59-60-95 96v-382l95 96z m-53 512v-1l-1 1h1z" horiz-adv-x="1000" />

<glyph glyph-name="drawing" unicode="&#xe839;" d="M583 767v-167c0-46 38-83 84-83h166l-250 250z m250-334v-416c0-46-37-84-83-84h-417v79l231 230 78-78-147-147h255v333h-83c-138 0-250 112-250 250v83h-167v-750c-46 0-83 38-83 84v666c0 46 37 84 83 84h250v-167c0-92 75-167 167-167h166z m-131-209l-38-38-78 78 38 38c8 8 22 8 30 0l48-49c8-8 8-21 0-29z" horiz-adv-x="1000" />

<glyph glyph-name="equation" unicode="&#xe83a;" d="M855 100c-25 1-105 9-105 104v396h125v125h-750v-125h125v-229c0-258-132-270-146-271v-125c3 0 271 4 271 396v229h250v-396c0-168 137-229 229-229h42v125h-41z" horiz-adv-x="1000" />

<glyph glyph-name="excel" unicode="&#xe83b;" d="M333 767c-146 0-250-104-250-250v-584h834v834h-584z m427-667h-104l-144 193-91-110h121v-83h-292l210 261-178 238h104l129-171 140 171h108l-197-240 194-259z" horiz-adv-x="1000" />

<glyph glyph-name="export" unicode="&#xe83c;" d="M667 308v125h-167c-92 0-166 75-166 167v167h-251c-45 0-83-38-83-84v-666c0-46 38-84 83-84h500c46 0 84 38 84 84v208h-250v83h250z m-250 459l0-167c0-46 37-83 83-83h167l-250 250z m517-500l-154-155-60 59 55 54h-108v83h108l-55 54 60 59 154-154z" horiz-adv-x="1000" />

<glyph glyph-name="file_format_csv" unicode="&#xe83d;" d="M584 600l-1 167 250-250h-166c-46 0-83 37-83 83z m83-167h166v-416c0-46-37-84-83-84h-500c-46 0-83 38-83 84v666c0 46 37 84 83 84h250v-167c0-92 75-167 167-167z m-292-83h-125v-208h125v41h-83v125h83v42z m167 0h-125v-125h83v-42h-83v-41h125v125h-84v41h84v42z m166 0h-42l-20-104-19 104h-43l42-208h41l41 208z" horiz-adv-x="1000" />

<glyph glyph-name="file_format_doc" unicode="&#xe83e;" d="M500 183h-42v125h42v-125z m167 250h166v-416c0-46-37-84-83-84h-500c-46 0-83 38-83 84v666c0 46 37 84 83 84h250v-167c0-92 75-167 167-167z m-292-145c0 0 0 62-62 62h-63v-208h63c0 0 62 0 62 62 0 42 0 84 0 84z m167 62h-125v-208h125v208z m166 0h-125v-208h125v41h-83v125h83v42z m-41 167h166l-250 250 1-167c0-46 37-83 83-83z m-354-209h-21v-125h21c20 1 20 14 20 21v84c0 20-13 20-20 20z" horiz-adv-x="1000" />

<glyph glyph-name="file_format_fon" unicode="&#xe83f;" d="M584 600l-1 167 250-250h-166c-46 0-83 37-83 83z m-84-292h-42v-125h42v125z m167 125h166v-416c0-46-37-84-83-84h-500c-46 0-83 38-83 84v666c0 46 37 84 83 84h250v-167c0-92 75-167 167-167z m-292-83h-125v-208h42v83h83v42h-83v41h83v42z m167 0h-125v-208h125v208z m166 0h-41v-104l-42 104h-42v-208h42v104l42-104h41v208z" horiz-adv-x="1000" />

<glyph glyph-name="file_format_otf" unicode="&#xe840;" d="M584 600l-1 167 250-250h-166c-46 0-83 37-83 83z m-251-292h-41v-125h41v125z m334 125h166v-416c0-46-37-84-83-84h-500c-46 0-83 38-83 84v666c0 46 37 84 83 84h250v-167c0-92 75-167 167-167z m-292-83h-125v-208h125v208z m167 0h-125v-42h41v-166h42v166h42v42z m166 0h-125v-208h42v83h83v42h-83v41h83v42z" horiz-adv-x="1000" />

<glyph glyph-name="file_format_ppt" unicode="&#xe841;" d="M500 267h-42v41h42v-41z m167 250h166l-250 250 1-167c0-46 37-83 83-83z m-334-209h-41v-41h41v41z m334 125h166v-416c0-46-37-84-83-84h-500c-46 0-83 38-83 84v666c0 46 37 84 83 84h250v-167c0-92 75-167 167-167z m-292-83h-125v-208h42v83h83v125z m167 0h-125v-208h41v83h84v125z m166 0h-125v-42h42v-166h42v166h41v42z" horiz-adv-x="1000" />

<glyph glyph-name="file_format_rtf" unicode="&#xe842;" d="M292 308h41v-41h-41v41z m375 209h166l-250 250 1-167c0-46 37-83 83-83z m0-84h166v-416c0-46-37-84-83-84h-500c-46 0-83 38-83 84v666c0 46 37 84 83 84h250v-167c0-92 75-167 167-167z m-256-291l-36 107v101h-125v-208h42v83h47l28-83h44z m131 208h-125v-42h41v-166h42v166h42v42z m166 0h-125v-208h42v83h83v42h-83v41h83v42z" horiz-adv-x="1000" />

<glyph glyph-name="file_format_ttf" unicode="&#xe843;" d="M667 433c-92 0-167 75-167 167v167h-250c-46 0-83-38-83-84v-666c0-46 37-84 83-84h500c46 0 83 38 83 84v416h-166z m-292-125h-42v-166h-41v166h-42v42h125v-42z m167 0h-42v-166h-42v166h-41v42h125v-42z m166 0h-83v-41h83v-42h-83v-83h-42v208h125v-42z m-125 459l1-167c0-46 37-83 83-83h166l-250 250z" horiz-adv-x="1000" />

<glyph glyph-name="file_format_txt" unicode="&#xe844;" d="M584 600l-1 167 250-250h-166c-46 0-83 37-83 83z m83-167h166v-416c0-46-37-84-83-84h-500c-46 0-83 38-83 84v666c0 46 37 84 83 84h250v-167c0-92 75-167 167-167z m-292-83h-125v-42h42v-166h41v166h42v42z m149-104l63 104h-49l-38-64-38 64h-49l63-104-63-104h49l38 63 38-63h49l-63 104z m226 104h-125v-42h42v-166h41v166h42v42z" horiz-adv-x="1000" />

<glyph glyph-name="file_format_xls" unicode="&#xe845;" d="M584 600l-1 167 250-250h-166c-46 0-83 37-83 83z m83-167h166v-416c0-46-37-84-83-84h-500c-46 0-83 38-83 84v666c0 46 37 84 83 84h250v-167c0-92 75-167 167-167z m-309-187l62 104h-48l-39-64-38 64h-49l63-104-63-104h49l38 63 39-63h48l-62 104z m225-63h-83v167h-42v-208h125v41z m167 167h-125v-125h83v-42h-83v-41h125v125h-83v41h83v42z" horiz-adv-x="1000" />

<glyph glyph-name="file_format_xml" unicode="&#xe846;" d="M584 600l-1 167 250-250h-166c-46 0-83 37-83 83z m83-167h166v-416c0-46-37-84-83-84h-500c-46 0-83 38-83 84v666c0 46 37 84 83 84h250v-167c0-92 75-167 167-167z m-351-187l63 104h-49l-38-64-39 64h-48l63-104-63-104h48l39 63 38-63h49l-63 104z m309 104h-42l-62-147-63 147h-41v-208h41v104l44-104h38l43 104v-104h42v208z m83-167v167h-41v-208h125v41h-84z" horiz-adv-x="1000" />

<glyph glyph-name="fill" unicode="&#xe847;" d="M0 17h1000v-167h-1000v167z m792 354c0 0-84-91-84-146 0-46 38-83 84-83s83 37 83 83c0 55-83 146-83 146z m-102 107l-372 372-59-59 99-99-215-214c-24-25-24-65 0-89l230-229c12-12 28-18 44-18s32 6 44 18l229 229c25 24 25 64 0 89z m-471-45l198 198 198-198h-396z" horiz-adv-x="1000" />

<glyph glyph-name="find_in_file" unicode="&#xe848;" d="M667 433c-92 0-167 75-167 167v167h-250c-46 0-83-38-83-84v-666c0-46 37-84 83-84h483l-118 118c-33-21-72-34-115-34-115 0-208 93-208 208s93 208 208 208 208-93 208-208c0-42-13-82-34-115l143-143c11 14 16 31 16 50v416h-166z m-292-208c0-69 56-125 125-125s125 56 125 125-56 125-125 125-125-56-125-125z m208 542v-167c0-46 38-83 84-83h166l-250 250z" horiz-adv-x="1000" />

<glyph glyph-name="find_next" unicode="&#xe849;" d="M771 350c-34 0-67-8-96-21-56 14-115 21-175 21s-119-7-175-21c-29 13-62 21-96 21-126 0-229-102-229-229s103-229 229-229c86 0 161 47 200 117 23 4 47 8 71 8s48-4 71-8c39-70 114-117 200-117 127 0 229 102 229 229s-102 229-229 229z m-438-332c-58-57-150-58-207 0-57 57-57 149 0 206 57 57 149 57 207 0 56-57 57-149 0-206z m541 0c-57-57-149-58-206 0-57 57-57 149 0 206 57 57 149 57 206 0 57-57 57-149 0-206z m-219 778l-59-59 95-95h-524v-84h524l-95-95 59-59 196 196-196 196z" horiz-adv-x="1000" />

<glyph glyph-name="find_next2" unicode="&#xe84a;" d="M655-79l-189 189c21 33 34 73 34 115 0 115-93 208-208 208s-209-93-209-208 94-208 209-208c42 0 82 13 115 34l188-189c9-8 19-12 30-12s21 4 30 12c16 16 16 43 0 59z m-363 179c-69 0-125 56-125 125s56 125 125 125 125-56 125-125-57-125-125-125z m363 696l-60-59 96-95h-524v-84h524l-96-95 60-59 195 196-195 196z" horiz-adv-x="1000" />

<glyph glyph-name="find_next3" unicode="&#xe84b;" d="M405 588l195-196-195-197-60 60 138 137-138 137 60 59z m541-625l-59-59-195 195c-64-51-145-82-234-82-207 0-375 168-375 375s168 375 375 375 375-168 375-375c0-89-30-170-82-234l195-195z m-196 429c0 161-130 291-292 291s-291-130-291-291 130-292 291-292 292 130 292 292z" horiz-adv-x="1000" />

<glyph glyph-name="find_previous" unicode="&#xe84c;" d="M771 350c-34 0-67-8-96-21-56 14-115 21-175 21s-119-7-175-21c-29 13-62 21-96 21-126 0-229-102-229-229s103-229 229-229c86 0 161 47 200 117 23 4 47 8 71 8s48-4 71-8c39-70 114-117 200-117 127 0 229 102 229 229s-102 229-229 229z m-438-332c-58-57-150-58-207 0-57 57-57 149 0 206 57 57 149 57 207 0 56-57 57-149 0-206z m541 0c-57-57-149-58-206 0-57 57-57 149 0 206 57 57 149 57 206 0 57-57 57-149 0-206z m-528 778l59-59-96-95h524v-84h-524l96-95-59-59-197 196 197 196z" horiz-adv-x="1000" />

<glyph glyph-name="find_previous2" unicode="&#xe84d;" d="M667 433c-115 0-209-93-209-208 0-42 13-82 35-115l-189-189c-16-16-16-43 0-59 8-8 19-12 29-12s22 4 30 12l189 189c33-21 72-34 115-34 115 0 208 93 208 208s-93 208-208 208z m0-333c-69 0-125 56-125 125s56 125 125 125 125-56 125-125-57-125-125-125z m-363 696l59-59-96-95h525v-84h-525l96-95-59-59-196 196 196 196z" horiz-adv-x="1000" />

<glyph glyph-name="find_previous3" unicode="&#xe84e;" d="M571 529l-137-137 137-137-59-60-196 197 196 196 59-59z m180-371c52 64 82 145 82 234 0 207-168 375-375 375s-375-168-375-375 168-375 375-375c89 0 170 31 234 82l195-195 59 59-195 195z m-293-58c-161 0-291 130-291 292s130 291 291 291 292-130 292-291-130-292-292-292z" horiz-adv-x="1000" />

<glyph glyph-name="font_bold" unicode="&#xe84f;" d="M650 400c41 28 69 74 69 117 0 94-73 166-167 166h-260v-583h293c87 0 155 71 155 158 0 63-36 117-90 142z m-233 179h125c34 0 62-28 62-62s-28-63-62-63h-125v125z m146-375h-146v125h146c34 0 62-28 62-62s-28-63-62-63z" horiz-adv-x="1000" />

<glyph glyph-name="font_color" unicode="&#xe850;" d="M0 17h1000v-167h-1000v167z m458 708l-229-583h94l47 125h260l47-125h93l-228 583h-84z m-57-375l99 264 99-264h-198z" horiz-adv-x="1000" />

<glyph glyph-name="font_italic" unicode="&#xe851;" d="M634 558h116v125h-333v-125h92l-143-333h-116v-125h333v125h-92l143 333z" horiz-adv-x="1000" />

<glyph glyph-name="font_strikethrough" unicode="&#xe852;" d="M417 204h166v-146h-166v146z m-209 479v-125h209v-145h166v145h209v125h-584z m-83-333h750v-83h-750v83z" horiz-adv-x="1000" />

<glyph glyph-name="font_underlined" unicode="&#xe853;" d="M500 142c138 0 250 112 250 250v333h-104v-333c0-81-66-146-146-146-80 0-146 65-146 146v333h-104v-333c0-138 112-250 250-250z m-292-84h584v-83h-584v83z m0 0h584v-83h-584v83z" horiz-adv-x="1000" />

<glyph glyph-name="footer" unicode="&#xe854;" d="M833 683v-583h-666v583c0 46 37 84 83 84h500c46 0 83-38 83-84z m-666-666c0-46 37-84 83-84h500c46 0 83 38 83 84h-666z" horiz-adv-x="1000" />

<glyph glyph-name="format_painter" unicode="&#xe855;" d="M417 642h-84l-229-584h94l47 125h352l-180 459z m-42-112l99-263h-198l99 263z m177-393l78-78v-1h-79v79h1z m29 29l78-78 213 213-78 78-213-213z m339 213l-48 49c-9 7-22 7-30 0l-19-19 79-79 18 19c8 9 8 21 0 30z" horiz-adv-x="1000" />

<glyph glyph-name="formula" unicode="&#xe856;" d="M917 188c0-23-35-46-104-46-51 0-80 56-109 112l-101-112h-70l145 163c-33 64-53 128-108 128h-62c-36-173-81-375-309-375-62 0-91 25-104 47-7 10-12 22-12 35v3l1-1c1 31 26 56 57 56 32 0 58-26 58-58 0-12-4-23-9-32l9-3c119 0 131 168 169 328-13 0-24 1-35 0h-62c-12 0-21 10-21 21s9 21 21 21h109c38 135 105 255 282 255 62 0 91-24 104-47 7-9 12-21 12-35v-2h0c-2-31-27-56-58-56-32 0-58 26-58 58 0 12 3 23 10 32l-10 3c-89 0-118-93-144-208h144c35 0 63-38 88-87l74 87h70l-119-138c32-70 60-149 96-149h46z" horiz-adv-x="1000" />

<glyph glyph-name="full_screen_reading" unicode="&#xe857;" d="M0 683v-666h1000v666h-1000z m458-583h-375v500h375v-500z m459 0h-375v500h375v-500z m-542 292h-208v83h208v-83z m0-84h-208v-83h208v83z m458-83h-208v83h208v-83z m0 167h-208v83h208v-83z" horiz-adv-x="1000" />

<glyph glyph-name="group" unicode="&#xe858;" d="M833 767c0 0-583 0-666 0s-84-84-84-84 0-583 0-666 84-84 84-84 583 0 666 0 84 84 84 84 0 583 0 666-84 84-84 84z m0-750h-666v666h666v-666z m-83 416v-333h-333v167h-167v333h333v-167h167z" horiz-adv-x="1000" />

<glyph glyph-name="header" unicode="&#xe859;" d="M833 683h-666c0 46 37 84 83 84h500c46 0 83-38 83-84z m-666-83h666v-583c0-46-37-84-83-84h-500c-46 0-83 38-83 84v583z" horiz-adv-x="1000" />

<glyph glyph-name="header_and_footer" unicode="&#xe85a;" d="M833 683h-666c0 46 37 84 83 84h500c46 0 83-38 83-84z m-666-666c0-46 37-84 83-84h500c46 0 83 38 83 84h-666z m0 583h666v-500h-666v500z" horiz-adv-x="1000" />

<glyph glyph-name="highlighter" unicode="&#xe85b;" d="M875 142v-167h-505l166 167h339z m-12 415l-582-582h-156v156l582 582c16 16 42 16 58 0l98-98c16-16 16-42 0-58z" horiz-adv-x="1000" />

<glyph glyph-name="horizontal_line" unicode="&#xe85c;" d="M83 392h834v-84h-834v84z m167 166h500v-83h-500v83z m0-333h500v-83h-500v83z" horiz-adv-x="1000" />

<glyph glyph-name="import" unicode="&#xe85d;" d="M750 433c-92 0-166 75-166 167v167h-251c-45 0-83-38-83-84v-375h275l-55 54 60 59 154-154-154-155-60 59 55 54h-275v-208c0-46 38-84 83-84h500c46 0 84 38 84 84v416h-167z m-83 334l0-167c0-46 37-83 83-83h167l-250 250z m-417-459v-83h-167v83h167z" horiz-adv-x="1000" />

<glyph glyph-name="increase_ident" unicode="&#xe85e;" d="M125-25h750v83h-750v-83z m333 167h417v83h-417v-83z m-333 583v-83h750v83h-750z m333-250h417v83h-417v-83z m0-167h417v84h-417v-84z m-333 209v-334l250 167-250 167z" horiz-adv-x="1000" />

<glyph glyph-name="insert_chart" unicode="&#xe85f;" d="M917 183v-83h-250l-167-167-167 167h-250v667h84v-584h750z m-250 584v-500h-167v500h167z m83-250v-250h167v250h-167z m-500 166v-416h167v416h-167z" horiz-adv-x="1000" />

<glyph glyph-name="insert_document" unicode="&#xe860;" d="M583 850l1-167c0-45 37-83 83-83h166l-250 250z m250-333v-334c0-45-37-83-83-83h-83l-167-167-167 167h-83c-46 0-83 38-83 83v584c0 46 37 83 83 83h250v-167c0-92 75-166 167-166h166z" horiz-adv-x="1000" />

<glyph glyph-name="insert_hyperlink" unicode="&#xe861;" d="M500-67l-167 167h334l-167-167z m208 667h-166v-83h166c21-1 125-8 125-125 0-118-104-125-125-125h-166v-84h166c72 0 209 44 209 209s-137 208-209 208z m0-250v83h-416v-83h416z m-416-83c-21 0-125 7-125 125 0 117 104 124 125 125h166v83h-166c-72 0-209-43-209-208s137-209 209-209h166v84h-166z m166 166h-83v84h83v-84z m167 84h-83v-84h83v84z m-167-167h-83v-83h83v83z m167 0h-83v-83h83v83z" horiz-adv-x="1000" />

<glyph glyph-name="insert_image" unicode="&#xe862;" d="M792 850h-584c-45 0-83-37-83-83v-584c0-45 38-83 83-83h125l167-167 167 167h125c46 0 83 38 83 83v584c0 46-37 83-83 83z m-584-625l146 188 104-125 146 187 188-250h-584z" horiz-adv-x="1000" />

<glyph glyph-name="insert_shape" unicode="&#xe863;" d="M500-67l-167 167h334l-167-167z m-292 834v-584h584v584h-584z m292-500c-115 0-208 93-208 208s93 208 208 208 208-93 208-208-93-208-208-208z" horiz-adv-x="1000" />

<glyph glyph-name="insert_symbol" unicode="&#xe864;" d="M500-67l-167 167h334l-167-167z m208 292v-42h-187v125c59 8 104 53 104 125 0 81-56 125-125 125-69 0-125-44-125-125 0-72 45-116 104-125v-125h-187v42h83c1 0 2 0 3 0h1c17 3 17 21 17 21v42c-62 25-104 71-104 145 0 109 93 167 208 167s208-58 208-167c0-74-42-120-104-145v-42c0 0 0-18 17-21h1c1 0 2 0 3 0h83z" horiz-adv-x="1000" />

<glyph glyph-name="insert_table" unicode="&#xe865;" d="M500-67l-167 167h334l-167-167z m-417 834v-584h834v584h-834z m250-500h-166v166h166v-166z m0 250h-166v166h166v-166z m250-250h-166v166h166v-166z m0 250h-166v166h166v-166z m250-250h-166v166h166v-166z m0 250h-166v166h166v-166z" horiz-adv-x="1000" />

<glyph glyph-name="kerning" unicode="&#xe866;" d="M83 517v-334l250 167-250 167z m834 0v-334l-250 167 250 167z m-584-84h84v-166h-84v166z m0 292h84v-167h-84v167z m0-583h84v-167h-84v167z m250 291h84v-166h-84v166z m0-291h84v-167h-84v167z m0 583h84v-167h-84v167z" horiz-adv-x="1000" />

<glyph glyph-name="labels" unicode="&#xe867;" d="M167 683h291v-166h-291v166z m375 0h291v-166h-291v166z m-375-250h291v-166h-291v166z m375 0h291v-166h-291v166z m-375-250h291v-166h-291v166z m375 0h291v-166h-291v166z" horiz-adv-x="1000" />

<glyph glyph-name="leading" unicode="&#xe868;" d="M917 767v-292-83h-738l136-91-46-69-61 40v-219l61 40 46-69-136-91h238v209c0 0 0 83 83 83h417v-292-83h-917v83h154l-135 91 46 69 60-40v219l-60-40-46 69 135 91h-154v83h417v208c0 0 0 84 83 84h417z" horiz-adv-x="1000" />

<glyph glyph-name="mail" unicode="&#xe869;" d="M916 600l-416-208-416 208c0 12 8 83 84 83 82 0 665 0 665 0s83 0 83-83z m-416-292l-417 209v-417c0-83 84-83 84-83 0 0 666 0 666 0 83 0 83 83 83 83v416l-416-208z" horiz-adv-x="1000" />

<glyph glyph-name="margins" unicode="&#xe86a;" d="M250 767v-84h-83c0 46 37 84 83 84z m-83-667h83v500h-83v-500z m83-167v84h-83c0-46 37-84 83-84z m83 750h334v84h-334v-84z m0-583h334v500h-334v-500z m0-167h334v84h-334v-84z m417 0c46 0 83 38 83 84h-83v-84z m0 834v-84h83c0 46-37 84-83 84z m0-667h83v500h-83v-500z" horiz-adv-x="1000" />

<glyph glyph-name="merge_cells" unicode="&#xe86b;" d="M83 767v-834h834v834h-834z m334-84h166v-166h-166v166z m-250 0h166v-166h-166v166z m166-666h-166v166h166v-166z m250 0h-166v166h166v-166z m250 0h-166v166h166v-166z m0 250h-666v166h666v-166z m0 250h-166v166h166v-166z" horiz-adv-x="1000" />

<glyph glyph-name="merge_to_pdf" unicode="&#xe86c;" d="M446 506c-3 8-6 15-8 22-20 51-11 106 4 140 8 17 15 27 20 32 3-9 7-25 7-58 0-38-9-85-23-136z m53-213c-14 20-28 40-41 60-10-26-21-53-33-79 23 8 48 14 74 19z m165-44c-13 0-26-1-39-2 30-27 62-48 93-57 35-10 67-4 97 18 11 9 17 15 19 19-13 10-66 26-170 22z m294 476c0 83-83 83-83 83s-667 0-750 0-83-94-83-94 0-85 0-197l166-167-166-167v-208c0-83 83-83 83-83s667 0 750 0 83 83 83 83 0 90 0 208l-64 65c1-3 2-5 3-7 6-28-9-56-45-83-45-33-97-43-151-28-55 16-108 57-155 108-70-11-129-29-163-50-57-111-120-203-169-233-16-10-30-14-41-14-10 0-18 3-25 6-24 12-38 31-40 55-6 66 89 143 119 165l23-25c-46-35-82-114-80-134 0-2 5-5 6-5 27 3 85 84 142 191 0 0 12 24 19 37 30 60 58 126 82 189-16 31-30 60-40 85-37 95-1 200 40 240 29 28 56 22 66 18 31-14 46-53 46-121 0-55-17-132-45-214 24-42 53-85 84-123 85 10 170 9 227-1 24-4 44-11 59-18l-64 64 166 167v208z" horiz-adv-x="1000" />

<glyph glyph-name="multilevel_list" unicode="&#xe86d;" d="M250 600h667v-83h-667v83z m167-292h500v-83h-500v83z m166-291h334v-84h-334v84z m-125 41v-125h42v125h-42z m0 84v-42h42v42h-42z m-291 583v-208h-42v166h-42v42h84z m125-292v-20c-17 12-39 20-63 20-57 0-104-46-104-104s47-104 104-104c24 0 46 8 63 21v-21h41v208h-41z m-63-166c-34 0-62 28-62 62s28 63 62 63 63-28 63-63-28-62-63-62z" horiz-adv-x="1000" />

<glyph glyph-name="new_window" unicode="&#xe86e;" d="M875 642h-750c-42 0-42-42-42-42v-583c0-42 42-42 42-42h750c42 0 42 42 42 42v583c0 42-42 42-42 42z m-167-42c23 0 42-19 42-42s-19-41-42-41-41 18-41 41 18 42 41 42z m-125 0c23 0 42-19 42-42s-19-41-42-41-41 18-41 41 18 42 41 42z m250-542h-291v95l83-48 42 73-83 47 83 47-42 73-83-48v95h-84v-95l-83 48-42-73 83-47-83-47 42-73 83 48v-95h-291v417h666v-417z m0 459c-23 0-41 18-41 41s18 42 41 42 42-19 42-42-19-41-42-41z" horiz-adv-x="1000" />

<glyph glyph-name="numbering" unicode="&#xe86f;" d="M83 142h84v-21h-42v-42h42v-21h-84v-41h125v166h-125v-41z m42 375h42v166h-84v-41h42v-125z m-42-125h75l-75-88v-37h125v41h-75l75 88v37h-125v-41z m209 250v-84h583v84h-583z m0-584h583v84h-583v-84z m0 250h583v84h-583v-84z" horiz-adv-x="1000" />

<glyph glyph-name="outlook" unicode="&#xe870;" d="M500 600c-138 0-250-112-250-250 0-138 112-250 250-250 138 0 250 112 250 250 0 138-112 250-250 250z m125-292h-167v209h84v-125h83v-84z m-292 459c-250 0-250-250-250-250v-584h834v834h-584z m167-750c-184 0-333 149-333 333s149 333 333 333 333-149 333-333-149-333-333-333z" horiz-adv-x="1000" />

<glyph glyph-name="outlook2" unicode="&#xe871;" d="M625 350c0-90-57-167-125-167s-125 77-125 167 57 167 125 167 125-77 125-167z m292 417v-834h-834v584c0 0 0 250 250 250h584z m-209-417c0 138-93 250-208 250s-208-112-208-250c0-138 93-250 208-250s208 112 208 250z" horiz-adv-x="1000" />

<glyph glyph-name="page_border" unicode="&#xe872;" d="M750 767h-500c-46 0-83-38-83-84v-666c0-46 37-84 83-84h500c46 0 83 38 83 84v666c0 46-37 84-83 84z m0-750h-500v666h500v-666z" horiz-adv-x="1000" />

<glyph glyph-name="page_break" unicode="&#xe873;" d="M42 225v250l125-124-125-126z m916 0v250l-125-124 125-126z m-208 458v-208h-500v208h500m0 84h-500c-46 0-83-38-83-84v-291h666v291c0 46-37 84-83 84l0 0z m0-542v-208h-500v208h500m83 83h-666v-291c0-46 37-84 83-84h500c46 0 83 38 83 84v291l0 0z" horiz-adv-x="1000" />

<glyph glyph-name="page_color" unicode="&#xe874;" d="M583 767l1-167c0-46 37-83 83-83h166l-250 250z m84-334c-92 0-167 75-167 167v167h-250c-46 0-83-38-83-84v-666c0-46 37-84 83-84h500c46 0 83 38 83 84v416h-166z m-417-416v666h167v-83c0-87 45-165 114-209l-281-374z" horiz-adv-x="1000" />

<glyph glyph-name="page_number" unicode="&#xe875;" d="M667 433c-92 0-167 75-167 167v167h-250c-46 0-83-38-83-84v-666c0-46 37-84 83-84h500c46 0 83 38 83 84v416h-166z m41-166h-83v-84h83v-83h-83v-83h-83v83h-84v-83h-83v83h-83v83h83v84h-83v83h83v83h83v-83h84v83h83v-83h83v-83z m-250-84h84v84h-84v-84z m125 584l1-167c0-46 37-83 83-83h166l-250 250z" horiz-adv-x="1000" />

<glyph glyph-name="paste" unicode="&#xe876;" d="M833 475v208c0 84-83 84-83 84h-174c-18 48-63 83-118 83s-100-35-117-83h-174c-84 0-84-84-84-84v-541c0 0 0-84 84-84h166v-125h584v542h-84z m-375 292c23 0 42-19 42-42s-19-42-42-42-41 19-41 42 18 42 41 42z m-125-292v-333h-166v541h83v-125h417v125h83v-208h-417z" horiz-adv-x="1000" />

<glyph glyph-name="powerpoint" unicode="&#xe877;" d="M333 767c0 0-250 0-250-250v-584h834v834h-584z m-83-709h-83v84h83v-84z m250 625v-208h208c0-115-93-208-208-208s-208 93-208 208 93 208 208 208z m333-625h-500v84h500v-84z" horiz-adv-x="1000" />

<glyph glyph-name="powerpoint2" unicode="&#xe878;" d="M583 433c0-83-83-83-83-83h-42v167h42c0 0 83 0 83-84z m334 334v-834h-834v584c0 250 250 250 250 250h584z m-250-334c0 167-167 167-167 167h-125v-500h83v167h42c0 0 167 0 167 166z" horiz-adv-x="1000" />

<glyph glyph-name="print" unicode="&#xe879;" d="M792 517h-42v208h-500v-208h-42c-125 0-125-125-125-125v-250h167v-167h500v167h167v250c0 125-125 125-125 125z m-125-459h-334v167h334v-167z m0 459h-334v125h334v-125z m125-167c-23 0-42 19-42 42s19 41 42 41 41-18 41-41-18-42-41-42z" horiz-adv-x="1000" />

<glyph glyph-name="print_layout" unicode="&#xe87a;" d="M833 767h-666c-46 0-84-38-84-84v-666c0-46 38-84 84-84h666c46 0 84 38 84 84v666c0 46-38 84-84 84z m-666-84h166v-83h-83v-83h-83v166z m500-208v-83h-334v83h334z m-334-458h-166v166h83v-83h83v-83z m0 291h334v-83h-334v83z m500-291h-166v83h83v83h83v-166z m0 500h-83v83h-83v83h166v-166z" horiz-adv-x="1000" />

<glyph glyph-name="quick_parts" unicode="&#xe87b;" d="M833 517h-250v83h250v-83z m0-84h-250v-83h250v83z m-352 132l-46 70-60-41v89h-83v-89l-61 41-46-70 74-48-74-49 46-69 61 40v-89h83v89l60-40 46 69-73 49 73 48z m174-536l-155-154-155 154 60 59 53-54v233h84v-233l53 54 60-59z" horiz-adv-x="1000" />

<glyph glyph-name="reduce_ident" unicode="&#xe87c;" d="M125-25h750v83h-750v-83z m333 167h417v83h-417v-83z m-333 583v-83h750v83h-750z m333-250h417v83h-417v-83z m0-167h417v84h-417v-84z m-333 42l250-167v334l-250-167z" horiz-adv-x="1000" />

<glyph glyph-name="reject_document" unicode="&#xe87d;" d="M667 433c-92 0-167 75-167 167v167h-250c-46 0-83-38-83-84v-666c0-46 37-84 83-84h500c46 0 83 38 83 84v416h-166z m-10-348l-64-54-93 109-93-109-64 54 102 119-102 119 64 54 93-109 93 109 64-54-102-119 102-119z m-74 682l1-167c0-46 37-83 83-83h166l-250 250z" horiz-adv-x="1000" />

<glyph glyph-name="replace" unicode="&#xe87e;" d="M667 725h-500c-46 0-84-37-84-83v-209c0-45 38-83 84-83h26c12 39 39 79 88 96l-31 51-38-64h-49l63 105-63 104h49l38-64 38 64h49l-63-104 51-84c3 0 5 0 8 0h84v79l-44 109h45l20-63 19 63h45l-44-109v-79h84v5l70 141h-70v42h125v-26l-71-141h71v-21h83v188c0 46-37 83-83 83z m-250-500h-42v42h42v-42z m166 42v-42h-41v42h41z m42-84v-41h-83v41h83z m0 0v-41h-83v41h83z m-42 42h-41v42h41v-42z m334 83v-208c0-46-38-83-84-83h-500c-45 0-83 37-83 83v208c0 0 0 84 83 84h500c46 0 84-38 84-84z m-459 0h-125v-208h42v83h42v-83h41v208z m209-83h-42v83h-125v-208h167v125z m166 83h-125v-208h125v42h-83v125h83v41z m-291-125h83v-41h-83v41z m41 42h-41v42h41v-42z" horiz-adv-x="1000" />

<glyph glyph-name="research" unicode="&#xe87f;" d="M542 433c68 0 125-56 125-125 0-68-57-125-125-125-69 0-125 57-125 125 0 69 56 125 125 125z m-292 250h583c0 46-37 84-83 84h-500c-46 0-83-38-83-84v-666c0-46 37-84 83-84h500c29 0 55 15 70 38l-163 163c-33-21-73-34-115-34-115 0-209 93-209 208s94 209 209 209 208-94 208-209c0-42-13-82-34-115l117-117v524h-583v83z" horiz-adv-x="1000" />

<glyph glyph-name="rotate" unicode="&#xe880;" d="M458 62v-85c-164 21-291 161-291 331h83c0-123 90-226 208-246z m84 0v-85c151 19 270 139 289 290h-85c-17-105-100-187-204-205z m204 288h85c-21 165-161 292-331 292v166l-208-208 208-208v166c124 0 227-90 246-208z" horiz-adv-x="1000" />

<glyph glyph-name="scissors" unicode="&#xe881;" d="M500 267l-83 83-99-98c-20 9-43 15-68 15-92 0-167-75-167-167s75-167 167-167 167 75 167 167c0 25-6 48-15 68l98 99z m-250-250c-46 0-83 37-83 83s37 83 83 83 83-37 83-83-37-83-83-83z m271 333c0-12-9-21-21-21s-21 9-21 21 9 21 21 21 21-9 21-21z m396 375v-42l-334-333-83 83 292 292h125z m-334-375l-83-83 292-292h125v42l-334 333z m-181 182c9 21 15 43 15 68 0 92-75 167-167 167s-167-75-167-167 75-167 167-167c25 0 48 6 68 15l99-98 83 83-98 99z m-152-15c-46 0-83 37-83 83s37 83 83 83 83-37 83-83-37-83-83-83z" horiz-adv-x="1000" />

<glyph glyph-name="search" unicode="&#xe882;" d="M500 600h-83l-125-375h83l28 83h111l28-83h83l-125 375z m-70-208l28 83 28-83h-56z m321-234c52 64 82 145 82 234 0 207-168 375-375 375s-375-168-375-375 168-375 375-375c89 0 170 31 234 82l195-195 59 59-195 195z m-293-58c-161 0-291 130-291 292s130 291 291 291 292-130 292-291-130-292-292-292z" horiz-adv-x="1000" />

<glyph glyph-name="select_all" unicode="&#xe883;" d="M875 308v250h-167v167h-583v-750h750v250h-167v83h167z m-667 334h417v-84h-417v84z m0-334h417v-83h-417v83z m584-166v-84h-584v84h584z m-584 250v83h584v-83h-584z" horiz-adv-x="1000" />

<glyph glyph-name="select_all2" unicode="&#xe884;" d="M83 725h834v-83h-834v83z m0-167h667v-83h-667v83z m0-500h834v-83h-834v83z m0 334h750v-84h-750v84z m0-167h500v-83h-500v83z" horiz-adv-x="1000" />

<glyph glyph-name="send_to_back" unicode="&#xe885;" d="M708 350v208h-208v209h-417v-417h209v-208h208v-209h417v417h-209z m-270 63h-292v291h292v-291z m416-417h-291v292h291v-292z" horiz-adv-x="1000" />

<glyph glyph-name="shapes" unicode="&#xe886;" d="M750 517c-27 0-53-4-77-12l-173 345-208-417h272c-21-23-38-52-49-83h-348v-500h500v181c26-9 54-14 83-14 138 0 250 112 250 250 0 138-112 250-250 250z m-167-584h-333v334h333v-334z" horiz-adv-x="1000" />

<glyph glyph-name="show_symbols" unicode="&#xe887;" d="M875 767v-125h-125v-709h-125v709h-125v-709h-125v334c-138 0-250 112-250 250s112 250 250 250h500z" horiz-adv-x="1000" />

<glyph glyph-name="smallcaps" unicode="&#xe888;" d="M375 403l45-136h-90l45 136z m542 239v-584c0-23-19-41-42-41h-750c-23 0-42 18-42 41v584c0 23 19 41 42 41h750c23 0 42-18 42-41z m-309-542l-167 500h-132l-166-500h131l28 83h146l28-83h132z m184 208h-125v-208h41v83h42v-83h42v208z m-42-83h-42v42h42v-42z" horiz-adv-x="1000" />

<glyph glyph-name="sort_ascending" unicode="&#xe889;" d="M250 725l-167-250h125v-500h84v500h125l-167 250z m250 0h375v-83h-375v83z m0-167h375v-83h-375v83z m-125-166h500v-84h-500v84z m0-167h500v-83h-500v83z m0-167h500v-83h-500v83z" horiz-adv-x="1000" />

<glyph glyph-name="sort_descending" unicode="&#xe88a;" d="M417 225h-125v500h-84v-500h-125l167-250 167 250z m83-167h375v-83h-375v83z m0 167h375v-83h-375v83z m-125 167h500v-84h-500v84z m0 166h500v-83h-500v83z m0 167h500v-83h-500v83z" horiz-adv-x="1000" />

<glyph glyph-name="spell_check" unicode="&#xe88b;" d="M292 486l66-219h-132l66 219z m291-261c0-23-18-42-41-42s-42 19-42 42 19 42 42 42 41-19 41-42z m0 0c0-23-18-42-41-42s-42 19-42 42 19 42 42 42 41-19 41-42z m334 417v-584h-834v584h834z m-479-500l-126 422h-40l-127-422h44l24 83h157l25-83h43z m187 83c0 46-37 83-83 83-15 0-30-4-42-11v53h-42v-208h42v11c12-7 27-11 42-11 46 0 83 37 83 83z m83 0c0 23 19 42 42 42 12 0 22-5 30-12l29 29c-15 15-36 24-59 24-46 0-83-37-83-83s37-83 83-83c23 0 44 9 59 24l-29 29c-8-7-18-12-30-12-23 0-42 19-42 42z m-125 0c0-23-18-42-41-42s-42 19-42 42 19 42 42 42 41-19 41-42z" horiz-adv-x="1000" />

<glyph glyph-name="split_cell" unicode="&#xe88c;" d="M83 767v-834h834v834h-834z m84-334h291v-166h-291v166z m666-416h-666v166h666v-166z m0 250h-291v166h291v-166z m0 250h-666v166h666v-166z" horiz-adv-x="1000" />

<glyph glyph-name="split_column" unicode="&#xe88d;" d="M792 767v-834h125v834h-125z m-709 0v-834h125v834h-125z m459 0v-167h-84v167h-166v-834h166v167h84v-167h166v834h-166z m0-500h-84v166h84v-166z" horiz-adv-x="1000" />

<glyph glyph-name="split_row" unicode="&#xe88e;" d="M542 558v-166h-84v166h-375v-416h375v166h84v-166h375v416h-375z m-459-500v-125h834v125h-834z m0 709v-125h834v125h-834z" horiz-adv-x="1000" />

<glyph glyph-name="split_table" unicode="&#xe88f;" d="M83 767v-334h834v334h-834z m250-250h-166v166h166v-166z m250 0h-166v166h166v-166z m250 0h-166v166h166v-166z m-750-250v-334h834v334h-834z m250-250h-166v166h166v-166z m250 0h-166v166h166v-166z m250 0h-166v166h166v-166z" horiz-adv-x="1000" />

<glyph glyph-name="stats_column_chart" unicode="&#xe890;" d="M83 17v666h84v-583h750v-83h-834z m417 166h167v500h-167v-500z m250 0h167v250h-167v-250z m-500 0h167v417h-167v-417z m167 417h-167v-417h167v417z" horiz-adv-x="1000" />

<glyph glyph-name="subscript" unicode="&#xe891;" d="M375 403l45-136h-90l45 136z m542 239v-584c0-23-19-41-42-41h-750c-23 0-42 18-42 41v584c0 23 19 41 42 41h750c23 0 42-18 42-41z m-309-542l-167 500h-132l-166-500h131l28 83h146l28-83h132z m184 167h-125v-209h41v84h42v-84h42v209z m-42-84h-42v42h42v-42z" horiz-adv-x="1000" />

<glyph glyph-name="superscript" unicode="&#xe892;" d="M458 403l46-136h-91l45 136z m459 239v-584c0-23-19-41-42-41h-750c-23 0-42 18-42 41v584c0 23 19 41 42 41h750c23 0 42-18 42-41z m-226-542l-167 500h-131l-167-500h132l27 83h146l28-83h132z m101 500h-125v-208h41v83h42v-83h42v208z m-42-83h-42v41h42v-41z" horiz-adv-x="1000" />

<glyph glyph-name="switch_windows" unicode="&#xe893;" d="M875 767h-750c-42 0-42-42-42-42v-750c0-42 42-42 42-42h750c42 0 42 42 42 42v750c0 42-42 42-42 42z m-583-767l-155 154 59 59 54-54v382l-54-54-59 59 155 154 154-154-59-59-54 54v-382l54 54 59-59-154-154z m571 546l-59-59-54 54v-382l54 54 59-59-155-154-154 154 59 59 54-54v382l-54-54-59 59 154 154 155-154z" horiz-adv-x="1000" />

<glyph glyph-name="symbol" unicode="&#xe894;" d="M917 17v-84h-375v250c118 16 208 105 208 250 0 162-112 250-250 250-138 0-250-88-250-250 0-145 90-233 208-250v-250h-375v84h167c34 4 42 41 42 41v84c-124 50-209 143-209 290 0 218 187 335 417 335 230 0 417-117 417-335 0-147-84-240-209-290v-84c0 0 0-41 42-41h167z" horiz-adv-x="1000" />

<glyph glyph-name="table" unicode="&#xe895;" d="M83 767v-834h834v834h-834z m250-750h-166v166h166v-166z m0 250h-166v166h166v-166z m0 250h-166v166h166v-166z m250-500h-166v166h166v-166z m0 250h-166v166h166v-166z m0 250h-166v166h166v-166z m250-500h-166v166h166v-166z m0 250h-166v166h166v-166z m0 250h-166v166h166v-166z" horiz-adv-x="1000" />

<glyph glyph-name="text_box" unicode="&#xe896;" d="M250 725v-83h-83v-84h-84v167h167z m0-750v83h-83v84h-84v-167h167z m500 750v-83h83v-84h84v167h-167z m0-750v83h83v84h84v-167h-167z m-500 583h500v-83h-500v83z m0-166h500v-84h-500v84z m0-167h500v-83h-500v83z" horiz-adv-x="1000" />

<glyph glyph-name="thesaurus" unicode="&#xe897;" d="M250 683h583c0 46-37 84-83 84h-500c-46 0-83-38-83-84v-666c0-46 37-84 83-84h500c46 0 83 38 83 84v583h-583v83z m83-166h417v-167h-83v83h-84v-333h84v-83h-250v83h83v333h-83v-83h-84v167z" horiz-adv-x="1000" />

<glyph glyph-name="track_changes" unicode="&#xe898;" d="M417 173l156-156h-156l0 156z m47 48l157-157 201 202-156 157-202-202z m441 186l-98 98c-16 16-42 16-59 0l-35-36 1 1 156-156 35 34c16 17 16 43 0 59z m-822 26v-83h417v83h-417z m125 167v-83h417v83h-417z m-125 167v-84h750v84h-750z m84-500v-84h166v84h-166z m166-167v-83h-250v83h250z" horiz-adv-x="1000" />

<glyph glyph-name="tracking" unicode="&#xe899;" d="M743 165l99-148-99-148-69 46 40 60h-428l40-60-69-46-99 148 99 148 69-46-40-61h428l-40 61 69 46z m-34 602c0 0-126 0-126-125v-375h-166v375c0 125-126 125-126 125h-208v-584h834v584h-208z" horiz-adv-x="1000" />

<glyph glyph-name="view_gridlines" unicode="&#xe89a;" d="M83 767v-834h834v834h-834z m250-750h-166v666h166v-666z m250 0h-166v166h166v-166z m0 250h-166v166h166v-166z m250-250h-166v166h166v-166z m0 250h-166v166h166v-166z m0 250h-416v166h416v-166z" horiz-adv-x="1000" />

<glyph glyph-name="visio" unicode="&#xe89b;" d="M333 767c0 0-250 0-250-250v-584h834v834h-584z m212-667h-89l-167 458h89l124-341 103 258h-105v83h167l38-57-160-401z" horiz-adv-x="1000" />

<glyph glyph-name="watermark" unicode="&#xe89c;" d="M667 433c-92 0-167 75-167 167v167h-250c-46 0-83-38-83-84v-666c0-46 37-84 83-84h500c46 0 83 38 83 84v416h-166z m-167-416c0 0-125 0-125 125s125 250 125 250 125-125 125-250-125-125-125-125z m83 750v-167c0-46 38-83 84-83h166l-250 250z" horiz-adv-x="1000" />

<glyph glyph-name="web_layout" unicode="&#xe89d;" d="M500 767c-230 0-417-187-417-417 0-230 187-417 417-417 230 0 417 187 417 417 0 230-187 417-417 417z m125-292v-83h-250v83h250z m-417 167h167v-84h-83v-83h-84v167z m167-584h-167v167h84v-83h83v-84z m0 167v83h250v-83h-250z m417-167h-167v84h83v83h84v-167z m0 417h-84v83h-83v84h167v-167z" horiz-adv-x="1000" />

<glyph glyph-name="word" unicode="&#xe89e;" d="M333 767c0 0-250 0-250-250v-584h834v834h-584z m322-667h-60l-95 285-95-285h-61l-138 458h87l84-278 93 278h60l95-285 67 202h-67v83h183l-153-458z" horiz-adv-x="1000" />

<glyph glyph-name="word_count" unicode="&#xe89f;" d="M167 475h-84v83h167v-416h-83v333z m416-250h-166v83h83c46 0 83 38 83 84v83c0 46-37 83-83 83h-167v-83h167v-83h-83c-46 0-84-37-84-84v-166h250v83z m334 0v63c0 34-28 62-63 62 35 0 63 28 63 63v62c0 46-38 83-84 83h-166v-83h166v-83h-83v-84h83v-83h-166v-83h166c46 0 84 37 84 83z" horiz-adv-x="1000" />

<glyph glyph-name="word_wrap" unicode="&#xe8a0;" d="M833 642v-84h-666v84h666z m-166-250h-500v-84h500c14 0 83-4 83-83 0-76-64-83-83-83h-42v83l-125-125 125-125v83h42c67 0 166 45 166 167 0 122-99 167-166 167z m-500-334h250v84h-250v-84z" horiz-adv-x="1000" />

<glyph glyph-name="word_wrap2" unicode="&#xe8a1;" d="M167 642h666v-84h-666v84z m416-167h250v-83h-250v83z m0-167h250v-83h-250v83z m-416-166h666v-84h-666v84z m0 333h333v-250h-333v250z" horiz-adv-x="1000" />

<glyph glyph-name="zoom" unicode="&#xe8a2;" d="M751 158c52 64 82 145 82 234 0 207-168 375-375 375s-375-168-375-375 168-375 375-375c89 0 170 31 234 82l195-195 59 59-195 195z m-293-58c-161 0-291 130-291 292s130 291 291 291 292-130 292-291-130-292-292-292z" horiz-adv-x="1000" />
</font>
</defs>
</svg>
