<?xml version="1.0" standalone="no"?>
<!DOCTYPE svg PUBLIC "-//W3C//DTD SVG 1.1//EN" "http://www.w3.org/Graphics/SVG/1.1/DTD/svg11.dtd">
<svg xmlns="http://www.w3.org/2000/svg">
<metadata>iconshock</metadata>
<defs>
<font id="materialblack_mail" horiz-adv-x="1000" >
<font-face font-family="materialblack_mail" font-weight="400" font-stretch="normal" units-per-em="1000" ascent="850" descent="-150" />
<missing-glyph horiz-adv-x="1000" />
<glyph glyph-name="address" unicode="&#xe800;" d="M500 683c-184 0-333-149-333-333s149-333 333-333c59 0 114 15 161 42l-40 73c-36-20-77-32-121-32-138 0-250 112-250 250 0 138 112 250 250 250 138 0 250-112 250-250 0-71-30-83-61-83-30 0-50 25-50 55v139c0 0-47 56-139 56s-167-75-167-167c0-92 75-167 167-167 48 0 83 15 107 30 22-18 50-30 82-30 77 0 144 51 144 167 0 184-149 333-333 333z m-83-333c0 46 37 83 83 83 22 0 41-6 56-12v-99c0-14 2-27 6-40-16-7-37-15-62-15-46 0-83 37-83 83z" horiz-adv-x="1000" />

<glyph glyph-name="address_book" unicode="&#xe801;" d="M250 683h583c0 46-37 84-83 84h-500c-46 0-83-38-83-84v-666c0-46 37-84 83-84h500c46 0 83 38 83 84v583h-583v83z m292-166c138 0 250-112 250-250 0-87-51-125-108-125-24 0-46 8-62 22-18-11-44-22-80-22-69 0-125 56-125 125s56 125 125 125 104-42 104-42v-104c0-23 14-42 38-42 23 0 45 9 45 63 0 103-84 187-187 187-104 0-188-84-188-187 0-104 84-188 188-188 33 0 63 9 90 24l31-55c-36-20-78-31-121-31-138 0-250 112-250 250 0 138 112 250 250 250z m41-271c0-11 2-21 5-30-11-6-28-12-46-12-35 0-63 28-63 63s28 62 63 62c16 0 30-4 41-9v-74z" horiz-adv-x="1000" />

<glyph glyph-name="autoresponse" unicode="&#xe802;" d="M898 240c7-6 10-17 5-26l-84-144c-5-10-16-13-25-10l-104 42c-22-16-45-30-70-41l-16-110c-1-10-10-18-21-18h-166c-11 0-19 8-21 18l-16 110c-25 11-48 24-70 41l-104-42c-9-3-20 0-25 10l-42 72h403c67 0 166 44 166 166 0 122-99 167-166 167h-108l54 54-59 59-154-155 154-154 59 59-54 54h108c13 0 83-4 83-84 0-76-64-83-83-83h-447c0 6 3 11 8 15l87 69c-1 14-2 27-2 41s1 28 2 41l-87 69c-8 6-11 17-5 26l83 144c5 10 16 13 25 10l104-42c22 16 45 30 70 41l16 110c2 10 10 18 21 18h166c11 0 20-8 21-18l16-110c25-11 48-24 70-41l104 42c9 3 20 0 25-10l83-144c5-9 3-20-5-26l-87-69c1-13 2-27 2-41s-1-27-2-41l88-69z" horiz-adv-x="1000" />

<glyph glyph-name="black_list" unicode="&#xe803;" d="M750 767h-500c-46 0-83-38-83-84v-666c0-46 37-84 83-84h500c46 0 83 38 83 84v666c0 46-37 84-83 84z m-417-334h-83v84h83v-84z m0 167h-83v83h83v-83z m322-512l-60-59-95 95-95-95-60 59 96 95-96 96 60 59 95-95 95 95 60-59-96-96 96-95z m95 345h-333v84h333v-84z m0 167h-333v83h333v-83z" horiz-adv-x="1000" />

<glyph glyph-name="block" unicode="&#xe804;" d="M500 767c-230 0-417-187-417-417 0-230 187-417 417-417 230 0 417 187 417 417 0 230-187 417-417 417z m-333-417c0 184 149 333 333 333 77 0 148-26 204-70l-467-467c-44 57-70 127-70 204z m333-333c-77 0-147 26-204 70l467 467c44-56 70-127 70-204 0-184-149-333-333-333z" horiz-adv-x="1000" />

<glyph glyph-name="body" unicode="&#xe805;" d="M750 767h-500c-46 0-83-38-83-84v-666c0-46 37-84 83-84h500c46 0 83 38 83 84v666c0 46-37 84-83 84z m0-625h-500v83h500v-83z m0 166h-500v84h500v-84z m0 167h-500v83h500v-83z" horiz-adv-x="1000" />

<glyph glyph-name="bounce" unicode="&#xe806;" d="M833 767v-834h-166v181l-447-137-24 80 471 144v7l-417 416v-107h-83v250h250v-84h-108l358-358v442h166z" horiz-adv-x="1000" />

<glyph glyph-name="contacts" unicode="&#xe807;" d="M917 475v125h-667v83h583c0 46-37 84-83 84h-500c-46 0-83-38-83-84v-666c0-46 37-84 83-84h500c46 0 83 38 83 84v41h84v125h-84v84h84v125h-84v83h84z m-375 42c69 0 125-56 125-125s-56-125-125-125-125 56-125 125 56 125 125 125z m208-459h-417v52c0 70 139 115 209 115s208-45 208-115v-52z" horiz-adv-x="1000" />

<glyph glyph-name="file_format_imap" unicode="&#xe808;" d="M750 267h-42v41h42v-41z m-167 41h-41v-41h41v41z m84 209h166l-250 250 1-167c0-46 37-83 83-83z m250-84v-375h-84v-41c0-46-37-84-83-84h-500c-46 0-83 38-83 84v41h-84v375h84v250c0 46 37 84 83 84h250v-167c0-92 75-167 167-167h166 84z m-709-83h-41v-208h41v208z m250 0h-41l-63-147-62 147h-42v-208h42v104l43-104h38l44 104v-104h41v208z m167 0h-125v-208h42v83h41v-83h42v208z m167 0h-125v-208h41v83h84v125z" horiz-adv-x="1000" />

<glyph glyph-name="file_format_pop" unicode="&#xe809;" d="M333 267h-41v41h41v-41z m167 41h-42v-125h42v125z m167 209h166l-250 250 1-167c0-46 37-83 83-83z m0-84h166v-416c0-46-37-84-83-84h-500c-46 0-83 38-83 84v666c0 46 37 84 83 84h250v-167c0-92 75-167 167-167z m-292-83h-125v-208h42v83h83v125z m167 0h-125v-208h125v208z m166 0h-125v-208h42v83h83v125z m-41-42h-42v-41h42v41z" horiz-adv-x="1000" />

<glyph glyph-name="file_format_pop3" unicode="&#xe80a;" d="M250 267h-42v41h42v-41z m333 41h-41v-41h41v41z m84 209h166l-250 250 1-167c0-46 37-83 83-83z m-250-209h-42v-125h42v125z m500 125v-375h-84v-41c0-46-37-84-83-84h-500c-46 0-83 38-83 84v41h-84v375h84v250c0 46 37 84 83 84h250v-167c0-92 75-167 167-167h166 84z m-625-83h-125v-208h41v83h84v125z m166 0h-125v-208h125v208z m167 0h-125v-208h42v83h83v125z m167 0h-125v-42h83v-41h-42v-42h42v-42h-83v-41h125v208z" horiz-adv-x="1000" />

<glyph glyph-name="file_format_smtp" unicode="&#xe80b;" d="M792 267h-42v41h42v-41z m125 166v-375h-84v-41c0-46-37-84-83-84h-500c-46 0-83 38-83 84v41h-84v375h84v250c0 46 37 84 83 84h250v-167c0-92 75-167 167-167h166 84z m-667-83h-125v-125h83v-42h-83v-41h125v125h-83v41h83v42z m250 0h-42l-62-147-63 147h-41v-208h41v104l44-104h38l43 104v-104h42v208z m167 0h-125v-42h41v-166h42v166h42v42z m166 0h-125v-208h42v83h83v125z m-166 167h166l-250 250 1-167c0-46 37-83 83-83z" horiz-adv-x="1000" />

<glyph glyph-name="flood" unicode="&#xe80c;" d="M0 850h1000v-1000h-1000v1000z m917-250l-417-208-417 208c0 0 0 83 84 83h666c84 0 84-83 84-83z m-417-292l-417 209v-292c82 0 131-40 160-63 21-18 25-20 49-20s27 2 48 19c29 24 78 64 160 64s131-40 160-64c21-17 24-19 48-19s28 2 49 19c29 24 78 64 160 64v292l-417-209z m310-211c-26-21-48-39-102-39s-75 18-101 39c-24 20-55 45-107 45-52 0-82-25-107-45-25-21-48-39-101-39s-76 18-102 39c-24 20-54 45-107 45v-84c22 0 33-7 55-25 30-25 70-58 154-58s124 33 153 58c23 18 33 25 55 25 22 0 33-7 55-25 29-25 70-58 153-58s125 33 154 58c22 18 33 25 55 25v84c-52 0-83-25-107-45z" horiz-adv-x="1000" />

<glyph glyph-name="folder" unicode="&#xe80d;" d="M917 517v-417c0 0 0-83-84-83h-666c0 0-84 0-84 83l1 500c-1 0-1 83 83 83h250l83-83h333c0 0 84 0 84-83z" horiz-adv-x="1000" />

<glyph glyph-name="footer" unicode="&#xe80e;" d="M750 767h-500c-46 0-83-38-83-84v-583h666v583c0 46-37 84-83 84z m0-584h-500v84h500v-84z m0 167h-500v83h500v-83z m0 167h-500v83h500v-83z m-500-584h500c46 0 83 38 83 84h-666c0-46 37-84 83-84z" horiz-adv-x="1000" />

<glyph glyph-name="hard_disk" unicode="&#xe80f;" d="M750 767h-500c-46 0-83-38-83-84v-666c0-46 37-84 83-84h500c46 0 83 38 83 84v666c0 46-37 84-83 84z m0-334l-42-28c27-39 42-87 42-138 0-138-112-250-250-250-138 0-250 112-250 250 0 138 112 250 250 250 29 0 57-5 83-15v140c0 0 0 41 42 41s83 0 83 0 42 0 42-41 0-209 0-209z m-250-166l31 77c-10 4-20 6-31 6-46 0-83-37-83-83s37-84 83-84c46 0 83 38 83 84 0 17-5 33-13 46l-70-46z m83 235v-27l-52-131c16-6 29-17 39-31l138 92c-30 45-73 79-125 97z" horiz-adv-x="1000" />

<glyph glyph-name="header" unicode="&#xe810;" d="M833 683v-41h-666v41c0 46 37 84 83 84h500c46 0 83-38 83-84z m-666-125v-541c0-46 37-84 83-84h500c46 0 83 38 83 84v541h-666z m583-500h-500v84h500v-84z m0 167h-500v83h500v-83z m0 167h-500v83h500v-83z" horiz-adv-x="1000" />

<glyph glyph-name="imap" unicode="&#xe811;" d="M583 392v-42h42v42h-42z m0 0v-42h42v42h-42z m158 233l-66-50 45-58h-440l45 58-66 50-228-296 228-296 66 51-45 58h440l-45-58 66-51 228 296-228 296z m-491-400h-42v208h42v-208z m250 0h-42v104l-43-104h-38l-44 104v-104h-41v208h41l63-146 62 146h42v-208z m167 0h-42v83h-42v-83h-41v208h125v-208z m83 83v-83h-42v208h125v-125h-83z m0 42h42v42h-42v-42z m-125 42h-42v-42h42v42z" horiz-adv-x="1000" />

<glyph glyph-name="imap_folder" unicode="&#xe812;" d="M833 600h-333l-83 83h-250c-84 0-84-83-83-83 0 0 0-34 0-83 0-142-1-417-1-417 0-83 84-83 84-83h666c84 0 84 83 84 83v417c0 83-84 83-84 83z m-583-417h-42v209h42v-209z m250 0h-42v105l-43-105h-38l-44 105v-105h-41v209h41l63-147 62 147h42v-209z m167 0h-42v84h-42v-84h-41v209h125v-209z m166 84h-83v-84h-42v209h125v-125z m-41 41h-42v42h42v-42z m-167 0h-42v42h42v-42z" horiz-adv-x="1000" />

<glyph glyph-name="imap_server" unicode="&#xe813;" d="M583 267v-42h42v42h-42z m0 0v-42h42v42h-42z m0 0v-42h42v42h-42z m0 0v-42h42v42h-42z m0 0v-42h42v42h-42z m0 0v-42h42v42h-42z m0 0v-42h42v42h-42z m0 0v-42h42v42h-42z m0 0v-42h42v42h-42z m-83 125v250h292v41c0 0 0 84-84 84h-416c-84 0-84-84-84-84s0-139 0-291h-125v-375h125c0-84 84-84 84-84h416c0 0 84 0 84 84h125v375h-417z m-250-292h-42v208h42v-208z m250 0h-42v104l-43-104h-38l-44 104v-104h-41v208h41l63-146 62 146h42v-208z m167 0h-42v83h-42v-83h-41v208h125v-208z m166 83h-83v-83h-42v208h125v-125z m-250 84v-42h42v42h-42z m0 0v-42h42v42h-42z m0 0v-42h42v42h-42z m0 0v-42h42v42h-42z m0 0v-42h42v42h-42z m0 0v-42h42v42h-42z m0 0v-42h42v42h-42z m0 0v-42h42v42h-42z m0 0v-42h42v42h-42z m209 291v-83h-209v83h209z m0-291v-42h-42v42h42z" horiz-adv-x="1000" />

<glyph glyph-name="inbox" unicode="&#xe814;" d="M83 100c0 0 0 83 84 83s125 0 125 0 83 0 83-83h250c0 0 0 83 83 83s125 0 125 0 84 0 84-83v-167h-834v167z m613 304l-196-196-196 196 59 59 95-96v400h84v-400l95 96 59-59z" horiz-adv-x="1000" />

<glyph glyph-name="infected_mail" unicode="&#xe815;" d="M277 480l223 131 224-131-224-140-223 140z m640-5v-417c0-83-84-83-84-83h-666c0 0-84 0-84 83v417c0 16 5 31 13 44 7 11 16 20 27 27l377 221 377-221c11-7 20-16 27-27 8-13 13-28 13-44z m-73 7l-344 201-344-201 79-50 265-165 265 165 79 50z" horiz-adv-x="1000" />

<glyph glyph-name="junk_mail" unicode="&#xe816;" d="M917 350v-250c0 0 0-83-84-83h-500c0 0-83 0-83 83v250l333-208 334 208z m-84 167h-500c-83 0-83-84-83-84l333-208 334 208c0 0 0 84-84 84z m-166 166h-500c-84 0-84-83-84-83l130-81c23 34 61 60 120 60h417v21c0 83-83 83-83 83z m-584-166v-250c0-84 84-84 84-84h21v269l-105 65z" horiz-adv-x="1000" />

<glyph glyph-name="mail" unicode="&#xe817;" d="M917 600l-417-208-417 208c0 0 0 83 84 83h666c84 0 84-83 84-83z m-417-292l-417 209v-417c0-83 84-83 84-83h666c0 0 84 0 84 83v417l-417-209z" horiz-adv-x="1000" />

<glyph glyph-name="mail_account" unicode="&#xe818;" d="M667 433c0 14-2 27-5 40l255 127c0 83-84 83-84 83h-666c-84 0-84-83-84-83l255-127c-3-13-5-26-5-40 0-15 2-30 7-45l-257 129v-417c0-83 84-83 84-83h666c0 0 84 0 84 83v417l-257-129c5 15 7 30 7 45z m-167 125c69 0 125-55 125-125s-56-125-125-125-125 56-125 125 56 125 125 125z m208-406v-52h-416v52c0 69 138 115 208 115s208-46 208-115z m-41 281c0 14-2 27-5 40l255 127c0 83-84 83-84 83h-666c-84 0-84-83-84-83l255-127c-3-13-5-26-5-40 0-15 2-30 7-45l-257 129v-417c0-83 84-83 84-83h666c0 0 84 0 84 83v417l-257-129c5 15 7 30 7 45z m-167 125c69 0 125-55 125-125s-56-125-125-125-125 56-125 125 56 125 125 125z m208-406v-52h-416v52c0 69 138 115 208 115s208-46 208-115z" horiz-adv-x="1000" />

<glyph glyph-name="mail_broadcast" unicode="&#xe819;" d="M875 666v-161c20-10 41-31 41-72v0l-416-206-417 206c1 10 6 53 42 73v160l-54-54-59 59 155 154 154-154-59-59-54 54v-150h250v150l-53-54-60 59 155 154 155-154-60-59-53 54v-150h250v150l-54-54-59 59 154 154 155-154-59-59-54 54z m-375-524l-417 208v-333c0-84 84-84 84-83h666c83 0 83 83 83 83v333l-416-208z" horiz-adv-x="1000" />

<glyph glyph-name="mail_cache" unicode="&#xe81a;" d="M417 350c0 46 37 83 83 83 46 0 83-37 83-83 0-46-37-83-83-83-46 0-83 37-83 83z m321 77l179 90v-417c0-83-84-83-84-83h-666c0 0-84 0-84 83v417l179-90c8 24 19 46 34 67l-213 106c0 0 0 83 84 83h666c0 0 84 0 84-83l-213-106c15-21 26-43 34-67z m-71-77c0 92-75 167-167 167s-167-75-167-167 75-167 167-167 167 75 167 167z" horiz-adv-x="1000" />

<glyph glyph-name="mail_encryption" unicode="&#xe81b;" d="M662 389c-6 26-18 49-34 68l288 143v0c0 83-83 83-83 83h-666c-77 0-83-71-84-83l289-143c-16-19-28-42-34-68l-255 128v-417c0-83 84-83 84-83h666c83 0 84 81 84 83v416l-255-127z m-120-111v-95h-84v95c-25 15-41 41-41 72 0 46 37 83 83 83 46 0 83-37 83-83 0-31-16-57-41-72z" horiz-adv-x="1000" />

<glyph glyph-name="mail_id" unicode="&#xe81c;" d="M500 267c-111 0-333-56-333-167v-83h666v83c0 111-222 167-333 167z m0 416c-92 0-167-74-167-166 0-92 75-167 167-167 29 0 57 8 81 21l-21 37c-18-10-38-16-60-16-69 0-125 56-125 125s56 125 125 125 125-56 125-125c0-36-15-42-30-42-16 0-26 13-26 28v69c0 0-23 28-69 28-46 0-83-37-83-83 0-46 37-84 83-84 24 0 42 8 53 15 12-9 26-15 42-15 38 0 72 26 72 84 0 92-75 166-167 166z m-42-166c0 23 19 41 42 41 11 0 20-3 28-6v-49c0-7 1-14 3-20-8-4-19-8-31-8-23 0-42 19-42 42z" horiz-adv-x="1000" />

<glyph glyph-name="mail_open" unicode="&#xe81d;" d="M877 546l-377 221-377-221c-11-7-40-33-40-71v-417c0-83 84-83 84-83h333 333c0 0 84 0 84 83v417c0 38-29 64-40 71z m-377-279l-344 215 344 201 344-201-344-215z" horiz-adv-x="1000" />

<glyph glyph-name="mail_server" unicode="&#xe81e;" d="M583 558h209v-83h-209v83z m-83 84v-250h292v-375c0-84-84-84-84-84h-416c0 0-84 0-84 84s0 666 0 666 0 84 84 84h416c84 0 84-84 84-84v-41h-292z m208-389l-208-114-208 114v-195c0-41 41-41 41-41h334c41 0 41 41 41 41v195z m-375 55c-15 0-25-6-32-13l199-109 199 109v0c-13 13-32 13-32 13h-334z" horiz-adv-x="1000" />

<glyph glyph-name="mail_trash_can" unicode="&#xe81f;" d="M833 683l-333-208-333 208c0 0 0 84 83 84h500c0 0 83 0 83-84z m-666-291h333l-333 208v-208z m333 0h333v208l-333-208z m-417-84v-375h125v250c0 23 19 42 42 42s42-19 42-42v-250h166v250c0 23 19 42 42 42s42-19 42-42v-250h166v250c0 23 19 42 42 42s42-19 42-42v-250h125v375h-834z" horiz-adv-x="1000" />

<glyph glyph-name="mailbox" unicode="&#xe820;" d="M458 517h-166c0 83 83 83 83 83 83 0 83-83 83-83z m209-42v-542h-584v542c0 0 0 292 292 292s292-292 292-292z m-84 0c0 34-12 208-208 208s-208-174-208-208v-458h416v458z m334 292v-209h-84v-416h-83v625h167z" horiz-adv-x="1000" />

<glyph glyph-name="mailbox2" unicode="&#xe821;" d="M458 517h-166c0 83 83 83 83 83 83 0 83-83 83-83z m209-42v-542h-584v542c0 0 0 292 292 292s292-292 292-292z m-84 0c0 34-12 208-208 208s-208-174-208-208v-458h416v458z m167-83h83v-250h-83v250z" horiz-adv-x="1000" />

<glyph glyph-name="mailing_list" unicode="&#xe822;" d="M917 683l-417-208-417 208c0 0 0 84 84 84h666c84 0 84-84 84-84z m-417-291l-417 208v-333c0-84 84-84 84-84v84h83v-84h-83v-83h666v83h-500v84h500v-84c0 0 84 0 84 84v333l-417-208z m-167-375v-84h500v84h-500z m-166 0v-84h83v84h-83z" horiz-adv-x="1000" />

<glyph glyph-name="message_id" unicode="&#xe823;" d="M917 600l-417-208-417 208c0 0 0 83 84 83h666c84 0 84-83 84-83z m0-83v-417c0 0 0-83-84-83v166h-125v-166h125v-84h-666v84h83v166h-83v-166c0 0-84 0-84 83v417l417-209 417 209z m-459-500v166h-166v-166h166z m125 0v166h-83v-166h83z m84 0v166h-42v-166h42z" horiz-adv-x="1000" />

<glyph glyph-name="new_mail" unicode="&#xe824;" d="M750 517l167 83c0 0 0 83-84 83h-666c-84 0-84-83-84-83l167-83v-84l-167 84v-417c0-83 84-83 84-83h666c84 0 84 83 84 83v417l-167-84v84z m-65-213l-37-74-106 53v-100h-84v100l-106-53-37 74 92 46-92 46 37 74 106-53v100h84v-100l106 53 37-74-92-46 92-46z" horiz-adv-x="1000" />

<glyph glyph-name="newspaper" unicode="&#xe825;" d="M917 600v83h-792c-42 0-42-41-42-41v-667c0-23 19-42 42-42h750c23 0 42 19 42 42v375h-750v83h750v84h-750v83h750z m-375-333h291v-250h-291v250z m-84-84v-83h-291v83h291z" horiz-adv-x="1000" />

<glyph glyph-name="outbox" unicode="&#xe826;" d="M83 100c0 0 0 83 84 83s125 0 125 0 83 0 83-83h250c0 0 0 83 83 83s125 0 125 0 84 0 84-83v-167h-834v167z m613 446l-196 196-196-196 59-59 95 96v-400h84v400l95-96 59 59z" horiz-adv-x="1000" />

<glyph glyph-name="paypal" unicode="&#xe827;" d="M500 183l-417 262v-387c0-83 84-83 84-83h666c0 0 84 0 84 83v387l-417-262z m404 336c-7 11-16 20-27 27l-44 25v-96l11 7 60 37z m-404-252l112 70c9 16 13 35 13 55 0 69-56 125-125 125s-125-56-125-125c0-20 5-39 13-55l112-70z m-333 208v96l-44-25c-11-7-20-16-27-27l60-37 11-7z m333 292l-285-167h570l-285 167z" horiz-adv-x="1000" />

<glyph glyph-name="pop" unicode="&#xe828;" d="M500 267h-42v125h42v-125z m-167 125h-41v-42h41v42z m636-63l-228-296-66 51 45 58h-440l45-58-66-51-228 296 228 296 66-50-45-58h440l-45 58 66 50 228-296z m-594 104h-125v-208h42v83h83v125z m167 0h-125v-208h125v208z m166 0h-125v-208h42v83h83v125z m-41-41h-42v-42h42v42z" horiz-adv-x="1000" />

<glyph glyph-name="pop_folder" unicode="&#xe829;" d="M375 308h-42v42h42v-42z m167 42v-125h-42v125h42z m0 0v-125h-42v125h42z m375 167v-417c0 0 0-83-84-83h-666c0 0-84 0-84 83 0 0 1 275 1 417 0 49 0 83 0 83-1 0-1 83 83 83h250l83-83h333c0 0 84 0 84-83z m-500-125h-125v-209h41v84h84v125z m166 0h-125v-209h125v209z m167 0h-125v-209h42v84h83v125z m-42-84h-41v42h41v-42z m-166-83h-42v125h42v-125z" horiz-adv-x="1000" />

<glyph glyph-name="pop_server" unicode="&#xe82a;" d="M500 392v250h292v41c0 0 0 84-84 84h-416c-84 0-84-84-84-84s0-139 0-291h-83v-375h83c0-84 84-84 84-84h416c0 0 84 0 84 84h125v375h-417z m125-84h125v-125h-83v-83h-42v208z m-42 0v-208h-125v208h125z m-166 0v-125h-84v-83h-41v208h125z m-42-83h-42v42h42v-42z m333 0h-41v42h41v-42z m-166-83h-42v125h42v-125z m41 333v83h209v-83h-209z" horiz-adv-x="1000" />

<glyph glyph-name="pop3" unicode="&#xe82b;" d="M583 350h-41v42h41v-42z m-333 42h-42v-42h42v42z m167 0h-42v-125h42v125z m552-63l-228-296-66 51 45 58h-440l45-58-66-51-228 296 228 296 66-50-45-58h440l-45 58 66 50 228-296z m-677 104h-125v-208h41v83h84v125z m166 0h-125v-208h125v208z m167 0h-125v-208h42v83h83v125z m167-208v208h-125v-41h83v-42h-42v-42h42v-41h-83v-42h125z" horiz-adv-x="1000" />

<glyph glyph-name="pop3_folder" unicode="&#xe82c;" d="M292 308h-42v42h42v-42z m166 42v-125h-41v125h41z m167 0v-42h-42v42h42z m292 167v-417c0 0 0-83-84-83h-666c0 0-84 0-84 83 0 0 1 275 1 417 0 49 0 83 0 83-1 0-1 83 83 83h250l83-83h333c0 0 84 0 84-83z m-584-125h-125v-209h42v84h83v125z m167 0h-125v-209h125v209z m167 0h-125v-209h41v84h84v125z m166 0h-125v-42h84v-42h-42v-41h42v-42h-84v-42h125v209z" horiz-adv-x="1000" />

<glyph glyph-name="pop3_server" unicode="&#xe82d;" d="M250 225h-42v42h42v-42z m167 42h-42v-125h42v125z m166 0v-42h-41v42h41z m0 0v-42h-41v42h41z m0 0v-42h-41v42h41z m0 0v-42h-41v42h41z m0 0v-42h-41v42h41z m334 125v-375h-125c0-84-84-84-84-84h-416c0 0-84 0-84 84h-125v375h125c0 152 0 291 0 291s0 84 84 84h416c84 0 84-84 84-84v-41h-292v-250h417z m-625-84h-125v-208h41v83h84v125z m166 0h-125v-208h125v208z m167 0h-125v-208h42v83h83v125z m167 0h-125v-41h83v-42h-42v-42h42v-41h-83v-42h125v208z m-209 250v-83h209v83h-209z" horiz-adv-x="1000" />

<glyph glyph-name="reply" unicode="&#xe82e;" d="M875 17c-104 146-250 212-458 212v-171l-292 292 292 292v-167c290-42 416-248 458-456 0-1 0-1 0-2z" horiz-adv-x="1000" />

<glyph glyph-name="robot" unicode="&#xe82f;" d="M667 308c-69 0-125-55-125-125s56-125 125-125 125 56 125 125-56 125-125 125z m-334 0c-69 0-125-55-125-125s56-125 125-125 125 56 125 125-55 125-125 125z m584-41h-42c0 0 0 291-333 291v95c25 15 41 41 41 72 0 46-37 83-83 83-46 0-83-37-83-83 0-31 16-57 41-72v-95c-333 0-333-291-333-291h-42c-23 0-41-19-41-42v-125c0-23 18-42 41-42h42v-83c0-83 83-83 83-83h584c0 0 83 0 83 83v83h42c23 0 41 19 41 42v125c0 23-18 42-41 42z m-125-292c-1 0-2 0-2 0h-580c0 0-1 0-2 0v292c0 21 7 208 250 208h84c234 0 249-174 250-208v-292z" horiz-adv-x="1000" />

<glyph glyph-name="rss" unicode="&#xe830;" d="M833 767h-666c-46 0-84-38-84-84v-666c0-46 38-84 84-84h666c46 0 84 38 84 84v666c0 46-38 84-84 84z m-583-750c-46 0-83 37-83 83s37 83 83 83 83-37 83-83-37-83-83-83z m208 0c0 158-133 291-291 291v125c230 0 416-186 416-416h-125z m250 0c0 291-291 541-541 541v125c375 0 666-291 666-666h-125z" horiz-adv-x="1000" />

<glyph glyph-name="server" unicode="&#xe831;" d="M792 683v-41h-292v-584h292v-41c0-84-84-84-84-84h-416c0 0-84 0-84 84s0 666 0 666 0 84 84 84h416c84 0 84-84 84-84z m0-291v-84h-209v84h209z m0-167v-83h-209v83h209z m0 333v-83h-209v83h209z" horiz-adv-x="1000" />

<glyph glyph-name="smtp" unicode="&#xe832;" d="M741 625l-66-50 45-58h-440l45 58-66 50-228-296 228-296 66 51-45 58h440l-45-58 66-51 228 296-228 296z m-449-233h-84v-42h84v-125h-125v42h83v41h-83v125h125v-41z m250-167h-42v104l-43-104h-39l-43 104v-104h-42v208h42l63-146 62 146h42v-208z m166 167h-41v-167h-42v167h-42v41h125v-41z m84-84v-83h-42v208h125v-125h-83z m0 42h41v42h-41v-42z" horiz-adv-x="1000" />

<glyph glyph-name="smtp_folder" unicode="&#xe833;" d="M833 308h-41v42h41v-42z m84 209v-417c0 0 0-83-84-83h-666c0 0-84 0-84 83 0 0 1 275 1 417 0 49 0 83 0 83-1 0-1 83 83 83h250l83-83h333c0 0 84 0 84-83z m-625-125h-125v-125h83v-42h-83v-42h125v125h-84v42h84v42z m250 0h-42l-62-147-63 147h-42v-209h42v105l43-105h39l43 105v-105h42v209z m166 0h-125v-42h42v-167h42v167h41v42z m167 0h-125v-209h42v84h83v125z" horiz-adv-x="1000" />

<glyph glyph-name="smtp_server" unicode="&#xe834;" d="M792 267h41v-42h-41v42z m125 125v-375h-125c0-84-84-84-84-84h-416c0 0-84 0-84 84h-125v375h125c0 152 0 291 0 291s0 84 84 84h416c84 0 84-84 84-84v-41h-292v-250h292 125z m-334-125h42v-167h42v167h41v41h-125v-41z m-83 41l-62-146-63 146h-42v-208h42v104l43-104h39l43 104v-104h42v208h-42z m-292-208h84v125h-84v42h84v41h-84-41v-125h41 42v-41h-42-41v-42h41z m667 208h-83-42v-208h42v83h83v125z m-83 167v83h-209v-83h209z" horiz-adv-x="1000" />

<glyph glyph-name="spam" unicode="&#xe835;" d="M833 641c0 0-583 0-665 0-76 0-84-71-84-83l-1-416c0-84 84-84 84-84 0 1 666 0 666 0 83 0 83 84 83 84v416c0 83-83 83-83 83z m-333-520c-126 0-229 103-229 229s103 229 229 229 229-103 229-229-103-229-229-229z m-70 101c22-11 45-18 70-18 80 0 146 66 146 146 0 25-6 48-18 70l-198-198z m70 274c-80 0-146-66-146-146 0-25 6-48 18-70l198 198c-22 12-45 18-70 18z" horiz-adv-x="1000" />

<glyph glyph-name="tag" unicode="&#xe836;" d="M892 368l-374 376c-15 15-36 23-59 23h-292c-23 0-44-8-59-24l-1 0c-14-15-23-35-24-57v-292c0-23 9-44 25-59l374-376c14-15 35-24 58-24 23 0 44 9 59 24l292 291c16 15 25 36 25 59 0 23-10 44-24 59z m-663 190c-34 0-62 28-62 63s28 62 62 62 63-28 63-62-28-63-63-63z" horiz-adv-x="1000" />

<glyph glyph-name="urgent_mail" unicode="&#xe837;" d="M625 454l292 146c0 0 0 83-84 83h-666c-84 0-84-83-84-83l292-146v-83l-292 146v-417c0-83 84-83 84-83h666c0 0 84 0 84 83v417l-292-146v83z m-83-354h-84v83h84v-83z m0 167h-84v333h84v-333z" horiz-adv-x="1000" />

<glyph glyph-name="virus_alert" unicode="&#xe838;" d="M500 671l292-162v-318l-292-162-292 162v318l292 162m0 96l-375-209v-416l375-209 375 209v416l-375 209 0 0z m-42-500h84v-84h-84v84z m0 250h84v-167h-84v167z" horiz-adv-x="1000" />

<glyph glyph-name="virus_autoupdate" unicode="&#xe839;" d="M83 767v-834h834v834h-834z m750-750h-666v666h233l-55-53c-16-17-16-43 0-60 9-7 19-12 30-12h250v-83h-83c0 23-19 42-42 42 0 0-21 0-83 0-69 0-125-56-125-125v-42c0-46 37-83 83-83h83c0 0 0-97 0-125 0-46 38-84 84-84 46 0 83 38 83 84 0 41 0 41 0 41l83 84c33 32 33 85 0 118-2 2-5 4-8 7h133v-375z" horiz-adv-x="1000" />

<glyph glyph-name="virus_definitions" unicode="&#xe83a;" d="M500 671l292-162v-318l-292-162-292 162v318l292 162m0 96l-375-209v-416l375-209 375 209v416l-375 209 0 0z m-125-375h-83v83h83v-83z m333 83h-250v-83h250v83z m-333-250h-83v83h83v-83z m333 83h-250v-83h250v83z" horiz-adv-x="1000" />

<glyph glyph-name="virus_inspector" unicode="&#xe83b;" d="M751 158c52 64 82 145 82 234 0 207-168 375-375 375s-375-168-375-375 168-375 375-375c89 0 170 31 234 82l195-195 59 59-195 195z m-293-58c-161 0-291 130-291 292s130 291 291 291 292-130 292-291-130-292-292-292z m0 382l91-90-91-91-90 91 90 90m0 118l-208-208 208-209 209 209-209 208 0 0z" horiz-adv-x="1000" />

<glyph glyph-name="voice_mail" unicode="&#xe83c;" d="M917 442v-384c0-83-84-83-84-83h-666c0 0-84 0-84 83v387l417-262 417 259z m-40 104l-377 221-377-221c-11-7-20-16-27-27l104-65c54 111 168 188 300 188s246-77 300-188l104 65c-7 11-16 20-27 27z m-377 12c-102 0-190-61-228-149l71-44c23 64 85 110 157 110s134-46 157-110l71 44c-38 88-126 149-228 149z" horiz-adv-x="1000" />

<glyph glyph-name="web_mail" unicode="&#xe83d;" d="M583 433v-114l-16-11h-25c0 0 0 42-42 42h-83c0 0-18 0-37-8l-109 68c31 68 91 120 164 140-35-34-60-63-60-75 0-42 42-42 42-42h166z m294 113l-377 221-377-221c-11-7-20-16-27-27l104-65c54 111 168 188 300 188s246-77 300-188l104 65c-7 11-16 20-27 27z m-377-363l-417 262v-387c0-83 84-83 84-83h666c0 0 84 0 84 83v384l-417-259z" horiz-adv-x="1000" />
</font>
</defs>
</svg>
