<?xml version="1.0" standalone="no"?>
<!DOCTYPE svg PUBLIC "-//W3C//DTD SVG 1.1//EN" "http://www.w3.org/Graphics/SVG/1.1/DTD/svg11.dtd">
<svg xmlns="http://www.w3.org/2000/svg">
<metadata>iconshock</metadata>
<defs>
<font id="materialblack_communications" horiz-adv-x="1000" >
<font-face font-family="materialblack_communications" font-weight="400" font-stretch="normal" units-per-em="1000" ascent="850" descent="-150" />
<missing-glyph horiz-adv-x="1000" />
<glyph glyph-name="active_rooms" unicode="&#xe800;" d="M875 517h-750c-42 0-42-42-42-42v-292h483l-54 54 59 59 154-154-154-155-59 59 54 54h-483v-125c0-42 42-42 42-42h750c42 0 42 42 42 42v500c0 42-42 42-42 42z m-42-42c23 0 42-19 42-42s-19-41-42-41-41 18-41 41 18 42 41 42z m-125 0c23 0 42-19 42-42s-19-41-42-41-41 18-41 41 18 42 41 42z m-125 0c23 0 42-19 42-42s-19-41-42-41-41 18-41 41 18 42 41 42z m292 292h-750c-42 0-42-42-42-42v-125h834v125c0 42-42 42-42 42z m-292-125c-23 0-41 18-41 41s18 42 41 42 42-19 42-42-19-41-42-41z m125 0c-23 0-41 18-41 41s18 42 41 42 42-19 42-42-19-41-42-41z m125 0c-23 0-41 18-41 41s18 42 41 42 42-19 42-42-19-41-42-41z" horiz-adv-x="1000" />

<glyph glyph-name="address_book" unicode="&#xe801;" d="M250 683h583v-83h-583v83z m333-437c0-11 2-21 5-30-11-6-28-12-46-12-35 0-63 28-63 63s28 62 63 62c16 0 30-4 41-9v-74z m-333 354h583v-583c0-46-37-84-83-84h-500c-46 0-83 38-83 84v666c0 46 37 84 83 84h500c46 0 83-38 83-84h-583v-83z m42-333c0-138 112-250 250-250 43 0 85 11 121 31l-31 55c-27-15-57-24-90-24-104 0-188 84-188 188 0 103 84 187 188 187 103 0 187-84 187-187 0-54-22-63-45-63-24 0-38 19-38 42v104c0 0-35 42-104 42s-125-56-125-125 56-125 125-125c36 0 62 11 80 22 16-14 38-22 62-22 57 0 108 38 108 125 0 138-112 250-250 250-138 0-250-112-250-250z" horiz-adv-x="1000" />

<glyph glyph-name="allow_list2" unicode="&#xe802;" d="M792 725h-174c-18 48-64 83-118 83s-100-35-117-83h-175c-83 0-83-83-83-83v-625c0 0 0-84 83-84h584c83 0 83 84 83 84v625c0 83-83 83-83 83z m-292 0c23 0 42-19 42-42s-19-41-42-41-42 18-42 41 19 42 42 42z m292-708h-584v625h84v-125h416v125h84v-625z m-54 387l-280-279-154 154 59 59 95-96 221 221 59-59z" horiz-adv-x="1000" />

<glyph glyph-name="alphabet_latin" unicode="&#xe803;" d="M625 767h-208l-292-834h208l59 167h258l58-167h209l-292 834z m-190-542l86 244 85-244h-171z" horiz-adv-x="1000" />

<glyph glyph-name="apache_server" unicode="&#xe804;" d="M912 763l0 0c1 0-157-27-324-106v-101l-66 67c-60-34-119-75-169-125l88-89-153 0c-43-88-15-161 10-202l-210-211c-9-8-13-19-13-29 0-11 4-21 13-30 16-16 42-16 58 0l211 211c36-22 98-46 173-22v136l86-87c10 8 21 17 31 28 40 40 74 85 104 132l-74 74h116c90 177 119 353 119 354z" horiz-adv-x="1000" />

<glyph glyph-name="ares" unicode="&#xe805;" d="M500 767c-230 0-417-187-417-417 0-230 187-417 417-417 230 0 417 187 417 417 0 230-187 417-417 417z m63-667h-125v125h125v-125z m80 0l-143 359-143-359h-180l233 583h180l233-583h-180z" horiz-adv-x="1000" />

<glyph glyph-name="ascii" unicode="&#xe806;" d="M208 392v-42h42v42h-42z m0 0v-42h42v42h-42z m0 0v-42h42v42h-42z m750 166v84h-958v-84h83v-458h-83v-83h958v83h-83v458h83z m-666-333h-42v83h-42v-83h-41v208h125v-208z m166 167h-83v-42h83v-125h-125v42h84v41h-84v125h125v-41z m167 0h-83v-125h83v-42h-125v208h125v-41z m83-167h-41v208h41v-208z m84 0h-42v208h42v-208z m-542 167h-42v-42h42v42z m-42 0v-42h42v42h-42z" horiz-adv-x="1000" />

<glyph glyph-name="audio_warning" unicode="&#xe807;" d="M583 850l-251-427c131-33 232-145 249-281h419l-417 708z m42-583h-83v83h83v-83z m-83 166v167h83v-167h-83z m-292-83c-138 0-250-112-250-250s112-250 250-250 250 112 250 250-112 250-250 250z m0-417c-92 0-167 75-167 167s75 167 167 167 167-75 167-167-75-167-167-167z m0 84c-46 0-83 37-83 83s37 83 83 83 83-37 83-83-37-83-83-83z" horiz-adv-x="1000" />

<glyph glyph-name="avatar" unicode="&#xe808;" d="M375 808c-184 0-333-149-333-333 0-133 78-248 191-301-3 16-4 34-4 51 0 17 1 34 4 50-66 61-66 158-66 158h121c41 66 100 119 171 152 2 32 29 57 62 57 20 0 38-10 49-25 18 3 37 4 55 4 18 0 35-1 51-3-53 112-168 190-301 190z m-146-291c-34 0-62 28-62 62s28 63 62 63 63-28 63-63-28-62-63-62z m396 41c-184 0-333-149-333-333s149-333 333-333 333 149 333 333-149 333-333 333z m-125-208c83 0 83-83 83-83h-166c0 0 0 83 83 83z m125-375c-208 0-208 208-208 208h416c0 0 0-208-208-208z m42 292c0 0 0 83 83 83s83-83 83-83h-166z" horiz-adv-x="1000" />

<glyph glyph-name="backgrounds" unicode="&#xe809;" d="M833 558c0 0-416 0-500 0s-83-83-83-83 0-333 0-417 83-83 83-83 417 0 500 0 84 83 84 83 0 334 0 417-84 83-84 83z m-61-370c10-31 20-130 20-130s-99 10-130 20c-52 17-79 61-79 114 0-53-26-97-78-114-32-10-130-20-130-20s10 99 20 130c17 52 60 79 114 79-54 0-97 26-114 78-10 32-20 130-20 130s98-10 130-20c52-17 78-60 78-114 0 54 27 97 79 114 31 10 130 20 130 20s-10-98-20-130c-17-52-61-78-114-78 53 0 97-27 114-79z m-105 537c0 0-417 0-500 0s-84-83-84-83 0-334 0-417 84-83 84-83c0 83 0 416 0 416s0 84 83 84 500 0 500 0c0 83-83 83-83 83z" horiz-adv-x="1000" />

<glyph glyph-name="ball_football" unicode="&#xe80a;" d="M500 496l167-146-84-167h-166l-84 167 167 146z m417-146c0-230-187-417-417-417-230 0-417 187-417 417 0 230 187 417 417 417 230 0 417-187 417-417z m-84-8l-125 50 55 163c-38 47-88 85-145 106l-118-103-118 103c-57-21-107-59-145-106l55-163-125-50c2-83 35-159 88-217l120 17v-101c39-15 81-24 125-24 44 0 86 9 125 24v101l121-17c52 58 85 134 87 217z" horiz-adv-x="1000" />

<glyph glyph-name="beer" unicode="&#xe80b;" d="M792 470c-8 2-15 3-23 4 1 0 1 1 1 1 14 25 23 53 23 83 0 80-55 146-130 163-17 74-83 129-162 129-51 0-96-22-126-58-26 11-53 16-82 16-115 0-209-93-209-208 0-68 33-128 83-166v-459c0-46 37-83 83-83h417c46 0 83 37 83 83 122 0 167 100 167 167v166c0 99-65 147-125 162z m-459-453c0-23-18-42-41-42s-42 19-42 42v379c14-3 28-4 43-4s28 1 40 3v-378z m167 0c0-23-19-42-42-42s-41 19-41 42v407c15 5 28 9 41 9 17 0 30-1 42-4v-412z m167 0c0-23-19-42-42-42s-42 19-42 42v381c12-4 26-6 43-6 14 0 28 1 41 5v-380z m-41 458c-15 0-23 3-41 12-28 13-65 30-127 30-33 0-63-12-89-22-25-10-49-20-76-20-70 0-125 56-125 125s55 125 125 125c17 0 33-3 49-10l57-24 39 47c15 18 38 29 63 29 39 0 72-27 81-65l12-51 51-11c38-9 64-42 64-82 0-45-37-83-83-83z m207-333c0-14-4-84-83-84v334c14 0 83-4 83-84v-166z" horiz-adv-x="1000" />

<glyph glyph-name="bit_torrent" unicode="&#xe80c;" d="M563 267c6 0 13-1 18-2l-30 85c-87-6-155-78-155-167 0-92 74-166 167-166h187c-61-46-134-75-214-82-126 13-223 119-223 248 0 125 90 228 209 247l-28 80c-151-32-265-167-265-327 0-72 24-140 64-194-43 24-82 57-114 95-8 31-12 65-12 99 0 188 131 345 306 386l-29 79c-180-46-319-194-353-379-5 26-8 53-8 81 0 230 187 417 417 417 230 0 417-187 417-417 0-94-32-180-84-250h-270c-46 0-84 38-84 83s38 84 84 84z" horiz-adv-x="1000" />

<glyph glyph-name="black_list" unicode="&#xe80d;" d="M750 767h-500c-46 0-83-38-83-84v-666c0-46 37-84 83-84h500c46 0 83 38 83 84v666c0 46-37 84-83 84z m-417-334h-83v84h83v-84z m0 167h-83v83h83v-83z m322-512l-60-59-95 95-95-95-60 59 96 95-96 96 60 59 95-95 95 95 60-59-96-96 96-95z m95 345h-333v84h333v-84z m0 167h-333v83h333v-83z" horiz-adv-x="1000" />

<glyph glyph-name="block_list" unicode="&#xe80e;" d="M750 767h-500c-46 0-83-38-83-84v-666c0-46 37-84 83-84h500c46 0 83 38 83 84v666c0 46-37 84-83 84z m-500-84h83v-83h-83v83z m0-166h83v-84h-83v84z m250-500c-92 0-167 74-167 166s75 167 167 167 167-75 167-167-75-166-167-166z m250 416h-333v84h333v-84z m0 167h-333v83h333v-83z m-333-458h166v83h-166v-83z" horiz-adv-x="1000" />

<glyph glyph-name="block_list2" unicode="&#xe80f;" d="M792 725h-174c-18 48-64 83-118 83s-100-35-117-83h-175c-83 0-83-83-83-83v-625c0 0 0-84 83-84h584c83 0 83 84 83 84v625c0 83-83 83-83 83z m-250-42c0-23-19-41-42-41s-42 18-42 41 19 42 42 42 42-19 42-42z m250-666h-584v625h84v-125h416v125h84v-625z m-292 458c-115 0-208-93-208-208s93-209 208-209 208 94 208 209-93 208-208 208z m125-250h-250v83h250v-83z" horiz-adv-x="1000" />

<glyph glyph-name="blog" unicode="&#xe810;" d="M833 767h-666c-46 0-84-38-84-84v-500c0-45 38-83 84-83h586l164-167v750c0 46-38 84-84 84z m-500-500v78l79-78h-79z m101 22l-78 78 208 208 78-78-208-208z m269 269l-39-39-78 79 38 37c8 8 21 8 30 0l49-48c7-8 7-22 0-29z" horiz-adv-x="1000" />

<glyph glyph-name="broken_heart" unicode="&#xe811;" d="M536 255l-84-251-12 11c-215 195-357 323-357 481 0 128 101 229 230 229 43 0 86-12 123-34l-112-224 212-212z m152 470c-70 0-136-31-181-80l-81-162 205-205-95-285 24 22c215 195 357 323 357 481 0 128-101 229-229 229z" horiz-adv-x="1000" />

<glyph glyph-name="buzz" unicode="&#xe812;" d="M500 683c-184 0-333-149-333-333s149-333 333-333 333 149 333 333-149 333-333 333z m-208-312c0 34 28 62 62 62s63-28 63-62-28-63-63-63-62 28-62 63z m354-229c-68 0-112 22-155 43-41 21-79 40-137 40-11 0-21 9-21 21s10 21 21 21c68 0 112-23 155-44 41-20 79-40 137-40 12 0 21-9 21-20s-9-21-21-21z m0 166c-35 0-63 28-63 63s28 62 63 62 62-28 62-62-28-63-62-63z m220 366l-59-59c68-68 110-162 110-265 0-103-42-197-110-265l59-59c83 83 134 197 134 324s-51 241-134 324z m-732 0c-83-83-134-197-134-324s51-241 134-324l59 59c-68 68-110 162-110 265 0 103 42 197 110 265l-59 59z" horiz-adv-x="1000" />

<glyph glyph-name="cafe" unicode="&#xe813;" d="M833 642h-666v-417c0-92 74-167 166-167h-250v-83h750v83h-250c92 0 167 75 167 167v42h83c0 0 84 0 84 83v208c0 84-84 84-84 84z m0-292h-83v208h83v-208z" horiz-adv-x="1000" />

<glyph glyph-name="cake" unicode="&#xe814;" d="M958-25v-83h-916v83h83v167c0 46 38 83 83 83h42v125c0 46 38 83 83 83h125v84h84v-84h125c46 0 83-37 83-83v-125h42c46 0 83-37 83-83v-167h83z m-375 667c0-84-83-84-83-84s-83 0-83 84 83 166 83 166 83-83 83-166z" horiz-adv-x="1000" />

<glyph glyph-name="call" unicode="&#xe815;" d="M875 162v-145c0-23-19-42-42-42-391 0-708 317-708 708 0 23 19 42 42 42h146c22 0 41-19 41-42 0-52 9-102 24-148 5-15 1-31-10-43l-92-92v0c60-117 156-213 273-273 0-1 1-1 1-1l92 91c11 12 28 15 43 10 46-15 97-23 148-23 23 0 42-19 42-42z" horiz-adv-x="1000" />

<glyph glyph-name="call_conference" unicode="&#xe816;" d="M875 162v-145c0-23-19-42-42-42-391 0-708 317-708 708 0 23 19 42 42 42h146c22 0 41-19 41-42 0-52 9-102 24-148 5-15 1-31-10-43l-92-92v0c60-117 156-213 273-273 0-1 1-1 1-1l92 91c11 12 28 15 43 10 46-15 97-23 148-23 23 0 42-19 42-42z m-271 480c35 0 63-28 63-63s-28-62-63-62-62 28-62 62 28 63 62 63z m167-125c34 0 62-28 62-63s-28-62-62-62-63 28-63 62 28 63 63 63z m0 208c34 0 62-28 62-62s-28-63-62-63-63 28-63 63 28 62 63 62z" horiz-adv-x="1000" />

<glyph glyph-name="call_incomming" unicode="&#xe817;" d="M875 162v-145c0-23-19-42-42-42-391 0-708 317-708 708 0 23 19 42 42 42h146c22 0 41-19 41-42 0-52 9-102 24-148 5-15 1-31-10-43l-92-92v0c60-117 156-213 273-273 0-1 1-1 1-1l92 91c11 12 28 15 43 10 46-15 97-23 148-23 23 0 42-19 42-42z m-434 438l154-155 60 60-55 53h317v84h-317l55 53-60 60-154-155z" horiz-adv-x="1000" />

<glyph glyph-name="call_missed" unicode="&#xe818;" d="M875 162v-145c0-23-19-42-42-42-391 0-708 317-708 708 0 23 19 42 42 42h146c22 0 41-19 41-42 0-52 9-102 24-148 5-15 1-31-10-43l-92-92v0c60-117 156-213 273-273 0-1 1-1 1-1l92 91c11 12 28 15 43 10 46-15 97-23 148-23 23 0 42-19 42-42z m-12 533l-59 60-96-96-95 96-59-60 95-95-95-95 59-60 95 96 96-96 59 60-95 95 95 95z" horiz-adv-x="1000" />

<glyph glyph-name="call_outgoing" unicode="&#xe819;" d="M875 162v-145c0-23-19-42-42-42-391 0-708 317-708 708 0 23 19 42 42 42h146c22 0 41-19 41-42 0-52 9-102 24-148 5-15 1-31-10-43l-92-92v0c60-117 156-213 273-273 0-1 1-1 1-1l92 91c11 12 28 15 43 10 46-15 97-23 148-23 23 0 42-19 42-42z m-95 593l-60-60 55-53h-317v-84h317l-55-53 60-60 154 155-154 155z" horiz-adv-x="1000" />

<glyph glyph-name="car" unicode="&#xe81a;" d="M788 600c-8 24-31 42-59 42h-458c-28 0-51-18-59-42l-87-250v-333c0-23 19-42 42-42h41c23 0 42 19 42 42v41h500v-41c0-23 19-42 42-42h41c23 0 42 19 42 42v333l-87 250z m-517-417c-35 0-63 28-63 63s28 62 63 62 62-28 62-62-28-63-62-63z m458 0c-34 0-62 28-62 63s28 62 62 62 63-28 63-62-28-63-63-63z m-521 209l56 166h472l56-166h-584z" horiz-adv-x="1000" />

<glyph glyph-name="cat" unicode="&#xe81b;" d="M833 683c-64 0-178-99-227-144-39 13-82 19-127 19-48 0-94-8-136-22-47 43-165 147-231 147s-2-233 28-332c-10-26-15-55-15-84 0-162 159-292 354-292 196 0 354 130 354 292 0 36-7 71-23 103 32 106 85 313 23 313z m-520-458c-35 0-63 28-63 63s28 62 63 62 62-28 62-62-28-63-62-63z m270-167h-41c0 0-38 0-63 26-24-26-62-26-62-26h-42v42h42c21 0 31 10 36 21 5 10 5 21 5 21l-41 41h125l-42-41c0 0 0-11 5-21 5-11 16-21 37-21h41v-42z m63 167c-35 0-63 28-63 63s28 62 63 62 62-28 62-62-28-63-62-63z" horiz-adv-x="1000" />

<glyph glyph-name="cat2" unicode="&#xe81c;" d="M875 683c-65 0-179-99-227-144-40 13-83 19-127 19-48 0-95-8-137-22-46 43-164 147-230 147s-2-233 28-332c-10-26-15-55-15-84 0-162 158-292 354-292 195 0 354 130 354 292 0 36-8 71-23 103 32 106 85 313 23 313z m-625-395c0 34 28 62 63 62s62-28 62-62-28-63-62-63-63 28-63 63z m452-182c-4-5-51-48-181-48s-177 43-181 48c-9 8-9 22 0 29 8 9 20 9 29 1 1-1 36-31 131-36v42l-42 41c0 0 0 42 63 42s62-42 62-42l-41-41v-42c96 5 131 35 131 36 8 8 22 7 30-1 7-8 7-21-1-29z m27 119c-34 0-62 28-62 63s28 62 62 62 63-28 63-62-28-63-63-63z" horiz-adv-x="1000" />

<glyph glyph-name="champagne" unicode="&#xe81d;" d="M583 17h-41v172c49 12 125 49 125 161 0 90-25 205-47 292-19 73-37 125-37 125h-166c0 0-18-52-37-125-22-87-47-202-47-292 0-112 76-149 125-161v-172h-41c-23 0-42-19-42-42s19-42 42-42h166c23 0 42 19 42 42s-19 42-42 42z m0 416c23 0 42-18 42-41s-19-42-42-42-41 19-41 42 18 41 41 41z m-145-166c-35 0-63 28-63 62s28 63 63 63 62-28 62-63-28-62-62-62z m20 208c-23 0-41 19-41 42s18 41 41 41 42-18 42-41-19-42-42-42z" horiz-adv-x="1000" />

<glyph glyph-name="channel_list" unicode="&#xe81e;" d="M875 642h-250c-23 0-42-19-42-42v-500c0-23 19-42 42-42h250c23 0 42 19 42 42v500c0 23-19 42-42 42z m-125-250c-46 0-83 37-83 83s37 83 83 83 83-37 83-83-37-83-83-83z m-500-250v-84h250v84h-250z m-167 0v-84h84v84h-84z m167 166v-83h250v83h-250z m-167 0v-83h84v83h-84z m167 167v-83h250v83h-250z m-167 0v-83h84v83h-84z m167 167v-84h250v84h-250z m-167 0v-84h84v84h-84z" horiz-adv-x="1000" />

<glyph glyph-name="character_encoding" unicode="&#xe81f;" d="M458 433l28-83h-56l28 83z m375 167v-500h84v-83h-834v83h84v500h-84v83h834v-83h-84z m-208-417l-125 334h-83l-125-334h83l28 84h111l28-84h83z m83 209h-83v-84h83v84z" horiz-adv-x="1000" />

<glyph glyph-name="chat_emoticon" unicode="&#xe820;" d="M521 767c-219 0-396-159-396-354 0-135 84-253 208-312v-168l129 129c19-2 39-4 59-4 219 0 396 159 396 355 0 195-177 354-396 354z m-83-542c-35 0-63 28-63 63s28 62 63 62 62-28 62-62-28-63-62-63z m0 250c-35 0-63 28-63 63s28 62 63 62 62-28 62-62-28-63-62-63z m145-250c-23 0-41 19-41 42s18 41 41 41c20 1 84 10 84 105 0 101-75 104-84 104-23 0-41 18-41 41s18 42 41 42c47 0 167-34 167-187 0-154-120-188-167-188z" horiz-adv-x="1000" />

<glyph glyph-name="check_for_virus" unicode="&#xe821;" d="M751 158c52 64 82 145 82 234 0 207-168 375-375 375s-375-168-375-375 168-375 375-375c89 0 170 31 234 82l195-195 59 59-195 195z m-293-58c-161 0-291 130-291 292s130 291 291 291 292-130 292-291-130-292-292-292z m0 500l-208-208 208-209 209 209-209 208z m-90-208l90 90 91-90-91-91-90 91z" horiz-adv-x="1000" />

<glyph glyph-name="clock" unicode="&#xe822;" d="M500 767c-230 0-417-187-417-417 0-230 187-417 417-417 230 0 417 187 417 417 0 230-187 417-417 417z m0-750c-184 0-333 149-333 333s149 333 333 333c184 0 333-149 333-333s-149-333-333-333z m42 375v208h-84v-292h167v84h-83z" horiz-adv-x="1000" />

<glyph glyph-name="clouds" unicode="&#xe823;" d="M875 90c0-87-70-157-156-157h-406c-104 0-188 85-188 188 0 4 0 8 0 12 6 91 77 165 167 174 39 75 118 126 208 126 114 0 208-80 230-188 72-5 131-59 143-129 1-8 2-17 2-26z m-69 425c-28 144-154 252-306 252-120 0-225-69-277-169-125-13-223-119-223-248 0-67 26-127 69-172 20 91 91 163 184 186 55 82 147 132 247 132 126 0 238-81 279-197 72-21 129-76 149-148 45 39 72 95 72 157 0 110-85 200-194 207z" horiz-adv-x="1000" />

<glyph glyph-name="cocktail" unicode="&#xe824;" d="M667 808c-115 0-209-93-209-208h-333v-83l250-250v-292h-83v-83h250v83h-84v292l138 138c22-8 46-13 71-13 115 0 208 93 208 208s-93 208-208 208z m0-333l41 42v83h-166c0 69 56 125 125 125s125-56 125-125-56-125-125-125z" horiz-adv-x="1000" />

<glyph glyph-name="coffee" unicode="&#xe825;" d="M250 475c-23 0-42 19-42 42 0 85 47 116 81 139 30 19 44 29 44 69 0 23 19 42 42 42s42-19 42-42c0-85-47-116-81-139-30-19-44-29-44-69 0-23-19-42-42-42z m208-42c0 41 15 50 44 70 35 23 81 54 81 139 0 23-18 41-41 41-23 0-42-18-42-41 0-40-15-50-44-70-34-23-81-54-81-139 0-23 19-41 42-41s41 18 41 41z m250 84c0 40 15 50 44 69 35 23 81 54 81 139 0 23-18 42-41 42s-42-19-42-42c0-40-15-50-44-69-34-23-81-54-81-139 0-23 19-42 42-42s41 19 41 42z m84-167h-625c-23 0-42-19-42-42 0-125 70-235 173-291h-6c-23 0-42-19-42-42s19-42 42-42h333c23 0 42 19 42 42s-19 42-42 42h167c91 0 125 74 125 125v83c0 92-75 125-125 125z m-3-83h2c19-1 42-8 42-42v-83c0-19-8-42-41-42h-73c0 0 61 74 70 167z" horiz-adv-x="1000" />

<glyph glyph-name="color2" unicode="&#xe826;" d="M500 600c-253 0-458-205-458-458h83c0 206 168 375 375 375s375-169 375-375h83c0 253-205 458-458 458z m0-167c-161 0-292-130-292-291h84c0 115 93 208 208 208s208-93 208-208h84c0 161-131 291-292 291z" horiz-adv-x="1000" />

<glyph glyph-name="contact" unicode="&#xe827;" d="M750 683h-667c-83 0-83-83-83-83s0-417 0-500 83-83 83-83h667l250 333-250 333z m-417-83c70 0 125-56 125-125s-55-125-125-125-125 56-125 125 56 125 125 125z m250-500h-500v83c0 84 167 125 250 125s250-41 250-125v-83z m125 0v500l188-250-188-250z" horiz-adv-x="1000" />

<glyph glyph-name="contacts" unicode="&#xe828;" d="M917 475v125h-667v83h583c0 46-37 84-83 84h-500c-46 0-83-38-83-84v-666c0-46 37-84 83-84h500c46 0 83 38 83 84v41h84v125h-84v84h84v125h-84v83h84z m-375 42c69 0 125-56 125-125s-56-125-125-125-125 56-125 125 56 125 125 125z m208-459h-417v52c0 70 139 115 209 115s208-45 208-115v-52z" horiz-adv-x="1000" />

<glyph glyph-name="contacts_filter" unicode="&#xe829;" d="M500 808c-69 0-125-55-125-125s56-125 125-125 125 56 125 125-56 125-125 125z m0-312c-83 0-250-42-250-125v-21h500v21c0 83-167 125-250 125z m-333-229v-84l291-166v-125h84v125l291 166v84h-666z" horiz-adv-x="1000" />

<glyph glyph-name="conversation" unicode="&#xe82a;" d="M313 288c0-22 2-43 6-63h-6c-36 0-70 5-103 15l-168-98 49 163c-56 49-91 116-91 191 0 149 140 271 313 271 125 0 232-64 282-156-162-37-282-168-282-323z m687 0c0 149-140 270-312 270-173 0-313-121-313-270s140-271 313-271c35 0 70 5 102 15l168-99-49 164c56 49 91 116 91 191z" horiz-adv-x="1000" />

<glyph glyph-name="dog" unicode="&#xe82b;" d="M708 725c-125 0-125-95-125-95-26 8-54 12-83 12s-57-4-83-12c0 0 0 95-125 95s-209-42-209-333c0 0 0-84 84-84 18 0 32 4 43 10 5-48 22-93 48-132-5-13-8-28-8-44 0-69 56-125 125-125 3 0 5 0 8 0 16-49 62-84 117-84 55 0 101 35 118 84 2 0 5 0 7 0 69 0 125 56 125 125 0 16-3 31-8 44 26 39 43 84 48 132 11-6 25-10 43-10 84 0 84 84 84 84 0 291-84 333-209 333z m-83-417c-23 0-42 19-42 42s19 42 42 42 42-19 42-42-19-42-42-42z m-292 42c0 23 19 42 42 42s42-19 42-42-19-42-42-42-42 19-42 42z m84-125c0 0 0 42 83 42s83-42 83-42l-83-42-83 42z m-246 167c-1 0-2 0-4 0 0 0 0 1 0 2 0 248 55 248 125 248 17 0 38-3 41-14l-7-65c-40-42-59-87-68-121l-87-50z m329-375c-20 0-34 13-39 27l-2 6c4 4 8 6 11 10 18 22 30 50 30 82 0-32 12-60 30-82 4-4 7-6 11-10l-2-6c-5-14-19-27-39-27z m333 375c-2 0-3 0-4 0l-87 51c-9 33-28 78-68 120l-7 65c3 11 24 14 41 14 70 0 125 0 125-248 0-1 0-2 0-2z" horiz-adv-x="1000" />

<glyph glyph-name="ecard" unicode="&#xe82c;" d="M833 683c-83 0-666 0-666 0s-84 0-84-83 0-500 0-500 0-83 84-83 666 0 666 0 84 0 84 83 0 500 0 500 0 83-84 83z m-458-541h-208v83h208v-83z m-104 208c-58 0-104 47-104 104s46 104 104 104 104-46 104-104-47-104-104-104z m271-208h-84v416h84v-416z m291 0h-208v83h208v-83z m0 166h-208v84h208v-84z m0 167h-208v83h208v-83z" horiz-adv-x="1000" />

<glyph glyph-name="emoji" unicode="&#xe82d;" d="M479 767c-218 0-396-177-396-396 0-219 178-396 396-396s396 177 396 396c0 219-177 396-396 396z m-229-334c0 46 28 84 63 84s62-38 62-84-28-83-62-83-63 37-63 83z m415-196c-2-4-49-95-186-95-136 0-183 91-185 95-5 10-1 22 9 28 11 5 23 0 28-10 2-3 39-72 148-72 110 0 147 69 148 72 6 11 18 15 28 9 11-5 15-17 10-27z m-19 113c-35 0-63 37-63 83s28 84 63 84 62-38 62-84-28-83-62-83z" horiz-adv-x="1000" />

<glyph glyph-name="emoji_angry" unicode="&#xe82e;" d="M479 767c-218 0-396-177-396-396 0-219 178-396 396-396s396 177 396 396c0 219-177 396-396 396z m-229-375c0 31 13 57 32 72l-23 15c-9 6-12 19-5 28s19 13 28 6l125-83c10-6 13-19 6-29-4-6-10-9-17-9-4 0-8 1-12 3l-10 7c1-3 1-7 1-10 0-46-28-84-62-84s-63 38-63 84z m396-209h-333c-12 0-21 10-21 21s9 21 21 21h333c11 0 21-9 21-21s-10-21-21-21z m0 125c-35 0-63 38-63 84 0 3 1 7 1 10l-10-7c-3-2-7-3-11-3-7 0-14 3-18 9-6 10-4 23 6 29l125 83c10 7 22 4 29-6 6-9 4-22-6-28l-22-15c19-15 31-41 31-72 0-46-28-84-62-84z" horiz-adv-x="1000" />

<glyph glyph-name="emoji_blush" unicode="&#xe82f;" d="M479 767c-219 0-396-177-396-396s177-396 396-396 396 177 396 396-177 396-396 396z m-291-542c-35 0-63 28-63 63s28 62 63 62 62-28 62-62-28-63-62-63z m65 167h-43c8 36 34 83 103 83s95-47 102-83h-43c-6 18-20 41-59 41s-54-23-60-41z m412-155c-2-4-50-95-186-95-136 0-183 91-185 95-5 10-1 22 9 28 10 5 23 0 28-10 2-3 39-72 148-72 110 0 147 70 148 72 6 10 18 15 29 9 9-5 14-17 9-27z m-19 196c-39 0-54-23-60-41h-42c7 36 34 83 102 83s95-47 102-83h-43c-5 18-20 41-59 41z m125-208c-35 0-63 28-63 63s28 62 63 62 62-28 62-62-28-63-62-63z" horiz-adv-x="1000" />

<glyph glyph-name="emoji_confused" unicode="&#xe830;" d="M479 767c-218 0-396-177-396-396 0-219 178-396 396-396s396 177 396 396c0 219-177 396-396 396z m-229-375c0 46 28 83 63 83s62-37 62-83-28-84-62-84-63 38-63 84z m411-161c-5-5-52-48-182-48-112 0-152-35-152-35-4-4-9-6-14-6-6 0-11 2-15 6-8 8-8 21 0 29 5 5 51 48 181 48 113 0 152 36 152 36 9 8 22 7 30-1 8-8 8-21 0-29z m-15 119c-35 0-63 37-63 83s28 84 63 84 62-38 62-84-28-83-62-83z" horiz-adv-x="1000" />

<glyph glyph-name="emoji_grin" unicode="&#xe831;" d="M479 767c-218 0-396-177-396-396 0-219 178-396 396-396 219 0 396 177 396 396 0 219-177 396-396 396z m-166-250c34 0 62-38 62-84s-28-83-62-83-63 37-63 83 28 84 63 84z m166-417c-229 0-229 208-229 208h458c0 0 0-208-229-208z m167 250c-35 0-63 37-63 83s28 84 63 84 62-38 62-84-28-83-62-83z" horiz-adv-x="1000" />

<glyph glyph-name="emoji_in_love" unicode="&#xe832;" d="M479 767c-219 0-396-177-396-396s177-396 396-396 396 177 396 396-177 396-396 396z m-271-308c0 33 25 58 58 58 18 0 35-9 47-22 11 13 28 22 46 22 33 0 58-25 58-58 0-39-36-71-89-120l-15-14-15 14c-54 49-90 81-90 120z m457-222c-2-4-50-95-186-95-136 0-183 91-185 95-5 10-1 22 9 28 10 5 23 0 28-10 2-3 39-72 148-72 110 0 147 70 148 72 6 10 18 15 29 9 9-5 14-17 9-27z m-4 102l-15-14-15 14c-54 49-89 81-89 120 0 33 25 58 57 58 18 0 36-9 47-22 11 13 29 22 47 22 32 0 57-25 57-58 0-39-35-71-89-120z" horiz-adv-x="1000" />

<glyph glyph-name="emoji_sad" unicode="&#xe833;" d="M479 767c-218 0-396-177-396-396 0-219 178-396 396-396s396 177 396 396c0 219-177 396-396 396z m-229-417c0 46 28 83 63 83s62-37 62-83c0-46-28-83-62-83s-63 37-63 83z m369-202c-4-4-9-6-15-6s-10 2-15 6c-1 1-37 35-110 35-73 0-109-34-110-35-8-8-22-8-30 0-8 8-8 21 0 29 2 2 49 48 140 48 91 0 138-46 140-48 8-8 8-21 0-29z m27 119c-35 0-63 37-63 83 0 46 28 83 63 83s62-37 62-83c0-46-28-83-62-83z" horiz-adv-x="1000" />

<glyph glyph-name="emoji_sleeping" unicode="&#xe834;" d="M479 767c-219 0-396-177-396-396s177-396 396-396 396 177 396 396-177 396-396 396z m-146-417c-83 0-83 83-83 83h42c0 0 0-41 41-41s42 41 42 41h42c0 0 0-83-84-83z m146-250c-34 0-62 38-62 83s28 84 62 84 63-38 63-84-28-83-63-83z m146 250c-83 0-83 83-83 83h41c0 0 0-41 42-41s42 41 42 41h41c0 0 0-83-83-83z" horiz-adv-x="1000" />

<glyph glyph-name="emoji_waiting" unicode="&#xe835;" d="M479 767c-218 0-396-177-396-396 0-219 178-396 396-396s396 177 396 396c0 219-177 396-396 396z m-229-375h125c0-46-28-84-62-84s-63 38-63 84z m354-292h-250c-11 0-21 9-21 21s10 21 21 21h250c12 0 21-10 21-21s-9-21-21-21z m42 208c-35 0-63 38-63 84h125c0-46-28-84-62-84z m59 167c-5 18-20 42-59 42s-54-24-60-42h-42c7 36 34 83 102 83s95-47 102-83h-43z" horiz-adv-x="1000" />

<glyph glyph-name="emoji_winking" unicode="&#xe836;" d="M479 767c-218 0-396-177-396-396 0-219 178-396 396-396s396 177 396 396c0 219-177 396-396 396z m-226-375h-43c8 36 34 83 103 83s95-47 102-83h-43c-6 18-20 41-59 41s-54-23-60-41z m412-155c-2-4-49-95-186-95-136 0-183 91-185 95-5 10-1 22 9 28 11 5 23 0 28-10 2-3 39-72 148-72 110 0 147 69 148 72 6 11 18 15 28 9 11-5 15-17 10-27z m-19 113c-35 0-63 37-63 83s28 84 63 84 62-38 62-84-28-83-62-83z" horiz-adv-x="1000" />

<glyph glyph-name="events" unicode="&#xe837;" d="M833 683c0 0-583 0-666 0s-84-83-84-83 0-417 0-500 84-83 84-83 583 0 666 0 84 83 84 83 0 417 0 500-84 83-84 83z m-541-541h-84v83h84v-83z m0 166h-84v84h84v-84z m0 167h-84v83h84v-83z m500-333h-417v83h417v-83z m0 166h-417v84h417v-84z m0 167h-417v83h417v-83z" horiz-adv-x="1000" />

<glyph glyph-name="external_contact" unicode="&#xe838;" d="M750 683h-667c-83 0-83-83-83-83h83v-500h-83c0-83 83-83 83-83h667l250 333-250 333z m-333-83c69 0 125-56 125-125s-56-125-125-125-125 56-125 125 56 125 125 125z m208-500h-417v83c0 84 125 125 209 125s208-41 208-125v-83z m83 0v500l188-250-188-250z" horiz-adv-x="1000" />

<glyph glyph-name="facebook" unicode="&#xe839;" d="M542 558v-83h166l-41-167h-125v-375h-167v375h-83v167h83v83c0 209 167 209 167 209h166v-167c0 0-83 0-125 0s-41-42-41-42z" horiz-adv-x="1000" />

<glyph glyph-name="firewall" unicode="&#xe83a;" d="M500 808l-375-166v-250c0-232 160-448 375-500 215 52 375 268 375 500v250l-375 166z m-292-220l292 129 292-129v-138c-135 135-250 106-250 106s208-292 41-375c-32-16-59-20-83-15-98 19-125 182-125 182-61-31-107-66-141-102 0 0 0 0 0 0-16 46-26 95-26 146v196z" horiz-adv-x="1000" />

<glyph glyph-name="flower" unicode="&#xe83b;" d="M542 127v142c213 17 250 169 250 248 0 56-12 113-32 165-47-6-90-22-128-47-25 48-69 94-132 132-63-38-107-84-132-132-38 25-81 41-128 47-20-52-32-109-32-165 0-79 37-231 250-248v-141c-47 60-137 139-291 139 0-2 1-334 333-334 333 0 333 332 333 334-154 0-245-79-291-140z" horiz-adv-x="1000" />

<glyph glyph-name="font_color" unicode="&#xe83c;" d="M0 17h1000v-167h-1000v167z m458 708l-229-583h94l47 125h260l47-125h93l-228 583h-84z m-57-375l99 264 99-264h-198z" horiz-adv-x="1000" />

<glyph glyph-name="forum" unicode="&#xe83d;" d="M875 600h-83v-375h-542v-83c0-23 19-42 42-42h458l167-167v625c0 23-19 42-42 42z m-167-250v375c0 23-18 42-41 42h-542c-23 0-42-19-42-42v-583l167 166h417c23 0 41 19 41 42z" horiz-adv-x="1000" />

<glyph glyph-name="free_hands_set" unicode="&#xe83e;" d="M646 808c-123 0-354-74-354-354v-65l0 0c-139-97-292-230-240-321 19-32 54-45 99-45 158 0 433 159 490 192 72 42 30 114 30 114l-83 144c0 0-25 44-70 44-13 0-28-4-44-13-11-7-31-18-57-34 10 205 206 213 229 213 19 0 187-6 187-229 0-256-183-408-185-409l79-98c9 8 231 189 231 507 0 280-204 354-312 354z m-130-377c0 0 0-1 1-1l81-141c0-1 1-1 1-2-195-113-363-180-448-180-15 0-23 2-26 3 3 29 76 140 391 321z" horiz-adv-x="1000" />

<glyph glyph-name="games_control" unicode="&#xe83f;" d="M500 288l125-125v-230h-250v230l125 125z m125 250v229h-250v-229l125-125 125 125z m63-63l-125-125 125-125h229v250h-229z m-375 0h-230v-250h230l125 125-125 125z" horiz-adv-x="1000" />

<glyph glyph-name="gift" unicode="&#xe840;" d="M833 600h-90c5 13 7 27 7 42 0 69-56 125-125 125s-125-56-125-125c0 69-56 125-125 125s-125-56-125-125c0-15 3-29 8-42h-91c-46 0-84-37-84-83v-459c0-45 38-83 84-83h666c46 0 84 38 84 83v459c0 46-38 83-84 83z m0-83v-209h-291v173l92-115 65 52-79 99h213z m-208 166c23 0 42-18 42-41s-19-42-42-42-42 19-42 42 19 41 42 41z m-292-41c0 23 19 41 42 41s42-18 42-41-19-42-42-42-42 19-42 42z m47-125l-79-99 65-52 92 115v-173h-291v209h213z m-213-292h291v-167h-291v167z m375-167v167h291v-167h-291z" horiz-adv-x="1000" />

<glyph glyph-name="google_talk" unicode="&#xe841;" d="M917 392c0-207-187-375-417-375-50 0-98 8-143 23h0l-149-107v191c-77 68-125 163-125 268 0 207 187 375 417 375 230 0 417-168 417-375z" horiz-adv-x="1000" />

<glyph glyph-name="group2" unicode="&#xe842;" d="M625 767c-69 0-125-56-125-125s56-125 125-125 125 56 125 125-56 125-125 125z m42-542c69 0 124 56 124 125s-55 125-124 125-125-56-125-125 56-125 125-125z m0-83c-84 0-250-42-250-125v-84h500v84c0 83-167 125-250 125z m-334 125c-83 0-250-42-250-125v-84h257c21 73 100 120 201 150-55 39-151 59-208 59z m0 333c-69 0-125-56-125-125s56-125 125-125 125 56 125 125-55 125-125 125z" horiz-adv-x="1000" />

<glyph glyph-name="hamburger" unicode="&#xe843;" d="M917 267c0 46-38 83-84 83h-708c-46 0-83-37-83-83l0 0c0-46 37-84 83-84h708c46 0 84 38 84 84l0 0z m-459 375c0 0-375 0-375-209 0 0 0-41 42-41s708 0 708 0 42 0 42 41 0 209-417 209z m-208-209c-23 0-42 19-42 42s19 42 42 42 42-19 42-42-19-42-42-42z m167 84c-23 0-42 18-42 41s19 42 42 42 41-19 41-42-18-41-41-41z m166-42c-23 0-41 19-41 42s18 41 41 41 42-18 42-41-19-42-42-42z m167-42c-23 0-42 19-42 42s19 42 42 42 42-19 42-42-19-42-42-42z m83-291c-41 0-708 0-708 0s-42 0-42-42 0-83 84-83 625 0 625 0 83 0 83 83c0 0 0 42-42 42z" horiz-adv-x="1000" />

<glyph glyph-name="hand_thumbsdown" unicode="&#xe844;" d="M708 642v-417c0-23-9-44-24-59l-274-274-45 43c-11 12-18 27-18 45l41 203h-263c-83 0-83 84-83 84v83c0 11 2 21 6 30l125 294c13 30 42 51 77 51h375c46 0 83-37 83-83z m84 83h166v-500h-166v500z" horiz-adv-x="1000" />

<glyph glyph-name="hand_thumbsup" unicode="&#xe845;" d="M292 58v417c0 23 9 44 24 59l274 274 45-43c11-12 18-27 18-44l-41-204h263c83 0 83-84 83-84v-83c0-11-2-21-5-30l-126-294c-13-30-42-51-77-51h-375c-46 0-83 38-83 83z m-84-83h-166v500h166v-500z" horiz-adv-x="1000" />

<glyph glyph-name="heart" unicode="&#xe846;" d="M917 496c0-158-142-286-357-481l-60-55-60 55c-215 195-357 323-357 481 0 128 101 229 230 229 72 0 142-34 187-87 45 53 115 87 188 87 128 0 229-101 229-229z" horiz-adv-x="1000" />

<glyph glyph-name="high_connection" unicode="&#xe847;" d="M958 558l-458-583-458 583c208 167 416 167 458 167s250 0 458-167z" horiz-adv-x="1000" />

<glyph glyph-name="hotdog" unicode="&#xe848;" d="M583 683c0 46-37 84-83 84-46 0-83-38-83-84-58 0-167-26-167-125v-416c0-44 35-125 167-125 0-46 37-84 83-84 46 0 83 38 83 84 132 0 167 81 167 125v416c0 99-109 125-167 125z m-250-541v416c0 40 83 42 84 42v-500c-77 0-83 36-84 42z m250-42v500c2 0 84-2 84-42l0-415c-1-7-7-43-84-43z" horiz-adv-x="1000" />

<glyph glyph-name="hourglass" unicode="&#xe849;" d="M568 350c182-132 182-333 182-333h42v-84h-584v84h42c0 0 0 88 53 186 27 50 68 102 129 147-181 132-182 333-182 333h-42v84h584v-84h-42c0 0 0-201-182-333z" horiz-adv-x="1000" />

<glyph glyph-name="hug" unicode="&#xe84a;" d="M750 475c0-92-75-167-167-167-62 0-116 35-145 85-13 25-21 52-21 82 0 85 63 155 145 165 7 1 14 2 21 2 92 0 167-75 167-167z m-489-375h177c34 0 62-28 62-62s-28-63-62-63h-271c0 0-84 0-84 83v84c0 111 222 166 334 166 87 0 243-34 306-103-51 13-101 20-140 20-96 0-275-42-322-125z m114 375c0-28 6-56 17-81-81 12-142 81-142 164 0 92 75 167 167 167 46 0 86-18 116-48-91-22-158-105-158-202z m542-458v-42h-271c-35 0-63 28-63 63s28 62 63 62h187c0 0 84 0 84-83z" horiz-adv-x="1000" />

<glyph glyph-name="icq" unicode="&#xe84b;" d="M500 475c-69 0-125-56-125-125s56-125 125-125 125 56 125 125-56 125-125 125z m0 0c-69 0-125-56-125-125s56-125 125-125 125 56 125 125-56 125-125 125z m0 0c-69 0-125-56-125-125s56-125 125-125 125 56 125 125-56 125-125 125z m0 0c-69 0-125-56-125-125s56-125 125-125 125 56 125 125-56 125-125 125z m333 0c-5 0-9 0-14 0 2 3 5 6 6 10 32 57-41 130-41 130s-89 88-148 30c-6-6-11-12-16-19 3 19 5 38 5 57 0 84-125 84-125 84s-125 0-125-84c0-14 1-29 3-43 0 1-1 2-2 3-5 7-10 14-16 21-6 8-12 15-20 22-58 59-147-29-147-29s-88-89-29-147c7-7 14-14 22-20 7-6 14-11 21-16 1-1 2-2 3-2-14 2-29 3-43 3-84 0-84-125-84-125s0-125 84-125c3 0 8 0 11 0-8-7-17-14-25-22-59-59 30-148 30-148s88-88 147-29c23 22 41 49 56 76-6-27-11-57-11-85 0-84 125-84 125-84s125 0 125 84c0 19-2 38-5 57 1-2 3-4 5-6 60-59 148 29 148 29s72 72 43 129c6-1 12-1 17-1 84 0 84 125 84 125s0 125-84 125z m-625 79c-4 4 0 15 5 23 9 19 25 36 25 36 15 14 41 31 55 31 9-7 14-13 18-19 6-6 10-12 14-18l2-3c7-10 14-21 19-31-27-18-51-42-69-69-10 6-21 12-32 19l-2 2c-6 4-12 8-17 13-7 5-13 10-18 16z m124-421c-14-25-29-46-46-63l-4-2c-14 0-42 19-55 32-17 17-37 51-30 59 6 6 13 12 21 18 16 13 33 24 50 33 17-28 40-53 66-74-1-1-1-2-2-3z m232 19c-20-7-41-10-64-10-30 0-59 6-85 18-56 25-98 74-115 133-5 18-8 37-8 57 0 25 4 50 13 72 20 57 66 103 123 123 22 9 47 13 72 13 34 0 66-8 94-22 55-28 96-80 110-142 3-14 4-29 4-44 0-34-7-66-22-94-25-49-69-87-122-104z m164-11c-14-14-41-31-55-31-1 0-1 0-3 2l-5 5-10 11c21 15 41 33 57 54 13-4 26-8 39-10-5-11-13-22-23-31z m7 343c-17 30-39 56-67 78 4 12 7 24 10 36 1 0 2 2 2 2 3 2 3 2 4 2 14 0 41-17 56-32 20-20 34-50 30-56-10-10-22-20-35-30z m-235-9c-69 0-125-56-125-125s56-125 125-125 125 56 125 125-56 125-125 125z m0 0c-69 0-125-56-125-125s56-125 125-125 125 56 125 125-56 125-125 125z m0 0c-69 0-125-56-125-125s56-125 125-125 125 56 125 125-56 125-125 125z m0 0c-69 0-125-56-125-125s56-125 125-125 125 56 125 125-56 125-125 125z m0 0c-69 0-125-56-125-125s56-125 125-125 125 56 125 125-56 125-125 125z" horiz-adv-x="1000" />

<glyph glyph-name="ignore_list" unicode="&#xe84c;" d="M792 725h-174c-18 48-64 83-118 83s-100-35-117-83h-175c-83 0-83-83-83-83v-625c0 0 0-84 83-84h584c83 0 83 84 83 84v625c0 83-83 83-83 83z m-292 0c23 0 42-19 42-42s-19-41-42-41-42 18-42 41 19 42 42 42z m292-708h-584v625h84v-125h416v125h84v-625z m-233 250l96-96-60-59-95 96-95-96-60 59 96 96-96 95 60 59 95-95 95 95 60-59-96-95z" horiz-adv-x="1000" />

<glyph glyph-name="ignore_list2" unicode="&#xe84d;" d="M792 725h-174c-18 48-64 83-118 83s-100-35-117-83h-175c-83 0-83-83-83-83v-625c0 0 0-84 83-84h584c83 0 83 84 83 84v625c0 83-83 83-83 83z m-292 0c23 0 42-19 42-42s-19-41-42-41-42 18-42 41 19 42 42 42z m292-708h-584v208h317l-96-95 59-60 196 197-196 196-59-59 96-96h-317v334h84v-125h416v125h84v-625z" horiz-adv-x="1000" />

<glyph glyph-name="inbox" unicode="&#xe84e;" d="M83 100c0 0 0 83 84 83s125 0 125 0 83 0 83-83h250c0 0 0 83 83 83s125 0 125 0 84 0 84-83v-167h-834v167z m613 304l-196-196-196 196 59 59 95-96v400h84v-400l95 96 59-59z" horiz-adv-x="1000" />

<glyph glyph-name="instant_message" unicode="&#xe84f;" d="M833 767h-666c-46 0-84-38-84-84l1-749 166 166h583c46 0 84 38 84 83v500c0 46-38 84-84 84z m-458-375h-83v83h83v-83z m167 0h-84v83h84v-83z m166 0h-83v83h83v-83z" horiz-adv-x="1000" />

<glyph glyph-name="instant_message2" unicode="&#xe850;" d="M997 539l-330-183-330 183c-2-7-4-14-4-22v-42h-333v83h345c14 25 41 42 72 42h500c34 0 63-21 75-50 1-1 2-3 3-5 1-2 1-3 2-6z m-330-278l-334 185v-54h-333v-84h333v-83h-333v-83h345c14-25 41-42 72-42h500c46 0 83 38 83 83v263l-333-185z" horiz-adv-x="1000" />

<glyph glyph-name="kiss" unicode="&#xe851;" d="M333 392c-80 0-184 39-237 62 105 61 92 188 237 188 125 0 167-84 167-84s42 84 167 84c146 0 132-127 237-188-53-23-156-62-237-62-99 0-138-46-161-73-2-2-4-4-6-6-2 2-4 4-6 6-23 27-62 73-161 73z m334-84c-61 0-79-21-98-43-15-17-35-40-69-40-34 0-54 23-69 40-19 22-37 43-98 43-102 0-225 50-280 74 28-102 127-324 447-324 320 0 419 222 448 324-55-24-179-74-281-74z" horiz-adv-x="1000" />

<glyph glyph-name="layout" unicode="&#xe852;" d="M875 642h-750c-42 0-42-42-42-42v-542c0-41 42-41 42-41h750c42 0 42 41 42 41v542c0 42-42 42-42 42z m-167-42c23 0 42-19 42-42s-19-41-42-41-41 18-41 41 18 42 41 42z m-166-500h-375v83h375v-83z m0 167h-375v125h375v-125z m41 250c-23 0-41 18-41 41s18 42 41 42 42-19 42-42-19-41-42-41z m250-417h-208v292h208v-292z m0 417c-23 0-41 18-41 41s18 42 41 42 42-19 42-42-19-41-42-41z" horiz-adv-x="1000" />

<glyph glyph-name="log" unicode="&#xe853;" d="M583 767l1-167c0-46 37-83 83-83h166l-250 250z m84-334c-92 0-167 75-167 167v167h-250c-46 0-83-38-83-84v-666c0-46 37-84 83-84h500c46 0 83 38 83 84v416h-166z m-292-291h-125v208h42v-167h83v-41z m167 0h-125v208h125v-208z m166 166h-83v-125h42v42h-21v42h62v-125h-125v208h125v-42z m-208-125h-42v125h42v-125z" horiz-adv-x="1000" />

<glyph glyph-name="login" unicode="&#xe854;" d="M708 225c-45 0-83 38-83 83 0 46 38 84 83 84s84-38 84-84c0-45-38-83-84-83z m-391 583c-147 0-275-128-275-275v-141h431c34 97 127 166 235 166 138 0 250-112 250-250v500h-641z m391-750c-108 0-201 70-235 167h-181v-167h-167v167h-83v-333h916v416c0-138-112-250-250-250z" horiz-adv-x="1000" />

<glyph glyph-name="low_connection" unicode="&#xe855;" d="M500 725c-42 0-250 0-458-167l458-583 458 583c-208 167-416 167-458 167z m153-454c-46 24-98 37-153 37-55 0-107-13-153-37l-216 275c112 76 242 117 369 117 128 0 257-41 369-117l-216-275z" horiz-adv-x="1000" />

<glyph glyph-name="makeout" unicode="&#xe856;" d="M917 58v-83h-750c0 0-53 0-74 42-6 11-10 24-10 41v42c0 54 53 95 120 123-3 5-6 11-9 16-51 103-9 241-3 256l19 59 3-1c-1-3-2-6-2-10-1-3-1-6-2-9 0-6-1-11-1-17 0-8 1-15 2-22 0-1 0-2 0-4 1-6 2-11 4-16 1-8 4-15 8-23 1-3 2-5 3-8 2-4 3-7 5-10 2-2 3-4 4-6 3-5 6-8 9-12 5-8 12-16 20-22 3-4 7-7 12-10 1-1 2-2 3-2 5-4 11-8 17-11-2-27 0-55 11-76 6-13 12-25 19-37 33 6 65 9 92 9 57 0 143-15 214-44-3 0-6 0-9 0 3 0 6 0 10-1 117-12 285-67 285-164z m-334 584c-28 0-55-8-79-20-30 38-77 61-129 61-80 0-146-55-162-130-1-3-2-6-2-10-1-3-1-6-2-9 0-6-1-11-1-17 0-8 1-15 2-22 0-1 0-2 0-4 1-6 2-11 4-16 1-8 4-15 8-23 1-3 2-5 3-8 2-4 3-7 5-10 2-2 3-4 4-6 3-5 6-8 9-12 5-8 12-16 20-22 3-4 7-7 12-10 1-1 2-2 3-2 5-4 11-8 17-11 23-13 51-21 80-21 29 0 56 8 79 20 31-38 77-62 129-62 92 0 167 75 167 167s-75 167-167 167z m-145-542h-163c-26 36-52 83-72 123-67-28-120-69-120-123v-42c0-17 4-30 10-41 21-42 74-42 74-42h271c34 0 62 28 62 63s-28 62-62 62z m-21 167c-27 0-59-3-92-9 14-28 29-54 45-77 70 29 156 44 213 44 15 0 31-1 49-3-71 30-158 45-215 45z m0 208c0-40 14-76 37-105-23-12-50-20-79-20-92 0-167 75-167 167s75 166 167 166c52 0 99-23 129-61-52-29-87-84-87-147z" horiz-adv-x="1000" />

<glyph glyph-name="medium_connection" unicode="&#xe857;" d="M500 725c-42 0-250 0-458-167l149-190 309-393 309 393 149 190c-208 167-416 167-458 167z m257-322c-75 46-163 72-257 72s-182-26-257-72l-112 143c112 76 242 117 369 117 128 0 257-41 369-117l-112-143z" horiz-adv-x="1000" />

<glyph glyph-name="message" unicode="&#xe858;" d="M916 516v-416c0 0 0-83-83-83 0 0-666 0-666 0 0 0-84 0-84 83v417l417-209 416 208z m-83 167h-665c-76 0-84-71-84-83l416-208 416 208c0 12-8 83-83 83z" horiz-adv-x="1000" />

<glyph glyph-name="message_to_all" unicode="&#xe859;" d="M500 142l416 206v-415c0 0 0-83-83-83h-666c0 0-84 0-84 83v417l417-208z m429 470l59 59-155 154-154-154 59-59 54 54v-150h-250v150l53-54 60 59-155 154-155-154 60-59 53 54v-150h-250v150l54-54 59 59-154 154-155-154 59-59 54 54v-160c-36-20-41-63-42-73h1l416-208 416 208v0c0 41-21 62-41 72v161l54-54z" horiz-adv-x="1000" />

<glyph glyph-name="mobile_integration" unicode="&#xe85a;" d="M708 512v-266h84v182l-84 84z m-500 26v-183l84-83v266h-84z m459 270h-334c-62 0-93-31-109-62h459l47 48c-16 9-37 14-63 14z m125-770v-21c0 0 0-125-125-125h-334c-58 0-89 27-105 56l90 90h474z m-84 145v-83h-524l54-54-59-59-154 155 154 154 59-59-54-54h524z m113 613l-59-59 54-54h-524v-83h524l-54-54 59-59 154 155-154 154z" horiz-adv-x="1000" />

<glyph glyph-name="moon" unicode="&#xe85b;" d="M917 350c0-230-187-417-417-417-230 0-417 187-417 417 0 19 2 38 5 56 22-150 152-264 308-264 172 0 312 140 312 312 0 156-114 286-264 309 18 2 37 4 56 4 230 0 417-187 417-417z" horiz-adv-x="1000" />

<glyph glyph-name="msn" unicode="&#xe85c;" d="M468-3c0 22 9 56 22 93 14 38 33 77 51 108 17 51 43 110 68 160 36 71 104 159 147 159 24 0 36-20 36-44 0-48-26-119-79-199-24-34-54-72-83-104v-9c0-46-12-94-32-133-26-51-56-95-98-95s-32 37-32 64z m-301 31c0-79 55-95 87-95 86 0 201 75 245 270 0 0 0 0 0 0 21 46 37 112 49 190 35 232-82 374-185 374-93 0-177-126-129-315 17-67 39-139 67-198-35-31-68-66-93-104-25-38-41-79-41-122z" horiz-adv-x="1000" />

<glyph glyph-name="newspaper" unicode="&#xe85d;" d="M917 600v83h-792c-42 0-42-41-42-41v-667c0-23 19-42 42-42h750c23 0 42 19 42 42v375h-750v83h750v84h-750v83h750z m-375-333h291v-250h-291v250z m-84-84v-83h-291v83h291z" horiz-adv-x="1000" />

<glyph glyph-name="nickname" unicode="&#xe85e;" d="M500 725c-69 0-125-56-125-125s56-125 125-125 125 56 125 125-56 125-125 125z m250-458v41c0 84-167 125-250 125s-250-41-250-125v-41h-208v-334h916v334h-208z m-542-250h-83v166h83v-166z m167 0h-83v83h83v-83z m167 0h-84v166h84v-166z m166 0h-83v166h83v-166z m167 0h-83v83h83v-83z" horiz-adv-x="1000" />

<glyph glyph-name="online_radio" unicode="&#xe85f;" d="M500 767c-230 0-417-187-417-417 0-216 165-394 375-415 14-1 28-2 42-2s28 1 42 2c210 21 375 199 375 415 0 230-187 417-417 417z m42-534v-214c-14-1-28-2-42-2s-28 1-42 2v214c-48 16-83 62-83 117 0 69 56 125 125 125s125-56 125-125c0-55-35-101-83-117z m206-106l-63 56c41 44 65 102 65 167 0 138-112 250-250 250-138 0-250-112-250-250 0-65 24-123 65-167l-63-56c-53 59-85 137-85 223 0 184 149 333 333 333s333-149 333-333c0-86-32-164-85-223z" horiz-adv-x="1000" />

<glyph glyph-name="outbox" unicode="&#xe860;" d="M83 100c0 0 0 83 84 83s125 0 125 0 83 0 83-83h250c0 0 0 83 83 83s125 0 125 0 84 0 84-83v-167h-834v167z m613 446l-196 196-196-196 59-59 95 96v-400h84v400l95-96 59 59z" horiz-adv-x="1000" />

<glyph glyph-name="palm_tree" unicode="&#xe861;" d="M429 180l12 109c12-13 31-22 59-22 28 0 47 9 59 22l12-109c-11-20-32-38-71-38-39 0-60 18-71 38z m71-122c-42 0-62 21-73 42-1 3-2 5-3 8l-7-91c0 0 0-21 10-42s31-42 73-42c83 0 83 84 83 84l-7 91c-8-23-29-50-76-50z m167 542c6 4 64 21 104 21 41 0 99-4 146-21 0 0-84 167-209 167-166 0-192-97-208-125-16 28-42 125-208 125-125 0-209-167-209-167 47 17 105 21 146 21 40 0 99-17 104-21-250-42-208-292-208-292 42 84 125 167 166 151-125-123 42-317 42-317 0 149 65 256 117 304v0l-3-79c12-10 29-17 53-17s41 7 53 17l-3 79v0c52-48 117-155 117-304 0 0 167 194 42 317 41 16 124-67 166-151 0 0 42 250-208 292z" horiz-adv-x="1000" />

<glyph glyph-name="password" unicode="&#xe862;" d="M875 558h-792c-83 0-83-83-83-83v-292c0-83 83-83 83-83h792c83 0 83 83 83 83v292c0 83-83 83-83 83z m0-333c0 0 0-42-42-42h-708c0 0-42 0-42 42v208c0 0 0 42 42 42h708c0 0 42 0 42-42v-208z m-146 167c-34 0-62-28-62-63s28-62 62-62 63 28 63 62-28 63-63 63z m-166 0c-35 0-63-28-63-63s28-62 63-62 62 28 62 62-28 63-62 63z m-334 0c-34 0-62-28-62-63s28-62 62-62 63 28 63 62-28 63-63 63z m167 0c-35 0-63-28-63-63s28-62 63-62 62 28 62 62-28 63-62 63z" horiz-adv-x="1000" />

<glyph glyph-name="personal_photo" unicode="&#xe863;" d="M833 767c0 0-583 0-666 0s-84-84-84-84 0-583 0-666 84-84 84-84 583 0 666 0 84 84 84 84 0 583 0 666-84 84-84 84z m-333-84c92 0 167-74 167-166s-75-167-167-167-167 75-167 167 75 166 167 166z m333-666h-666v83c0 111 222 167 333 167s333-56 333-167v-83z" horiz-adv-x="1000" />

<glyph glyph-name="photo_gallery" unicode="&#xe864;" d="M838 767h-509c-44 0-79-36-79-79v-5h504c44 0 79-35 79-79v-504h5c43 0 79 35 79 79v509c0 43-36 79-79 79z m-167-167h-508c-44 0-80-35-80-79v-508c0-44 36-80 80-80h508c44 0 79 36 79 80v508c0 44-35 79-79 79z m-254-83c69 0 125-56 125-125s-56-125-125-125-125 56-125 125 56 125 125 125z m250-500h-500v62c0 84 166 125 250 125s250-41 250-125v-62z" horiz-adv-x="1000" />

<glyph glyph-name="pizza" unicode="&#xe865;" d="M500 767c-157 0-307-64-417-174l42-76 375-667 375 667 43 75c-110 111-261 175-418 175z m303-209l-303-538-312 555c89 70 199 108 312 108 113 0 223-38 312-108l-9-17z m-220-291c0-46-37-84-83-84-46 0-83 38-83 84s37 83 83 83c46 0 83-37 83-83z m-208 333c-46 0-83-37-83-83s37-84 83-84 83 38 83 84-37 83-83 83z" horiz-adv-x="1000" />

<glyph glyph-name="plugin" unicode="&#xe866;" d="M917 267c0-23-19-42-42-42h-83v-83h-167v-84c0-23-19-41-42-41h-375c-23 0-41 18-41 41v250h316l-96-95 59-59 196 196-196 196-59-59 96-95h-316v250c0 23 18 41 41 41h375c23 0 42-18 42-41v-84h167v-83h83c23 0 42-19 42-42s-19-41-42-41h-83v-84h83c23 0 42-18 42-41z" horiz-adv-x="1000" />

<glyph glyph-name="privacy2" unicode="&#xe867;" d="M750 433h-42v84c0 72-43 208-208 208s-208-136-208-208v-84h-42c-83 0-83-83-83-83v-333c0 0 0-84 83-84h500c0 0 83 0 83 84v333c0 0 0 83-83 83z m-375 0v84c0 20 7 125 125 125s125-105 125-125v-84h-250z" horiz-adv-x="1000" />

<glyph glyph-name="private_message" unicode="&#xe868;" d="M629 456l287 144c0 18-4 33-10 44h-1c-22 39-72 39-72 39h-666c-48 0-69-28-77-52-5-14-6-26-7-31l288-144c-15-19-27-42-33-67l-255 128v-417c0-83 84-83 84-83h666c83 0 83 81 83 83v416l-254-127c-6 25-18 48-33 67z m-179-39c14 10 31 16 50 16s36-6 50-16c20-16 33-40 33-67 0-31-16-57-41-72v-95h-84v95c-25 15-41 41-41 72 0 27 13 51 33 67z" horiz-adv-x="1000" />

<glyph glyph-name="profile" unicode="&#xe869;" d="M784 183h-284v84c-111 0-333-56-333-167v-83h333v83h333c0 33-19 60-49 83z m-284 334v83h144c-29 50-82 83-144 83-92 0-167-74-167-166s75-167 167-167v83h144c14 25 23 53 23 84h-167z" horiz-adv-x="1000" />

<glyph glyph-name="public_chat" unicode="&#xe86a;" d="M500 767c-230 0-417-187-417-417 0-83 25-160 67-225l-67-233 217 92c59-32 128-51 200-51 230 0 417 187 417 417 0 230-187 417-417 417z m0-750c-184 0-333 149-333 333 0 161 115 296 268 327l-90-89c-16-16-16-43 0-59 9-8 19-12 30-12h250v-84h-83c0 23-19 42-42 42 0 0-21 0-83 0-69 0-125-56-125-125v-42c0-45 37-83 83-83h83c0 0 0-76 0-104 0-46 38-83 84-83 46 0 83 37 83 83v21l83 83c33 33 33 85 0 118-2 2-5 5-8 7h133c0-184-149-333-333-333z" horiz-adv-x="1000" />

<glyph glyph-name="public_chat2" unicode="&#xe86b;" d="M500 767c-230 0-417-187-417-417 0-83 25-160 67-225l-67-233 217 93c59-33 128-52 200-52 230 0 417 187 417 417 0 230-187 417-417 417z m-333-417c0 25 3 48 8 71l201-194c-20-127 82-127 82-127l1-80c-165 20-292 160-292 330z m579-224l0-1c-11 34-42 58-79 58h-42v125c0 23-19 42-42 42h-250v83h84c23 0 41 19 41 42v83h84c46 0 83 38 83 84 0 0 0 7 0 17 122-49 208-169 208-309 0-86-33-165-87-224z" horiz-adv-x="1000" />

<glyph glyph-name="public_chat3" unicode="&#xe86c;" d="M500 767c-230 0-417-187-417-417 0-83 25-160 67-225l-67-233 217 93c59-33 128-52 200-52 230 0 417 187 417 417 0 230-187 417-417 417z m-333-417c0 12 0 24 2 36 0 0 0 0 0 0 101-124 101-120 129-119 28 1 34 32 35 32s0 58 0 58c75-89 113-90 113-90h172l-83 83c3-2 18-10 51 13 60 32 39 154 39 154l87 90c74-61 121-153 121-257 0-45-9-88-25-127-29 3-64 4-107 3-71-11-78-81-78-81s-16-56 51-79c0 0 0 0 0 0-51-31-110-49-174-49-184 0-333 149-333 333z" horiz-adv-x="1000" />

<glyph glyph-name="push_pin" unicode="&#xe86d;" d="M750 517c0 138-112 250-250 250-138 0-250-112-250-250 0-188 250-459 250-459s250 271 250 459z m-333 0c0 46 37 83 83 83 46 0 83-37 83-83s-37-84-83-84c-46 0-83 38-83 84z m-209-500h584v-84h-584v84z" horiz-adv-x="1000" />

<glyph glyph-name="rain" unicode="&#xe86e;" d="M875 381c0-86-70-156-156-156h-11v-83h-83v83h-83v-83h-84v83h-83v-83h-83v83h21c-104 0-188 84-188 188 0 96 73 176 167 186 39 75 118 126 208 126 114 0 208-81 230-189 81-6 145-72 145-155z m-583-406h83v83h-83v-83z m166 0h84v83h-84v-83z m167 0h83v83h-83v-83z" horiz-adv-x="1000" />

<glyph glyph-name="recieved_files" unicode="&#xe86f;" d="M917 517v-417c0 0 0-83-84-83h-666c0 0-84 0-84 83 0 0 1 275 1 417 0 49 0 83 0 83-1 0-1 83 83 83h250l83-83h83v-358l-95 96-59-59 196-196 196 196-59 59-95-96v358h166c0 0 84 0 84-83z" horiz-adv-x="1000" />

<glyph glyph-name="recieved_files2" unicode="&#xe870;" d="M917 517v-417c0 0 0-83-84-83h-666c0 0-84 0-84 83 0 0 1 275 1 417 0 49 0 83 0 83-1 0-1 83 83 83h250l83-83h125v-358l-95 96-60-59 197-196 196 196-59 59-96-96v358h125c0 0 84 0 84-83z m-292 333h83v-250h-83v250z" horiz-adv-x="1000" />

<glyph glyph-name="remote_control" unicode="&#xe871;" d="M625 475h-250c-23 0-42-19-42-42v-500c0-23 19-41 42-41h250c23 0 42 18 42 41v500c0 23-19 42-42 42z m-125-250c-46 0-83 38-83 83 0 46 37 84 83 84 46 0 83-38 83-84 0-45-37-83-83-83z m-197 373l59-59c38 38 90 61 148 61 57 0 109-23 147-61l59 59c-53 53-126 85-206 85s-154-32-207-85z m207 252c-127 0-242-51-324-134l58-59c68 68 162 110 266 110 103 0 197-42 265-110l58 58c-82 84-197 135-323 135z" horiz-adv-x="1000" />

<glyph glyph-name="ringtone" unicode="&#xe872;" d="M667 808h-334c-125 0-125-125-125-125v-666c0 0 0-125 125-125h334c125 0 125 125 125 125v666c0 0 0 125-125 125z m-84-833h-166v42h166v-42z m-291 125v583h416v-583h-416z m375 500v-83h-84v-209c0-69-55-125-125-125s-125 56-125 125 56 125 125 125c15 0 29-3 42-7v174h167z" horiz-adv-x="1000" />

<glyph glyph-name="risk" unicode="&#xe873;" d="M498 764l-456-789h916l-460 789z m44-664h-84v83h84v-83z m-84 167v166h84v-166h-84z" horiz-adv-x="1000" />

<glyph glyph-name="script_editor" unicode="&#xe874;" d="M625 642h-542v83h542v-83z m0 208h-542c-45 0-83-37-83-83v-667c0-46 38-83 83-83h60l125 125h-185v83h268l83 83h-351v84h435l83 83h-518v83h542v-59l83 83v185c0 46-37 83-83 83z m86-383l-416-416 156-156 416 416-156 156z m277 23l-98 98c-16 16-42 16-58 0l-77-76 157-157 76 77c16 16 16 42 0 58z m-738-640h156l-156 156v-156z" horiz-adv-x="1000" />

<glyph glyph-name="secure_message" unicode="&#xe875;" d="M500 142l-417 208v-333c0-46 38-84 84-84h666c84 0 84 84 84 84v333l-417-208z m333 375h-274l-59-59-59 59h-274c-46 0-84-38-84-84l417-208 417 208c0 46-38 84-84 84z m-53 220l-221-220h-118l-96 95 60 59 95-96 220 221 60-59z" horiz-adv-x="1000" />

<glyph glyph-name="send_file" unicode="&#xe876;" d="M667 433c-92 0-167 75-167 167v167h-250c-46 0-83-38-83-84v-458h441l-54 54 59 59 154-155-154-154-59 59 54 54h-441v-125c0-46 37-84 83-84h500c46 0 83 38 83 84v416h-166z m-84 334l1-167c0-46 37-83 83-83h166l-250 250z" horiz-adv-x="1000" />

<glyph glyph-name="send_photo" unicode="&#xe877;" d="M833 767h-666c-46 0-84-38-84-84v-458h608l-54 54 59 59 154-155-154-154-59 59 54 54h-608v-125c0-46 38-84 84-84h666c46 0 84 38 84 84v666c0 46-38 84-84 84z m-625-334l146 188 104-126 146 188 188-250h-584z" horiz-adv-x="1000" />

<glyph glyph-name="send_sms" unicode="&#xe878;" d="M820 468l97 48-1-416c0 0 0-83-83-83h-666c0 0-84 0-84 83v208h608l-137-137 59-59 237 238-237 238-59-59 137-137h-607v125l125-63h166l-292 146c1 12 7 83 84 83h666c0 0 84 0 84-83l-152-76 55-56z m-737-14h1v-62h-1v62z" horiz-adv-x="1000" />

<glyph glyph-name="shared_folder" unicode="&#xe879;" d="M917 517v-334c0 0 0-83-84-83h-89c-18 55-70 83-119 83h-6c4 13 6 27 6 42 0 81-65 125-125 125h-333c0 54 0 114 0 167 0 49 0 83 0 83 0 0 0 83 83 83h208l84-83h291c0 0 84 0 84-83z m-917-250h83v-250h-83v250z m167 0v-250c0 0 41-84 208-84s292 84 292 125-42 42-42 42h-167c0 0-83 0-83 83h125c0 0 42 0 42 42s-42 42-42 42-292 0-333 0z" horiz-adv-x="1000" />

<glyph glyph-name="sign_in" unicode="&#xe87a;" d="M83 725h500v-274l-95 95-59-59 96-95h-442v333z m346-512l96 95h-442v-333h500v274l-95-95-59 59z m238 512v-750h250v750h-250z" horiz-adv-x="1000" />

<glyph glyph-name="sign_out" unicode="&#xe87b;" d="M333 725v-750h-250v750h250z m84 0v-333h316l-96 95 59 59 196-196-196-196-59 59 96 95h-316v-333h500v750h-500z" horiz-adv-x="1000" />

<glyph glyph-name="skins" unicode="&#xe87c;" d="M581 269l-78 79 38 37c8 9 21 9 29 0l49-48c8-8 8-22 0-29l-38-39z m336 331v-542c0 0 0-41-42-41h-625v78l230 230 78-78-146-147h421v375h-666v-458h-42c-42 0-42 41-42 41v542c0 0 0 42 42 42h750c0 0 42 0 42-42z m-292-42c0 23-19 42-42 42s-41-19-41-42 18-41 41-41 42 18 42 41z m125 0c0 23-19 42-42 42s-41-19-41-42 18-41 41-41 42 18 42 41z m125 0c0 23-19 42-42 42s-41-19-41-42 18-41 41-41 42 18 42 41z" horiz-adv-x="1000" />

<glyph glyph-name="skype" unicode="&#xe87d;" d="M662 269c-1-16 9-123-146-128h-13c-168 1-169 103-149 126 21 23 55 3 69-12 14-14 33-38 77-39h3c46 0 73 5 71 54 0 23-16 32-40 38-16 3-36 5-58 10-42 8-70 22-90 37-43 34-43 75-42 86 1 16 0 126 141 130h9c168 0 159-118 140-129-33-18-47-3-66 22-11 16-26 31-68 32h-5c-47 0-75-21-72-53 2-20 20-30 42-37 18-5 40-8 57-11 39-9 68-22 89-35 52-35 52-80 51-91z m255 414v-666c0-46-38-84-84-84h-666c-46 0-84 38-84 84v666c0 46 38 84 84 84h666c46 0 84-38 84-84z m-104-473c0 39-14 74-38 101 2 13 3 25 3 38 0 163-128 293-285 293-23 0-44 0-65-5-24 16-53 25-84 25-86 0-156-70-156-157 0-32 10-63 27-88-5-22-7-44-7-68 0-163 135-291 292-291 28 0 54 0 87 12 21-10 44-16 69-16 87 0 157 70 157 156z" horiz-adv-x="1000" />

<glyph glyph-name="sort_by_groups" unicode="&#xe87e;" d="M747 278c43-31 66-70 66-115v-63h104v63c0 60-89 99-170 115z m-664-115v-63h105v63c0 45 23 85 66 115-81-15-171-54-171-115z m275 435c-8 1-16 2-25 2-69 0-125-56-125-125s56-125 125-125c9 0 17 1 25 3-28 32-45 75-45 122s17 90 45 123z m309 2c-9 0-17-1-25-2 28-33 46-76 46-123s-18-90-46-122c8-2 16-3 25-3 69 0 125 56 125 125s-56 125-125 125z m83-437v-63h-500v63c0 60 87 98 167 115 31 6 60 10 83 10 23 0 53-4 83-10h1c79-17 166-55 166-115z m-125 312c0 69-56 125-125 125s-125-56-125-125 56-125 125-125 125 56 125 125z m-375-458h500l-250-167-250 167z" horiz-adv-x="1000" />

<glyph glyph-name="sort_by_mail" unicode="&#xe87f;" d="M250 17h500l-250-167-250 167z m667 666l-417-208-416 208v0c1 12 9 83 84 83 82 0 666 0 666 0s83 0 83-83z m-417-291l-416 208v-417c0-83 83-83 83-83h666c84 0 84 83 84 83v417l-417-208z" horiz-adv-x="1000" />

<glyph glyph-name="sort_by_nickname" unicode="&#xe880;" d="M250 17h500l-250-167-250 167z m708 416v-333h-916v333h916z m-750-83h-83v-167h83v167z m167-83h-83v-84h83v84z m167 83h-84v-167h84v167z m166 0h-83v-167h83v167z m167-83h-83v-84h83v84z" horiz-adv-x="1000" />

<glyph glyph-name="sort_by_status" unicode="&#xe881;" d="M250 17h500l-250-167-250 167z m250 750c92 0 167-75 167-167s-75-167-167-167-167 75-167 167 75 167 167 167z m0-417c-111 0-333-56-333-167v-83h666v83c0 111-222 167-333 167z" horiz-adv-x="1000" />

<glyph glyph-name="status" unicode="&#xe882;" d="M417 767c-92 0-167-75-167-167s75-167 167-167 166 75 166 167-74 167-166 167z m-14-417c-115-5-320-60-320-167v-83h283c-8 27-12 55-12 83 0 62 18 119 49 167z m264 83c-138 0-250-112-250-250s112-250 250-250 250 112 250 250-112 250-250 250z m0-375l-167 209h333l-166-209z" horiz-adv-x="1000" />

<glyph glyph-name="status_at_phone" unicode="&#xe883;" d="M417 767c-92 0-167-75-167-167s75-167 167-167 166 75 166 167-74 167-166 167z m-14-417c-115-5-320-60-320-167v-83h283c-8 27-12 55-12 83 0 62 18 119 49 167z m264 83c-138 0-250-112-250-250s112-250 250-250 250 112 250 250-112 250-250 250z m83-375c0-41-42-41-42-41h-125v125h84v83h-84v125c0 0 84 0 125 0s42-42 42-42 0-208 0-250z" horiz-adv-x="1000" />

<glyph glyph-name="status_away" unicode="&#xe884;" d="M417 767c-92 0-167-75-167-167s75-167 167-167 166 75 166 167-74 167-166 167z m-14-417c-115-5-320-60-320-167v-83h283c-8 27-12 55-12 83 0 62 18 119 49 167z m264 83c-138 0-250-112-250-250s112-250 250-250 250 112 250 250-112 250-250 250z m125-291h-167v208h83v-125h84v-83z" horiz-adv-x="1000" />

<glyph glyph-name="status_busy" unicode="&#xe885;" d="M417 767c-92 0-167-75-167-167s75-167 167-167 166 75 166 167-74 167-166 167z m-14-417c-115-5-320-60-320-167v-83h283c-8 27-12 55-12 83 0 62 18 119 49 167z m264 83c-138 0-250-112-250-250s112-250 250-250 250 112 250 250-112 250-250 250z m166-291h-333v83h333v-83z" horiz-adv-x="1000" />

<glyph glyph-name="status_idle" unicode="&#xe886;" d="M417 767c-92 0-167-75-167-167s75-167 167-167 166 75 166 167-74 167-166 167z m-14-417c-115-5-320-60-320-167v-83h283c-8 27-12 55-12 83 0 62 18 119 49 167z m264 83c-138 0-250-112-250-250s112-250 250-250 250 112 250 250-112 250-250 250z m-84-291h-83v83h83v-83z m125 0h-83v83h83v-83z m125 0h-83v83h83v-83z" horiz-adv-x="1000" />

<glyph glyph-name="status_invisible" unicode="&#xe887;" d="M500 600c46 0 83-37 83-83s-37-84-83-84c-46 0-83 38-83 84s37 83 83 83m0-417c113 0 242-53 250-83h-500c9 30 138 83 250 83m0 500c-92 0-167-74-167-166s75-167 167-167 167 75 167 167-75 166-167 166l0 0z m0-416c-111 0-333-56-333-167v-83h666v83c0 111-222 167-333 167l0 0z" horiz-adv-x="1000" />

<glyph glyph-name="status_out_to_lunch" unicode="&#xe888;" d="M354 183c0-28 4-56 12-83h-283v83c0 107 205 162 320 167-31-48-49-105-49-167z m63 584c-92 0-167-75-167-167s75-167 167-167 166 75 166 167-74 167-166 167z m500-584c0-138-112-250-250-250s-250 112-250 250 112 250 250 250 250-112 250-250z m-292 167c0 0-42 0-42-42v-250c0 0 0-41 42-41v333z m125-42c0 42-42 42-42 42v-333c42 0 42 41 42 41v250z" horiz-adv-x="1000" />

<glyph glyph-name="sun" unicode="&#xe889;" d="M282 630l-75 74-59-59 75-74 59 59z m-240-238h125v-84h-125v84z m416 416h84v-123h-84v123z m335-104l59-59-74-74-59 59 74 74z m-75-629l75-75 59 58-75 75-59-58z m115 317h125v-84h-125v84z m-333 208c-138 0-250-112-250-250 0-138 112-250 250-250 138 0 250 112 250 250 0 138-112 250-250 250z m-42-583h84v-123h-84v123z m-310 42l59-59 74 75-58 59-75-75z" horiz-adv-x="1000" />

<glyph glyph-name="telephone" unicode="&#xe88a;" d="M875 162v-145c0-23-19-42-42-42-391 0-708 317-708 708 0 23 19 42 42 42h146c22 0 41-19 41-42 0-52 9-102 24-148 5-15 1-31-10-43l-92-92v0c60-117 156-213 273-273 0-1 1-1 1-1l92 91c11 12 28 15 43 10 46-15 97-23 148-23 23 0 42-19 42-42z" horiz-adv-x="1000" />

<glyph glyph-name="thread" unicode="&#xe88b;" d="M917-4c0-35-28-63-63-63h-458c-35 0-63 28-63 63s28 62 63 62h458c35 0 63-28 63-62z m-63 271h-458c-35 0-63-28-63-63s28-62 63-62h458c35 0 63 28 63 62s-28 63-63 63z m-36 500h-635c-55 0-100-44-100-99v-10c0-55 45-100 100-100h25v-166l167 166h443c55 0 99 45 99 100v10c0 55-44 99-99 99z m36-292h-458c-35 0-63-28-63-62s28-63 63-63h458c35 0 63 28 63 63s-28 62-63 62z" horiz-adv-x="1000" />

<glyph glyph-name="threads" unicode="&#xe88c;" d="M917 600c0-46-38-83-84-83h-666c-23 0-44 9-59 24-15 15-25 36-25 59 0 46 38 83 84 83h666c46 0 84-37 84-83z m-84-167h-666c-46 0-84-37-84-83 0-23 10-44 25-59 15-15 36-24 59-24h666c46 0 84 37 84 83 0 46-38 83-84 83z m0-250h-666c-46 0-84-37-84-83 0-23 10-44 25-59 15-15 36-24 59-24h666c46 0 84 37 84 83s-38 83-84 83z" horiz-adv-x="1000" />

<glyph glyph-name="turtle" unicode="&#xe88d;" d="M750 163c-66 0-131 9-165 69-48-36-122-36-170 0-34-60-98-69-165-69-49 0-101 21-141 58 59-144 212-246 391-246 180 0 333 103 391 246-40-37-92-58-141-58z m166 201c-1 29-6 57-14 84 0 1 0 1 0 2-22 51-63 89-112 103 1 8 2 17 2 26 0 15-2 30-6 44-16 59-63 102-119 102-19 0-37-5-54-14-19-11-35-26-47-46-19 11-42 18-66 18s-47-7-66-18c-12 20-28 35-47 46-17 9-34 14-54 14-56 0-103-43-119-102-4-14-6-29-6-44 0-9 1-18 2-26-50-14-90-53-112-104 0 0 0-1 0-1-8-27-13-55-14-84v-4c4-90 91-156 166-156 73 0 119 11 137 69 3 7 8 12 16 14 7 1 15-1 20-7 38-43 116-44 154 0 5 6 13 9 20 7 8-2 13-7 16-14 18-58 64-69 137-69 75 0 161 66 166 156v2c1 1 1 1 1 1 0 0 0 0-1 1z m-603 69c-35 0-63 38-63 84s28 83 63 83 62-37 62-83-28-84-62-84z m125 42c-12 0-21 19-21 42s9 41 21 41 20-18 20-41-9-42-20-42z m125 0c-12 0-21 19-21 42s9 41 21 41 20-18 20-41-9-42-20-42z m125-42c-35 0-63 38-63 84s28 83 63 83 62-37 62-83-28-84-62-84z" horiz-adv-x="1000" />

<glyph glyph-name="twitter" unicode="&#xe88e;" d="M660 709c-94 0-171-81-171-181 0-15 2-28 5-42-142 8-268 80-353 190-14-27-23-58-23-91 0-63 30-119 76-151-28 1-54 9-77 23l0-3c0-88 59-161 137-177-14-5-29-7-45-7-11 0-22 1-32 3 22-71 85-124 160-125-59-49-133-78-213-78-14 0-27 1-41 3 76-52 166-82 262-82 315 0 487 276 487 516 0 8 0 15-1 23 34 26 63 58 86 94-31-15-64-24-98-29 35 23 62 58 75 101-33-21-70-36-109-44-31 35-75 57-125 57" horiz-adv-x="1000" />

<glyph glyph-name="unicode" unicode="&#xe88f;" d="M958 600v83h-916v-83h83v-500h-83v-83h916v83h-83v500h83z m-208-417h-94l-156 200v-75c0-50-33-125-125-125s-125 75-125 125v209h83v-209c1-18 8-41 42-41s41 23 42 42v208h85l165-212v45h83v-167z m0 250h-83v84h83v-84z" horiz-adv-x="1000" />

<glyph glyph-name="update_version" unicode="&#xe890;" d="M917 475h-125v-208c0-134-89-334-334-334s-333 200-333 334v333h167v-333c0-39 14-167 166-167 159 0 167 139 167 167v208h-125l208 292 209-292z" horiz-adv-x="1000" />

<glyph glyph-name="visual_warning" unicode="&#xe891;" d="M500 767l-458-834h916l-458 834z m0-750c-208 0-250 166-250 166s42 167 250 167 250-167 250-167-42-166-250-166z m167 166c0 92-75 167-167 167s-167-75-167-167 75-166 167-166 167 74 167 166z m-167-83c-46 0-83 38-83 83s37 84 83 84c46 0 83-38 83-84s-37-83-83-83z" horiz-adv-x="1000" />

<glyph glyph-name="visual_warning2" unicode="&#xe892;" d="M500 558c-115 0-208-93-208-208s93-208 208-208 208 93 208 208-93 208-208 208z m0-333c-69 0-125 56-125 125s56 125 125 125 125-56 125-125-56-125-125-125z m-31-165c-310 18-427 290-427 290s117 272 427 290c-147-15-261-139-261-290 0-151 114-274 261-290z m62 0c147 16 261 139 261 290 0 151-114 275-261 290 310-18 427-290 427-290s-117-272-427-290z" horiz-adv-x="1000" />

<glyph glyph-name="voice_chat" unicode="&#xe893;" d="M833 767h-666c0 0-84 0-84-84v-750l167 167h583c84 0 84 83 84 83v500c0 0 0 84-84 84z m-83-500l-167 125v-125h-333v333h333v-125l167 125v-333z" horiz-adv-x="1000" />

<glyph glyph-name="white_list" unicode="&#xe894;" d="M750 767h-500c-46 0-83-38-83-84v-666c0-46 37-84 83-84h500c46 0 83 38 83 84v666c0 46-37 84-83 84z m-500-84h83v-83h-83v83z m0-166h83v-84h-83v84z m208-476l-154 154 59 60 95-96 221 221 59-60-280-279z m292 392h-333v84h333v-84z m0 167h-333v83h333v-83z" horiz-adv-x="1000" />

<glyph glyph-name="wine" unicode="&#xe895;" d="M750 433c0 48-3 89-8 125-21 154-75 209-75 209h-334c0 0-54-55-75-209-5-36-8-77-8-125 0-185 138-233 208-245v-171h-125v-84h334v84h-125v171c71 12 208 60 208 245z m-128 250c11-23 26-64 36-125h-315c9 61 24 102 35 125h244z" horiz-adv-x="1000" />

<glyph glyph-name="withered_flower2" unicode="&#xe896;" d="M542 127v126c41 32 71 67 90 103 38-24 81-41 128-46 20 51 32 109 32 165 0 83-42 250-292 250s-292-167-292-250c0-56 12-114 32-165 47 5 90 22 128 46 19-36 49-71 90-103v-125c-47 60-137 139-291 139 0-2 1-334 333-334 333 0 333 332 333 334-154 0-245-79-291-140z" horiz-adv-x="1000" />

<glyph glyph-name="yahoo" unicode="&#xe897;" d="M801 766l-259-519v-314c0 0-43 21-84 21s-83-21-83-21v314l-259 519c6-2 53-20 92-20 42 0 93 21 93 21l157-314 157 314c0 0 52-21 93-21 40 0 87 18 93 20z" horiz-adv-x="1000" />
</font>
</defs>
</svg>
