<?xml version="1.0" standalone="no"?>
<!DOCTYPE svg PUBLIC "-//W3C//DTD SVG 1.1//EN" "http://www.w3.org/Graphics/SVG/1.1/DTD/svg11.dtd">
<svg xmlns="http://www.w3.org/2000/svg">
<metadata>iconshock</metadata>
<defs>
<font id="materialblack_security" horiz-adv-x="1000" >
<font-face font-family="materialblack_security" font-weight="400" font-stretch="normal" units-per-em="1000" ascent="850" descent="-150" />
<missing-glyph horiz-adv-x="1000" />
<glyph glyph-name="access_blocking" unicode="&#xe800;" d="M875 767v-834h-83v750h-584v-750h-83v834h750z m-220-363l-59 59-96-96-95 96-59-59 95-96-95-95 59-59 95 95 96-95 59 59-96 95 96 96z" horiz-adv-x="1000" />

<glyph glyph-name="access_control" unicode="&#xe801;" d="M500 534l196-196-59-59-95 96v-442h-84v442l-95-96-59 59 196 196z m-375 233v-834h83v750h584v-750h83v834h-750z" horiz-adv-x="1000" />

<glyph glyph-name="activity" unicode="&#xe802;" d="M917 308h-167v84h167v-84z m-334 125c-45 0-83-37-83-83 0-12 3-22 7-32 0 0 0 0 0-1l-39-51-96 225c-7 14-19 24-35 26-15 1-30-6-38-19l-71-106h-145v-84h167c14 0 27 7 35 19l40 61 95-221c6-14 19-23 33-25 2 0 4 0 5 0 13 0 26 6 34 16l81 110c4-1 7-1 10-1 46 0 84 37 84 83 0 46-38 83-84 83z" horiz-adv-x="1000" />

<glyph glyph-name="allow_all" unicode="&#xe803;" d="M875 517h-750c-42 0-42-42-42-42v-500c0-42 42-42 42-42h750c42 0 42 42 42 42v500c0 42-42 42-42 42z m-167-42c23 0 42-19 42-42s-19-41-42-41-41 18-41 41 18 42 41 42z m-125 0c23 0 42-19 42-42s-19-41-42-41-41 18-41 41 18 42 41 42z m250-458h-666v333h666v-333z m0 375c-23 0-41 18-41 41s18 42 41 42 42-19 42-42-19-41-42-41z m42 375h-750c-42 0-42-42-42-42v-125h834v125c0 42-42 42-42 42z m-292-125c-23 0-41 18-41 41s18 42 41 42 42-19 42-42-19-41-42-41z m125 0c-23 0-41 18-41 41s18 42 41 42 42-19 42-42-19-41-42-41z m125 0c-23 0-41 18-41 41s18 42 41 42 42-19 42-42-19-41-42-41z m-375-601l-112 113 59 59 53-54 138 137 59-59-197-196z" horiz-adv-x="1000" />

<glyph glyph-name="analyze_mail" unicode="&#xe804;" d="M751 158c52 64 82 145 82 234 0 207-168 375-375 375s-375-168-375-375 168-375 375-375c89 0 170 31 234 82l195-195 59 59-195 195z m-293 525c81 0 153-32 206-84l-206-118-205 118c53 52 125 84 205 84z m0-583c-161 0-291 130-291 292 0 51 13 98 35 140l256-147 257 147c22-42 35-89 35-140 0-162-130-292-292-292z" horiz-adv-x="1000" />

<glyph glyph-name="anti_dialer" unicode="&#xe805;" d="M747 329l116-116-59-59-116 116-117-116-59 59 116 116-116 116 59 60 117-117 116 117 59-60-116-116z m-519-104c-11 33-20 74-20 125 0 51 9 92 20 125h126l84 125-125 125c-43-32-79-71-109-115-27-36-79-123-79-260 0-138 53-225 80-261 29-44 65-82 108-114l125 125-84 125h-126z" horiz-adv-x="1000" />

<glyph glyph-name="anti_dialer2" unicode="&#xe806;" d="M500 808l-375-166v-250c0-232 160-448 375-500 215 52 375 268 375 500v250l-375 166z m-64-583h127l83-125-125-125c-126 103-188 209-188 354 0 130 50 247 188 354l125-124-83-126h-127c-11-33-19-53-19-104s8-71 19-104z" horiz-adv-x="1000" />

<glyph glyph-name="anti_spam" unicode="&#xe807;" d="M570 478l-198-198c-12 22-18 45-18 70 0 80 66 146 146 146 25 0 48-6 70-18z m-140-256c22-11 45-18 70-18 80 0 146 66 146 146 0 25-6 48-18 70l-198-198z m486 336v-416c0 0 0-84-83-84 0 0-666 1-666 0 0 0-84 0-84 84l1 416c0 12 8 84 84 84h665c0 0 83-1 83-84z m-187-208c0 126-103 229-229 229s-229-103-229-229 103-229 229-229 229 103 229 229z" horiz-adv-x="1000" />

<glyph glyph-name="anti_spam2" unicode="&#xe808;" d="M500 808l-375-166v-250c0-232 160-448 375-500 215 52 375 268 375 500v250l-375 166z m250-583c0-23-19-42-42-42h-416c-23 0-42 19-42 42v238l241-111c3-1 6-2 9-2s6 1 9 2l241 111v-238z m0 284l-250-115-250 115v8c0 23 19 41 42 41h416c23 0 42-18 42-41v-8z" horiz-adv-x="1000" />

<glyph glyph-name="antivirus" unicode="&#xe809;" d="M500 767l-375-209v-416l375-209 375 209v416l-375 209z m196-554l-59-59-137 137-137-137-59 59 137 137-137 137 59 59 137-137 137 137 59-59-137-137 137-137z" horiz-adv-x="1000" />

<glyph glyph-name="antivirus2" unicode="&#xe80a;" d="M500 808l-375-166v-250c0-232 160-448 375-500 215 52 375 268 375 500v250l-375 166z m208-583l-208-83-208 83v250l208 83 208-83v-250z m-333 56v138l125 50 125-50v-138l-125-49-125 49z" horiz-adv-x="1000" />

<glyph glyph-name="aplication_list" unicode="&#xe80b;" d="M792 767h-584c-41 0-41-42-41-42v-750c0-42 41-42 41-42h584c41 0 41 42 41 42v750c0 42-41 42-41 42z m-167-42c23 0 42-19 42-42s-19-41-42-41-42 18-42 41 19 42 42 42z m-125 0c23 0 42-19 42-42s-19-41-42-41-42 18-42 41 19 42 42 42z m250-708h-500v583h500v-583z m0 625c-23 0-42 18-42 41s19 42 42 42 42-19 42-42-19-41-42-41z m-83-292v-83h-167v83h167z m-334 0v-83h84v83h-84z m167 167v-84h167v84h-167z m-167 0v-84h84v84h-84z m0-334v-83h84v83h-84z m167 0v-83h167v83h-167z" horiz-adv-x="1000" />

<glyph glyph-name="aplication_modules" unicode="&#xe80c;" d="M875 767h-750c-42 0-42-42-42-42v-542c0-41 42-41 42-41h42v125h250v-125h-250v-125h666v125h-333v333h333v-333h42c42 0 42 41 42 41v542c0 42-42 42-42 42z m-708-417v125h250v-125h-250z m416 292c-23 0-41 18-41 41s18 42 41 42 42-19 42-42-19-41-42-41z m125 0c-23 0-41 18-41 41s18 42 41 42 42-19 42-42-19-41-42-41z m125 0c-23 0-41 18-41 41s18 42 41 42 42-19 42-42-19-41-42-41z" horiz-adv-x="1000" />

<glyph glyph-name="aplication_modules2" unicode="&#xe80d;" d="M167-25v167h166v-167h-166z m250 0h166v167h-166v-167z m250 0h166v167h-166v-167z m250 750v-542c0 0 0-41-42-41h-42v83h-166v167h166v208h-666v-458h-42c0 0-42 0-42 41v542c0 0 0 42 42 42h750c0 0 42 0 42-42z m-292-42c0 23-19 42-42 42s-41-19-41-42 18-41 41-41 42 18 42 41z m125 0c0 23-19 42-42 42s-41-19-41-42 18-41 41-41 42 18 42 41z m125 0c0 23-19 42-42 42s-41-19-41-42 18-41 41-41 42 18 42 41z m-458-458h166v167h-166v-167z" horiz-adv-x="1000" />

<glyph glyph-name="authentication" unicode="&#xe80e;" d="M458 17c19 0 292 0 292 0 0-47-37-84-83-84h-209c-109 0-201 70-235 167h91c29-50 83-83 144-83z m42 750c-117 0-217-68-263-167h96c38 50 99 83 167 83s129-33 167-83h96c-46 99-146 167-263 167z m-263-167h-154v-500h140c-10 26-15 54-15 83v292c0 45 10 87 29 125z m55-125v-292c0-30 8-58 22-83h144c-45 0-83 37-83 83 0 0 0 223 0 292s56 125 125 125h-167c-26-35-41-78-41-125z m208 42c-23 0-42-19-42-42 0-33 0-292 0-292h167c46 0 83 38 83 84v208c0 47-15 90-41 125h-167c69 0 125-56 125-125 0-28 0-208 0-208h-83c0 0 0 185 0 208s-19 42-42 42z m263 83c19-38 29-80 29-125v-208c0-92-75-167-167-167h292v500h-154z" horiz-adv-x="1000" />

<glyph glyph-name="backup" unicode="&#xe80f;" d="M833 767h-666c-46 0-84-38-84-84v-666c0-46 38-84 84-84h666c46 0 84 38 84 84v666c0 46-38 84-84 84z m-416-750c-138 0-250 112-250 250 0 138 112 250 250 250 5 0 10 0 16-1-85-51-141-143-141-249 0-106 56-198 140-249-5-1-10-1-15-1z m416 416l-42-28c27-39 42-87 42-138 0-138-112-250-250-250-138 0-250 112-250 250 0 138 112 250 250 250 30 0 57-5 84-15v140c0 0 0 41 41 41s84 0 84 0 41 0 41-41 0-209 0-209z m-166 69v-27l-53-131c-9 4-20 6-31 6-45 0-83-37-83-83s38-84 83-84 84 38 84 84c0 17-5 33-14 46l138 92c-29 45-73 79-124 97z m-84-277c-23 0-41 19-41 42s18 41 41 41c6 0 11-1 16-3l-16-38 35 23c5-7 7-15 7-23 0-23-19-42-42-42z" horiz-adv-x="1000" />

<glyph glyph-name="black_list" unicode="&#xe810;" d="M750 767h-500c-46 0-83-38-83-84v-666c0-46 37-84 83-84h500c46 0 83 38 83 84v666c0 46-37 84-83 84z m-417-334h-83v84h83v-84z m0 167h-83v83h83v-83z m322-512l-60-59-95 95-95-95-60 59 96 95-96 96 60 59 95-95 95 95 60-59-96-96 96-95z m95 345h-333v84h333v-84z m0 167h-333v83h333v-83z" horiz-adv-x="1000" />

<glyph glyph-name="block_all" unicode="&#xe811;" d="M875 767h-750c-42 0-42-42-42-42v-125h834v125c0 42-42 42-42 42z m-292-125c-23 0-41 18-41 41s18 42 41 42 42-19 42-42-19-41-42-41z m125 0c-23 0-41 18-41 41s18 42 41 42 42-19 42-42-19-41-42-41z m125 0c-23 0-41 18-41 41s18 42 41 42 42-19 42-42-19-41-42-41z m42-125h-750c-42 0-42-42-42-42v-500c0-42 42-42 42-42h750c42 0 42 42 42 42v500c0 42-42 42-42 42z m-220-471l-60-59-95 96-95-96-60 59 96 96-96 95 60 59 95-95 95 95 60-59-96-95 96-96z m178 429c23 0 42-19 42-42s-19-41-42-41-41 18-41 41 18 42 41 42z m-125 0c23 0 42-19 42-42s-19-41-42-41-41 18-41 41 18 42 41 42z m-125 0c23 0 42-19 42-42s-19-41-42-41-41 18-41 41 18 42 41 42z" horiz-adv-x="1000" />

<glyph glyph-name="cache" unicode="&#xe812;" d="M83 767v-750h84v-84h666v84h84v750h-834z m292-750h-83v166h83v-166z m167 0h-84v166h84v-166z m166 0h-83v166h83v-166z m125 500h-83v-84h83v-166h-291v83h-84v-83h-291v166h83v84h-83v166h291v-83h84v83h291v-166z" horiz-adv-x="1000" />

<glyph glyph-name="clean" unicode="&#xe813;" d="M750 350v-83h-500v83c0 83 83 83 83 83h125c0 0-83 167-83 250 0 125 125 125 125 125s125 0 125-125c0-83-83-250-83-250h125c0 0 83 0 83-83z m53-292c-28 15-53 37-53 84v41h-500v-187c0-63 63-63 63-63h500c0 0 62 0 62 63 0 34-38 43-72 62z" horiz-adv-x="1000" />

<glyph glyph-name="clear_log" unicode="&#xe814;" d="M689 392h-85c-8-46-19-96-31-146-2-7-4-14-6-21h86c15 57 27 115 36 167z m-64-250h-250c-42 0-42-42-42-42 0-42 42-167 167-167s167 125 167 167-42 42-42 42z m-204 83c-2 8-4 15-6 21-14 53-25 104-31 146h-84c7-49 19-107 34-167h87z m121 538v-87c48-17 83-63 83-118 0-16-2-45-7-83h83c5 35 7 65 7 83 0 101-71 185-166 205z m-250-288h83c0 80 15 174 83 200v88c-95-19-166-105-166-288z" horiz-adv-x="1000" />

<glyph glyph-name="command_line_interface" unicode="&#xe815;" d="M500 433h-42l84-208h41l-83 208z m125-166v-42h208v42h-208z m-250 41v-41h42v41h-42z m0 84v-42h42v42h-42z m-125-125c-42 0-42 41-42 41v42c0 0 0 42 42 42s42-42 42-42h41c0 83-83 83-83 83s-83 0-83-83v-42c0-83 83-83 83-83s83 0 83 83h-41c0 0 0-41-42-41z m625 375h-750c-46 0-83-38-83-84v-458c0-46 37-83 83-83h750c46 0 83 37 83 83v458c0 46-37 84-83 84z m0-542h-750v458h750v-458z" horiz-adv-x="1000" />

<glyph glyph-name="critical_zones" unicode="&#xe816;" d="M333 767v-84h-166v-166h-84v250h250z m0-834v84h-166v166h-84v-250h250z m334 834v-84h166v-166h84v250h-250z m0-834v84h166v166h84v-250h-250z m-209 584h84v-167h-84v167z m0-250h84v-84h-84v84z" horiz-adv-x="1000" />

<glyph glyph-name="decrypt" unicode="&#xe817;" d="M750 433h-42v125c0 72-43 209-208 209s-208-137-208-209h83c0 22 8 125 125 125 118 0 125-104 125-125v-125h-375c-83 0-83-83-83-83v-333c0 0 0-84 83-84h500c0 0 83 0 83 84v333c0 0 0 83-83 83z m-250-333c-46 0-83 38-83 83s37 84 83 84c46 0 83-38 83-84s-37-83-83-83z" horiz-adv-x="1000" />

<glyph glyph-name="decrypt2" unicode="&#xe818;" d="M958 267v166h-83v167h-167v-167h-181c-34 97-127 167-235 167-138 0-250-112-250-250 0-138 112-250 250-250 108 0 201 70 235 167h431z m-583 83c0-46-37-83-83-83s-84 37-84 83c0 46 38 83 84 83s83-37 83-83z" horiz-adv-x="1000" />

<glyph glyph-name="desinfect" unicode="&#xe819;" d="M500 767l-375-209v-416l375-209 375 209v416l-375 209z m-83-601l-155 154 59 60 96-96 262 262 59-59-321-321z" horiz-adv-x="1000" />

<glyph glyph-name="disruption" unicode="&#xe81a;" d="M458 221v258 79h-166c-115 0-209-93-209-208s94-208 209-208h166v79z m-166 0c-72 0-129 58-129 129s57 129 129 129h83v-258h-83z m416 337h-166v-79-258-79h166c115 0 209 93 209 208s-94 208-209 208z m0-337h-83v258h83c72 0 130-58 130-129s-58-129-130-129z m-208 337l-83 125h166l-83-125z m0-416l83-125h-166l83 125z" horiz-adv-x="1000" />

<glyph glyph-name="dynamic_link_library" unicode="&#xe81b;" d="M333 288c0 10 3 62 63 62h62v-42h-41v-41h41v-42h-62c-11 0-63 3-63 63z m375 0c0 18-7 62-62 62h-63v-42h42v-41h-42v-42h63c18 0 62 7 62 63z m-458 312h583v-583c0-46-37-84-83-84h-500c-46 0-83 38-83 84v666c0 46 37 84 83 84h500c46 0 83-38 83-84h-583v-83z m42-312c0-105 104-105 104-105h104v84h42v-84h104c0 0 104 0 104 105 0 0 0 104-104 104h-104v-84h-42v84h-104c-104 0-104-104-104-104z" horiz-adv-x="1000" />

<glyph glyph-name="encapsulate" unicode="&#xe81c;" d="M500 808c-250 0-250-250-250-250v-416c0-250 250-250 250-250s250 0 250 250v416c0 0 0 250-250 250z m167-666c0-158-138-167-167-167-39 1-167 15-167 167v416c1 39 15 167 167 167 159 0 167-139 167-167v-416z m-84 416v-416c0-23 0-83-82-84-84 2-84 57-84 84v416c1 84 58 84 83 84 23 0 83 0 83-84z m-500-375v334l167-167-167-167z m834 0v334l-167-167 167-167z" horiz-adv-x="1000" />

<glyph glyph-name="encrypt" unicode="&#xe81d;" d="M750 433h-42v84c0 72-43 208-208 208s-208-136-208-208v-84h-42c-83 0-83-83-83-83v-333c0 0 0-84 83-84h500c0 0 83 0 83 84v333c0 0 0 83-83 83z m-132-309l-59-58-59 58-59-58-59 58 59 59-59 59 59 59 59-59 59 59 59-59-59-59 59-59z m7 309h-250v84c0 20 7 125 125 125s125-105 125-125v-84z" horiz-adv-x="1000" />

<glyph glyph-name="examine" unicode="&#xe81e;" d="M500 433h83v-83h-83v-83h-83v83h-84v83h84v84h83v-84z m446-470l-59-59-195 195c-64-51-145-82-234-82-207 0-375 168-375 375s168 375 375 375 375-168 375-375c0-89-30-170-82-234l195-195z m-279 387v83h80c-18 128-119 229-247 247v-80h-83v80c-128-18-229-119-247-247h80v-83h-80c18-128 119-229 247-247v80h83v-80c128 18 229 119 247 247h-80z" horiz-adv-x="1000" />

<glyph glyph-name="exclude" unicode="&#xe81f;" d="M500 767c-230 0-417-187-417-417 0-230 187-417 417-417 230 0 417 187 417 417 0 230-187 417-417 417z m-125-644l-102 102 352 352 101-102-351-352z" horiz-adv-x="1000" />

<glyph glyph-name="file_scanner1" unicode="&#xe820;" d="M917 517v-417c0 0 0-83-84-83h-24l-166 166c15 24 24 53 24 84 0 92-75 166-167 166s-167-74-167-166 75-167 167-167c30 0 60 8 84 23l107-106h-524c0 0-84 0-84 83 0 0 1 275 1 417 0 49 0 83 0 83-1 0-1 83 83 83h250l83-83h333c0 0 84 0 84-83z m-417-167c-46 0-83-37-83-83s37-84 83-84c46 0 83 38 83 84s-37 83-83 83z" horiz-adv-x="1000" />

<glyph glyph-name="file_scanner2" unicode="&#xe821;" d="M250 683h583v-83h-583v83z m0-83h583v-524l-148 148c15 25 23 54 23 84 0 92-74 167-166 167s-167-75-167-167 75-166 167-166c30 0 59 8 84 23l194-194c-2-2-3-4-5-6-10-13-24-23-40-28-2-1-5-1-7-2-6-1-12-2-18-2h-500c-46 0-83 38-83 84v666c0 46 37 84 83 84h500c46 0 83-38 83-84h-583v-83z m292-208c-46 0-84-38-84-84 0-45 38-83 84-83 46 0 83 38 83 83 0 46-37 84-83 84z" horiz-adv-x="1000" />

<glyph glyph-name="filtering_router" unicode="&#xe822;" d="M831 392c-19 151-138 270-289 289v86h-84v-86c-150-19-270-138-289-289h-86v-84h86c19-150 139-270 289-289v-86h84v86c151 19 270 139 289 289h86v84h-86z m-123 0l-166-167v-83h-84v83l-166 167v83h416v-83z" horiz-adv-x="1000" />

<glyph glyph-name="firewall" unicode="&#xe823;" d="M500 808l-375-166v-250c0-60 11-119 30-174 56-158 185-288 345-326 215 52 375 268 375 500v250l-375 166z m292-358c-135 135-250 106-250 106s208-292 41-375c-32-16-59-20-83-15-98 19-125 182-125 182-61-31-107-66-141-102l0 0c-17 48-26 97-26 146v196l292 129 292-129v-138z" horiz-adv-x="1000" />

<glyph glyph-name="fix" unicode="&#xe824;" d="M820 563l79 80c0 0 54-107-26-186-80-80-187-27-187-27l-266-266c0 0 53-107-26-187-80-80-187-26-187-26l80 80v106h-106l-80-80c0 0-53 107 26 187s187 26 187 26l266 266c0 0-53 107 27 187 79 80 186 26 186 26l-80-79v-107h107z" horiz-adv-x="1000" />

<glyph glyph-name="flood" unicode="&#xe825;" d="M917 600l-417-208-417 208c0 0 0 83 84 83h666c84 0 84-83 84-83z m-417-292l-417 209v-334c84 0 84-83 209-83s125 83 208 83 83-83 208-83 125 83 209 83v334l-417-209z m417-208c-84 0-84-83-209-83s-125 83-208 83-83-83-208-83-125 83-209 83c-38 0-59-18-83-37v-84c24 19 45 38 83 38 84 0 84-84 209-84s125 84 208 84 83-84 208-84 125 84 209 84c38 0 59-19 83-38v84c-24 19-45 37-83 37z" horiz-adv-x="1000" />

<glyph glyph-name="hijack" unicode="&#xe826;" d="M833 392v-84h-83c0 42-42 42-42 42h-416c-42 0-42-41-42-42h-83v84c0 0-84 0-84-84v-166c0-84 84-84 84-84 18 0 51 16 83 33 0 0 0 0 0 0v-33c0-83 83-83 83-83h334c0 0 83 0 83 83v24c0 0 0 0 0 0 25-14 55-24 83-24 0 0 84 0 84 84v166c0 84-84 84-84 84z m-583-125v-42h-83l83 42z m-83-125l83 41v-41h-83z m500-83c-1-1-2-1-2-1h-332v209h334v-208z m83 83v41l83-41h-83z m0 83v42l83-42h-83z m-542 208h584c0 0 41 0 41-41v208c0 0 0 125-125 125h-416c-125 0-125-125-125-125v-208c0 0 0 41 41 41z m542 167c0 0 0-125-83-125s-125 42-125 42l208 83z m-292-83c0 0-41-42-125-42s-83 125-83 125l208-83z" horiz-adv-x="1000" />

<glyph glyph-name="input_validation" unicode="&#xe827;" d="M875 767h-792c-83 0-83-84-83-84v-291c0-84 83-84 83-84h42v-375h708v375h42c83 0 83 84 83 84v291c0 84-83 84-83 84z m-458-767l-155 154 59 59 96-96 220 221 59-59-279-279z m458 433c0 0 0-41-42-41h-708c0 0-42 0-42 41v209c0 0 0 41 42 41h708c0 0 42 0 42-41v-209z m-479 167c-35 0-63-28-63-62s28-63 63-63 62 28 62 63-28 62-62 62z m-167 0c-34 0-62-28-62-62s28-63 62-63 63 28 63 63-28 62-63 62z m334 0c-35 0-63-28-63-62s28-63 63-63 62 28 62 63-28 62-62 62z m166 0c-34 0-62-28-62-62s28-63 62-63 63 28 63 63-28 62-63 62z" horiz-adv-x="1000" />

<glyph glyph-name="internet_connection" unicode="&#xe828;" d="M1000 308c0-115-93-208-208-208h-187l-1 1v52c51 33 84 92 84 155 0 104-85 188-188 188-103 0-187-84-187-188 0-63 32-122 83-155v-52l-1-1h-145c-138 0-250 112-250 250 0 129 98 235 223 248 52 100 157 169 277 169 152 0 278-108 306-252 109-7 194-97 194-207z m-458-233v116c48 17 83 63 83 117 0 70-56 125-125 125s-125-55-125-125c0-54 35-100 83-117v-116l-113-112 60-59 95 96 95-96 60 59-113 112z" horiz-adv-x="1000" />

<glyph glyph-name="intrusion_detection" unicode="&#xe829;" d="M792 517c-42 166-167 166-167 166h-250c0 0-125 0-167-166-40-162-41-334-41-334h666c0 0-1 172-41 334z m-250-250h-84v83h84v-83z m0 166h-84v167h84v-167z m375-333v-83h-834v83h834z" horiz-adv-x="1000" />

<glyph glyph-name="intrusion_detection2" unicode="&#xe82a;" d="M542 683c92 0 166-74 166-166s-74-167-166-167-167 75-167 167 75 166 167 166z m0-416c-125 0-334-42-334-167v-83h667v83c0 125-208 167-333 167z m-334 416h-83v-166h83v166z m0-250h-83v-83h83v83z m0 250h-83v-166h83v166z m0-250h-83v-83h83v83z m0 250h-83v-166h83v166z m0-250h-83v-83h83v83z m0 250h-83v-166h83v166z m0-250h-83v-83h83v83z" horiz-adv-x="1000" />

<glyph glyph-name="kill_process" unicode="&#xe82b;" d="M655 445l-96-95 96-95-60-60-95 96-95-96-60 60 96 95-96 95 60 60 95-96 95 96 60-60z m262 238v-666c0-46-38-84-84-84h-666c-46 0-84 38-84 84v666c0 46 38 84 84 84h666c46 0 84-38 84-84z m-169-300l70 55c6 5 8 14 4 21l-67 115c-4 8-12 10-20 8l-83-34c-17 14-36 25-56 33l-13 88c-1 9-8 14-16 14h-134c-8 0-15-5-16-14l-13-88c-20-8-39-20-56-33l-83 34c-7 3-16 0-20-8l-67-115c-4-7-2-16 4-21l71-55c-2-11-3-22-3-33s1-22 3-32l-71-55c-6-5-8-15-4-22l67-115c4-8 13-10 20-8l83 34c17-14 36-24 56-33l13-88c1-8 8-14 16-14h134c8 0 15 6 16 14l13 88c20 9 39 20 56 33l83-34c8-3 16 0 21 8l66 115c4 7 2 17-4 22l-70 55c1 10 2 21 2 32s-1 22-2 33z" horiz-adv-x="1000" />

<glyph glyph-name="kill_process2" unicode="&#xe82c;" d="M810 309c1 14 3 27 3 41s-2 28-3 41l88 69c7 6 10 17 5 26l-84 144c-5 10-16 13-25 10l-104-42c-22 17-45 30-70 41l-16 110c-1 10-10 18-21 18h-166c-11 0-19-8-21-18l-16-110c-25-11-48-25-70-41l-104 42c-9 3-20 0-25-10l-83-144c-6-9-3-20 5-26l87-69c-1-13-2-27-2-41s1-27 2-41l-87-69c-8-6-10-17-5-26l83-144c5-10 16-13 25-10l104 42c22-17 45-30 70-41l16-110c2-10 10-18 21-18h166c11 0 20 8 21 18l16 110c25 11 48 25 70 41l104-42c9-3 20 0 25 10l83 144c5 9 3 20-5 27l-87 68z m-155-54l-60-60-95 96-95-96-60 60 96 95-96 95 60 60 95-96 95 96 60-60-96-95 96-95z" horiz-adv-x="1000" />

<glyph glyph-name="knowledge_base" unicode="&#xe82d;" d="M250 683h583c0 84-83 84-83 84h-500c-46 0-83-38-83-84v-666c0-46 37-84 83-84h500c46 0 83 38 83 84v583h-583v83z m292-166c115 0 208-38 208-84 0-15-10-29-28-41-36-25-103-42-180-42-77 0-144 17-181 42-18 12-28 26-28 41 0 46 94 84 209 84z m-209-167c0-15 10-29 28-42 37-25 104-41 181-41 77 0 144 16 180 41 18 13 28 27 28 42v-83c0-15-10-29-28-42-36-25-103-42-180-42-77 0-144 17-181 42-18 13-28 27-28 42v83z m0-167c0-45 94-83 209-83s208 38 208 83v-83c0-46-93-83-208-83s-209 37-209 83v83z" horiz-adv-x="1000" />

<glyph glyph-name="mail_attachment" unicode="&#xe82e;" d="M792 600v-417c0-100-61-291-292-291s-292 191-292 291v417c0 72 44 208 209 208s208-136 208-208v-417c0-50-33-125-125-125s-125 75-125 125v417h83v-417c1-18 8-41 42-41 34 0 41 23 42 42v416c-1 21-8 125-125 125-118 0-125-104-125-125v-417c0-21 7-208 208-208 206 0 208 200 208 208v417h84z" horiz-adv-x="1000" />

<glyph glyph-name="mail_obfuscator" unicode="&#xe82f;" d="M917 475v83h-157c-61 77-155 125-260 125-105 0-199-48-260-125h-157v-83h108c-10-26-18-54-21-83h-87v-84h87c3-29 11-57 21-83h-108v-83h157c61-76 155-125 260-125 59 0 114 15 161 42l-40 73c-36-20-77-32-121-32-51 0-98 15-138 42h555v83h-125c18 20 32 48 38 83h87v84h-86c-4 29-11 57-22 83h108z m-417 125c51 0 99-15 138-42h-276c40 27 87 42 138 42z m62-318c-16-7-37-15-62-15-31 0-57 17-72 41h129c1-9 2-18 5-26z m-6 110h-128c15 25 41 41 72 41 22 0 41-6 56-12v-29z m-272 83h107c-25-22-43-50-52-83h-85c5 30 15 58 30 83z m0-250c-15 25-25 53-30 83h85c9-33 27-61 52-83h-107z m405 42c-25 0-43 18-48 41h104c-10-34-32-41-56-41z m57 125h-107v69c0 0-5 6-15 14h92c15-25 25-53 30-83z" horiz-adv-x="1000" />

<glyph glyph-name="malware" unicode="&#xe830;" d="M875 767h-750c-83 0-83-84-83-84v-500c0-83 83-83 83-83h292l-84-125v-42h334v42l-84 125h292c83 0 83 83 83 83v500c0 0 0 84-83 84z m0-500h-750v416h750v-416z m-417 208c0 0 0-83-125-83s-125 166-125 166l250-83z m84 0c0 0 0-83 125-83s125 166 125 166l-250-83z" horiz-adv-x="1000" />

<glyph glyph-name="monitoring" unicode="&#xe831;" d="M751 158c52 64 82 145 82 234 0 207-168 375-375 375s-375-168-375-375 168-375 375-375c89 0 170 31 234 82l195-195 59 59-195 195z m-293-58c-147 0-268 108-288 250h80c14 0 27 7 35 19l40 61 95-221c6-14 19-24 33-25 2-1 4-1 5-1 13 0 26 7 34 17l81 109c4-1 7-1 10-1 46 0 84 38 84 84s-38 83-84 83-83-37-83-83c0-12 3-23 7-33 0 0 0 0 0 0l-39-51-96 225c-7 14-19 24-35 25-15 2-30-5-38-18l-71-107h-58c20 142 141 250 288 250 162 0 292-130 292-291s-130-292-292-292z" horiz-adv-x="1000" />

<glyph glyph-name="packet" unicode="&#xe832;" d="M833 642h-666c-84 0-84-84-84-84v-416c0-84 84-84 84-84h666c84 0 84 84 84 84v416c0 84-84 84-84 84z m-1-84c0 0 1 0 1 0v-125h-208v125h207z m1-291h-291v-125h-84v208h-291v83h291v125h84v-208h291v-83z" horiz-adv-x="1000" />

<glyph glyph-name="packet_filter" unicode="&#xe833;" d="M250 767c-83 0-83-84-83-84s0-54 0-125h291v209h-208z m-83-292v-167h291v167h-291z m583 292c0 0-56 0-208 0v-292h291v208c0 84-83 84-83 84z m0-209h-125v125h125v-125z m-208-166v-84h291c0 0 0 13 0 84h-291z m375-84v-83l-375-208v-125h-84v125l-375 208v83h834z" horiz-adv-x="1000" />

<glyph glyph-name="password_generator" unicode="&#xe834;" d="M875 558h-792c-83 0-83-83-83-83v-292c0-83 83-83 83-83h792c83 0 83 83 83 83v292c0 83-83 83-83 83z m0-333c0 0 0-42-42-42h-750l167 146-167 146h750c0 0 42 0 42-42v-208z m-83 83v-41h-125v41h125z m-292 0v-41h125v41h-125z m-167 0v-41h125v41h-125z" horiz-adv-x="1000" />

<glyph glyph-name="phishing" unicode="&#xe835;" d="M750 433v-250c0-198-163-250-250-250s-250 52-250 250c0 218 206 550 215 564l70-44c-2-3-202-326-202-520 0-164 160-166 167-166 17 0 167 6 167 166v42h-84l167 208z" horiz-adv-x="1000" />

<glyph glyph-name="popup" unicode="&#xe836;" d="M875 725h-750c-42 0-42-42-42-42v-541c0-42 42-42 42-42h125v-42c0-45 38-83 83-83h334c46 0 83 38 83 83v42h125c42 0 42 42 42 42v541c0 42-42 42-42 42z m-167-42c23 0 42-18 42-41s-19-42-42-42-41 19-41 42 18 41 41 41z m-125 0c23 0 42-18 42-41s-19-42-42-42-41 19-41 42 18 41 41 41z m250-500h-83v209c0 46-37 83-83 83h-334c-45 0-83-37-83-83v-209h-83v375h666v-375z m0 417c-23 0-41 19-41 42s18 41 41 41 42-18 42-41-19-42-42-42z" horiz-adv-x="1000" />

<glyph glyph-name="popup_blocker" unicode="&#xe837;" d="M875 725h-750c-42 0-42-42-42-42v-541c0-42 42-42 42-42h125v-42c0-45 38-83 83-83h334c46 0 83 38 83 83v42h125c42 0 42 42 42 42v541c0 42-42 42-42 42z m-167-42c23 0 42-18 42-41s-19-42-42-42-41 19-41 42 18 41 41 41z m-125 0c23 0 42-18 42-41s-19-42-42-42-41 19-41 42 18 41 41 41z m72-553l-60-60-95 96-95-96-60 60 96 95-96 95 60 60 95-96 95 96 60-60-96-95 96-95z m178 53h-83v209c0 46-37 83-83 83h-334c-45 0-83-37-83-83v-209h-83v375h666v-375z m0 417c-23 0-41 19-41 42s18 41 41 41 42-18 42-41-19-42-42-42z" horiz-adv-x="1000" />

<glyph glyph-name="protection" unicode="&#xe838;" d="M500 808l-375-166v-250c0-232 160-448 375-500 215 52 375 268 375 500v250l-375 166z m292-416c0-14-1-28-2-42-17-172-135-324-290-372-155 48-273 200-290 372-1 14-2 28-2 42v196l292 129 292-129v-196z m-292 125c-167 0-250-167-250-167s83-167 250-167 250 167 250 167-83 167-250 167z m0-250c-46 0-83 37-83 83 0 46 37 83 83 83 46 0 83-37 83-83 0-46-37-83-83-83z" horiz-adv-x="1000" />

<glyph glyph-name="quarentine2" unicode="&#xe839;" d="M750 475v-250l-250-167-250 167v250l250 167 250-167z m-83 292v-84h166v-166h84v250h-250z m0-834v84h166v166h84v-250h-250z m-334 0v84h-166v166h-84v-250h250z m0 834v-84h-166v-166h-84v250h250z" horiz-adv-x="1000" />

<glyph glyph-name="running_process" unicode="&#xe83a;" d="M542 392h125v-84h-125v-125h-84v125h-125v84h125v125h84v-125z m375 291v-666c0-46-38-84-84-84h-666c-46 0-84 38-84 84v666c0 46 38 84 84 84h666c46 0 84-38 84-84z m-169-300l70 55c6 5 8 14 4 21l-67 115c-4 8-12 10-20 8l-83-34c-17 14-36 25-56 33l-13 88c-1 9-8 14-16 14h-134c-8 0-15-5-16-14l-13-88c-20-8-39-20-56-33l-83 34c-7 3-16 0-20-8l-67-115c-4-7-2-16 4-21l71-55c-2-11-3-22-3-33s1-22 3-32l-71-55c-6-5-8-15-4-22l67-115c4-8 13-10 20-8l83 34c17-14 36-24 56-33l13-88c1-8 8-14 16-14h134c8 0 15 6 16 14l13 88c20 9 39 20 56 33l83-34c8-3 16 0 21 8l66 115c4 7 2 17-4 22l-70 55c1 10 2 21 2 32s-1 22-2 33z" horiz-adv-x="1000" />

<glyph glyph-name="running_process2" unicode="&#xe83b;" d="M810 309c1 14 3 27 3 41s-2 28-3 41l88 69c7 6 10 17 5 26l-84 144c-5 10-16 13-25 10l-104-42c-22 17-45 30-70 41l-16 110c-1 10-10 18-21 18h-166c-11 0-19-8-21-18l-16-110c-25-11-48-25-70-41l-104 42c-9 3-20 0-25-10l-83-144c-6-9-3-20 5-26l87-69c-1-13-2-27-2-41s1-27 2-41l-87-69c-8-6-10-17-5-26l83-144c5-10 16-13 25-10l104 42c22-17 45-30 70-41l16-110c2-10 10-18 21-18h166c11 0 20 8 21 18l16 110c25 11 48 25 70 41l104-42c9-3 20 0 25 10l83 144c5 9 3 20-5 27l-87 68z m-435-126v334l292-167-292-167z" horiz-adv-x="1000" />

<glyph glyph-name="scheduled_scan" unicode="&#xe83c;" d="M500 433h125v-83h-208v250h83v-167z m251-275c52 64 82 145 82 234 0 207-168 375-375 375s-375-168-375-375 168-375 375-375c89 0 170 31 234 82l195-195 59 59-195 195z m-293-58c-161 0-291 130-291 292s130 291 291 291 292-130 292-291-130-292-292-292z" horiz-adv-x="1000" />

<glyph glyph-name="security" unicode="&#xe83d;" d="M500 808l-375-166v-250c0-232 160-448 375-500 215 52 375 268 375 500v250l-375 166z m0-830v372h-290c-1 14-2 28-2 42v196l292 129v-367h290c-17-172-135-324-290-372z" horiz-adv-x="1000" />

<glyph glyph-name="security_checkmark" unicode="&#xe83e;" d="M500 808l-375-166v-250c0-232 160-448 375-500 215 52 375 268 375 500v250l-375 166z m-83-642l-155 154 59 60 96-96 262 262 59-59-321-321z" horiz-adv-x="1000" />

<glyph glyph-name="security_cross" unicode="&#xe83f;" d="M500 808l-375-166v-250c0-232 160-448 375-500 215 52 375 268 375 500v250l-375 166z m196-595l-59-59-137 137-137-137-59 59 137 137-137 137 59 59 137-137 137 137 59-59-137-137 137-137z" horiz-adv-x="1000" />

<glyph glyph-name="security_levels" unicode="&#xe840;" d="M500 808l-375-166v-250c0-232 160-448 375-500 215 52 375 268 375 500v250l-375 166z m239-625h-478c-14 27-26 55-34 84h546c-8-29-20-57-34-84z m53 250h-584v84h584v-84z" horiz-adv-x="1000" />

<glyph glyph-name="security_levels_low" unicode="&#xe841;" d="M500 808l-375-166v-250c0-232 160-448 375-500 215 52 375 268 375 500v250l-375 166z m292-416c0-74-19-146-53-209h-478c-33 63-53 135-53 209v196l292 129 292-129v-196z" horiz-adv-x="1000" />

<glyph glyph-name="security_levels_medium" unicode="&#xe842;" d="M500 808l-375-166v-250c0-232 160-448 375-500 215 52 375 268 375 500v250l-375 166z m239-625h-478c-14 27-26 55-34 84h546c-8-29-20-57-34-84z m53 250h-584v155l292 129 292-129v-155z" horiz-adv-x="1000" />

<glyph glyph-name="security_policy" unicode="&#xe843;" d="M375 558h250v-416l-125 125-125-125v416z m125 250l-375-166v-250c0-232 160-448 375-500 215 52 375 268 375 500v250l-375 166z m292-416c0-14-1-28-2-42-17-172-135-324-290-372-155 48-273 200-290 372-1 14-2 28-2 42v196l292 129 292-129v-196z" horiz-adv-x="1000" />

<glyph glyph-name="security_round" unicode="&#xe844;" d="M500 808l-375-166v-250c0-232 160-448 375-500 215 52 375 268 375 500v250l-375 166z m292-416c0-14-1-28-2-42-17-172-135-324-290-372-155 48-273 200-290 372-1 14-2 28-2 42v196l292 129 292-129v-196z m-292 166c-115 0-208-93-208-208s93-208 208-208 208 93 208 208-93 208-208 208z m0-333c-69 0-125 56-125 125 0 69 56 125 125 125 69 0 125-56 125-125 0-69-56-125-125-125z" horiz-adv-x="1000" />

<glyph glyph-name="security_test" unicode="&#xe845;" d="M500 808l-375-166v-250c0-232 160-448 375-500 215 52 375 268 375 500v250l-375 166z m292-416c0-14-1-28-2-42-7-62-26-122-55-175l-133 133c15 24 23 53 23 84 0 92-75 166-167 166s-166-74-166-166 74-167 166-167c31 0 60 8 85 23l143-143c-49-59-113-105-186-127-155 48-273 200-290 372-1 14-2 28-2 42v196l292 129 292-129v-196z m-250 0c0-46-38-84-84-84s-83 38-83 84 38 83 83 83 84-37 84-83z" horiz-adv-x="1000" />

<glyph glyph-name="session" unicode="&#xe846;" d="M500 683c92 0 167-74 167-166s-75-167-167-167-167 75-167 167 75 166 167 166z m0-416c-125 0-333-42-333-167v-83h666v83c0 125-208 167-333 167z" horiz-adv-x="1000" />

<glyph glyph-name="session_female" unicode="&#xe847;" d="M500 683c92 0 167-74 167-166s-75-167-167-167-167 75-167 167 75 166 167 166z m0-416c-125 0-250-42-250-167v-83h500v83c0 125-125 167-250 167z" horiz-adv-x="1000" />

<glyph glyph-name="spam_filter" unicode="&#xe848;" d="M917 267l-375-250v-125h-84v125l-375 250h834z m-84 458l-333-208-333 208c0 0 0 83 83 83h500c0 0 83 0 83-83z m-333-292l-333 209v-292h666v292l-333-209z" horiz-adv-x="1000" />

<glyph glyph-name="spoofing" unicode="&#xe849;" d="M667 683h-500c-84 0-84-83-84-83l130-81c23 34 61 60 120 60h384l33 21c0 83-83 83-83 83z m-584-166v-250c0-84 84-84 84-84h21v269l-105 65z m834-84l-334-208-333 208c0 0 0 84 83 84h500c0 0 84 0 84-84z m-334-291l-333 208v-250c0-83 83-83 83-83h500c84 0 84 83 84 83v250l-334-208z" horiz-adv-x="1000" />

<glyph glyph-name="spoofing2" unicode="&#xe84a;" d="M500 267c-167 0-417-84-417-209v-125h834v125c0 125-250 209-417 209z m333-250h-333v166c162 0 333-81 333-125v-41z m-333 750c-115 0-208-94-208-209s93-208 208-208 208 93 208 208-93 209-208 209z m0-334v250c69 0 125-56 125-125s-56-125-125-125z" horiz-adv-x="1000" />

<glyph glyph-name="surveillance_camera" unicode="&#xe84b;" d="M500 142c-46 0-83 37-83 83s37 83 83 83c46 0 83-37 83-83s-37-83-83-83z m-375 500v-209c0 0 0-83 83-83 0-244 204-284 271-290-82 10-146 80-146 165 0 92 75 167 167 167s167-75 167-167c0-85-64-155-146-165 67 6 271 46 271 290 0 0 83 0 83 83v209h-750z" horiz-adv-x="1000" />

<glyph glyph-name="terminate_process" unicode="&#xe84c;" d="M575 484l59-59-209-209-59 59 209 209z m342 199v-666c0 0 0-84-84-84h-666c-46 0-84 38-84 84v666c0 0 0 84 84 84h666c84 0 84-84 84-84z m-169-300l70 55c6 5 8 14 4 21l-67 115c-4 8-12 10-20 8l-83-34c-17 14-36 25-56 33l-13 88c-1 9-8 14-16 14h-134c-8 0-15-5-16-14l-13-88c-20-8-39-20-56-33l-83 34c-7 3-16 0-20-8l-67-115c-4-7-2-16 4-21l71-55c-2-11-3-22-3-33s1-22 3-32l-71-55c-6-5-8-15-4-22l67-115c4-8 13-10 20-8l83 34c17-14 36-24 56-33l13-88c1-8 8-14 16-14h134c8 0 15 6 16 14l13 88c20 9 39 20 56 33l83-34c8-3 16 0 21 8l66 115c4 7 2 17-4 22l-70 55c1 10 2 21 2 32s-1 22-2 33z" horiz-adv-x="1000" />

<glyph glyph-name="terminate_process2" unicode="&#xe84d;" d="M810 309c1 14 3 27 3 41s-2 28-3 41l88 69c7 6 10 17 5 26l-84 144c-5 10-16 13-25 10l-104-42c-22 17-45 30-70 41l-16 110c-1 10-10 18-21 18h-166c-11 0-19-8-21-18l-16-110c-25-11-48-25-70-41l-104 42c-9 3-20 0-25-10l-83-144c-6-9-3-20 5-26l87-69c-1-13-2-27-2-41s1-27 2-41l-87-69c-8-6-10-17-5-26l83-144c5-10 16-13 25-10l104 42c22-17 45-30 70-41l16-110c2-10 10-18 21-18h166c11 0 20 8 21 18l16 110c25 11 48 25 70 41l104-42c9-3 20 0 25 10l83 144c5 9 3 20-5 27l-87 68z m-405-114l-60 60 250 250 60-60-250-250z" horiz-adv-x="1000" />

<glyph glyph-name="traffic_control2" unicode="&#xe84e;" d="M571 546l154-154-154-155-59 59 54 54h-216l55-54-60-59-154 155 154 154 60-59-55-54h216l-54 54 59 59z m180-388c52 64 82 145 82 234 0 207-168 375-375 375s-375-168-375-375 168-375 375-375c89 0 170 31 234 82l195-195 59 59-195 195z m-293-58c-161 0-291 130-291 292s130 291 291 291 292-130 292-291-130-292-292-292z" horiz-adv-x="1000" />

<glyph glyph-name="update" unicode="&#xe84f;" d="M917 350c0 207-168 375-375 375-86 0-165-29-229-77l60-60c47 33 106 54 169 54 161 0 291-131 291-292s-130-292-291-292-292 131-292 292h125l-167 167-166-167h125c0-207 168-375 375-375 207 0 375 168 375 375z" horiz-adv-x="1000" />

<glyph glyph-name="virus" unicode="&#xe850;" d="M500 767l-375-209v-416l375-209 375 209v416l-375 209z m292-576l-292-162-292 162v318l292 162 292-162v-318z m-84 269v-220l-208-116-208 116v220l208 116 208-116z" horiz-adv-x="1000" />

<glyph glyph-name="virus_update" unicode="&#xe851;" d="M500 767l-375-209v-416l375-209 375 209v416l-375 209z m0-667c-138 0-250 112-250 250h-83l125 125 125-125h-84c0-92 75-167 167-167s167 75 167 167-75 167-167 167c-37 0-71-12-99-33l-60 59c44 36 99 57 159 57 138 0 250-112 250-250 0-138-112-250-250-250z" horiz-adv-x="1000" />

<glyph glyph-name="vulnerability" unicode="&#xe852;" d="M500 808l-375-166v-250c0-232 160-448 375-500 215 52 375 268 375 500v250l-375 166z m292-416c0-14-1-28-2-42-17-172-135-324-290-372-155 48-273 200-290 372-1 14-2 28-2 42v196l84 37v-192h83v-208l167 292h-100l89 186 261-115v-196z" horiz-adv-x="1000" />

<glyph glyph-name="white_list" unicode="&#xe853;" d="M750 767h-500c-46 0-83-38-83-84v-666c0-46 37-84 83-84h500c46 0 83 38 83 84v666c0 46-37 84-83 84z m-500-84h83v-83h-83v83z m0-166h83v-84h-83v84z m208-500l-154 154 59 59 95-96 221 221 59-59-280-279z m292 416h-333v84h333v-84z m0 167h-333v83h333v-83z" horiz-adv-x="1000" />

<glyph glyph-name="worms" unicode="&#xe854;" d="M125 433c-23 0-42 19-42 42 0 67 45 167 167 167 79 0 83 69 83 83 0 23 19 42 42 42s42-19 42-42c0-67-45-167-167-167-79 0-83-69-83-83 0-23-19-42-42-42z m750 0c23 0 42 19 42 42 0 67-45 167-167 167-79 0-83 69-83 83 0 23-19 42-42 42s-42-19-42-42c0-67 45-167 167-167 79 0 83-69 83-83 0-23 19-42 42-42z m-750-166c-23 0-42-19-42-42 0-67 45-167 167-167 79 0 83-69 83-83 0-23 19-42 42-42s42 19 42 42c0 67-45 167-167 167-79 0-83 69-83 83 0 23-19 42-42 42z m708-42c0-14-4-83-83-83-122 0-167-100-167-167 0-23 19-42 42-42s42 19 42 42c0 14 4 83 83 83 122 0 167 100 167 167 0 23-19 42-42 42s-42-19-42-42z m-208-42c23 0 42 19 42 42 0 67-45 167-167 167-79 0-83 69-83 83 0 23-19 42-42 42s-42-19-42-42c0-67 45-167 167-167 79 0 83-69 83-83 0-23 19-42 42-42z" horiz-adv-x="1000" />
</font>
</defs>
</svg>
