<?xml version="1.0" standalone="no"?>
<!DOCTYPE svg PUBLIC "-//W3C//DTD SVG 1.1//EN" "http://www.w3.org/Graphics/SVG/1.1/DTD/svg11.dtd">
<svg xmlns="http://www.w3.org/2000/svg">
<metadata>iconshock</metadata>
<defs>
<font id="materialblack_project_management" horiz-adv-x="1000" >
<font-face font-family="materialblack_project_management" font-weight="400" font-stretch="normal" units-per-em="1000" ascent="850" descent="-150" />
<missing-glyph horiz-adv-x="1000" />
<glyph glyph-name="acceleration_graphic" unicode="&#xe800;" d="M833 433v103l-247-289-171 171-248-212v-189h750v-84h-834v834h84v-452l252 217 162-162 197 230h-111v83h250v-250h-84z" horiz-adv-x="1000" />

<glyph glyph-name="action_items_list" unicode="&#xe801;" d="M750 767h-500c0 0-83 0-83-84v-666c0-84 83-84 83-84h500c0 0 83 0 83 84v666c0 84-83 84-83 84z m-417-334h-83v84h83v-84z m0 167h-83v83h83v-83z m42-583v333l292-167-292-166z m375 416h-333v84h333v-84z m0 167h-333v83h333v-83z" horiz-adv-x="1000" />

<glyph glyph-name="active_directory" unicode="&#xe802;" d="M833 475v-83h84v-125h-84v-84h84v-125h-84v-41c0-46-37-84-83-84h-500c-46 0-83 38-83 84v208h399l-96-95 60-60 195 197-195 196-60-59 96-96h-399v375c0 46 37 84 83 84h500c46 0 83-38 83-84h-583v-83h667v-125h-84z" horiz-adv-x="1000" />

<glyph glyph-name="agency" unicode="&#xe803;" d="M708 558v167h-416v-167h-167v-583h750v583h-167z m-416-500h-84v84h84v-84z m0 167h-84v83h84v-83z m0 167h-84v83h84v-83z m166-334h-83v84h83v-84z m0 167h-83v83h83v-83z m0 167h-83v83h83v-83z m0 166h-83v84h83v-84z m167-500h-83v84h83v-84z m0 167h-83v83h83v-83z m0 167h-83v83h83v-83z m0 166h-83v84h83v-84z m167-500h-84v84h84v-84z m0 167h-84v83h84v-83z m0 167h-84v83h84v-83z" horiz-adv-x="1000" />

<glyph glyph-name="anonymous" unicode="&#xe804;" d="M792 808h-584c-45 0-83-37-83-83v-750c0-46 38-83 83-83h584c46 0 83 37 83 83v750c0 46-37 83-83 83z m0-833h-584v750h584v-750z m-334 167h84v-84h-84v84z m170 239l-38-38c-30-30-48-55-48-118h-84v21c0 46 19 87 49 118l52 52c15 15 24 36 24 59 0 46-37 83-83 83-46 0-83-37-83-83h-84c0 92 75 167 167 167s167-75 167-167c0-37-15-70-39-94z" horiz-adv-x="1000" />

<glyph glyph-name="aql" unicode="&#xe805;" d="M750 558c0 0-124 0-250 0l-104-208h104l-167-292v209h-83v291c-83 0-83-83-83-83v-458c0 0 0-84 83-84h500c0 0 83 0 83 84v458c0 83-83 83-83 83z m-250 209l-125-125h250l-125 125z" horiz-adv-x="1000" />

<glyph glyph-name="auditor" unicode="&#xe806;" d="M674 443c21 33 34 73 34 115 0 115-93 209-208 209s-208-94-208-209 93-208 208-208c43 0 82 13 115 34l105-105 60 59-106 105z m-174-10c-69 0-125 57-125 125s56 125 125 125c69 0 125-56 125-125s-56-125-125-125z m0-166c-167 0-417-84-417-209v-125h834v125c0 125-250 209-417 209z m333-250h-666v41c0 44 171 125 333 125 162 0 333-81 333-125v-41z" horiz-adv-x="1000" />

<glyph glyph-name="b2b" unicode="&#xe807;" d="M0 683v-666h250v666h-250z m167-500h-84v84h84v-84z m0 167h-84v83h84v-83z m0 167h-84v83h84v-83z m583 166v-666h250v666h-250z m167-500h-84v84h84v-84z m0 167h-84v83h84v-83z m0 167h-84v83h84v-83z m-167 166v84h-167v-292h-166v292h-167v-84h83v-666h-83v-84h167v292h166v-292h167v84h-83v666h83z m-167-375h-166v84h166v-84z" horiz-adv-x="1000" />

<glyph glyph-name="budget" unicode="&#xe808;" d="M792 58c0 0 0 0 0 250s-209 250-209 250l84 167v42h-334v-42l84-167c0 0-209 0-209-250s0-250 0-250l-83-83v-42h750v42l-83 83z m-167 250h-167v-41h125l42-42v-125l-42-42h-41v-41h-84v41h-83v84h167v41h-125l-42 42v125l42 42h41v41h84v-41h83v-84z" horiz-adv-x="1000" />

<glyph glyph-name="budget_top" unicode="&#xe809;" d="M792 58v209c0 250-209 250-209 250l63 125h-292l63-125c0 0-209 0-209-250v-209l-83-83v-42h750v42l-83 83z m-167 250h-167v-41h125l42-42v-125l-42-42h-41v-41h-84v41h-83v84h167v41h-125l-42 42v125l42 42h41v41h84v-41h83v-84z m-542 500h834v-83h-834v83z m250-250l-125 167-125-167m709 167l-125-167h250l-125 167z" horiz-adv-x="1000" />

<glyph glyph-name="business_impact_analysis" unicode="&#xe80a;" d="M833 642h-333l-83 83h-250c-84 0-84-83-83-83l-1-584c0-83 84-83 84-83h666c84 0 84 83 84 83v500c0 84-84 84-84 84z m-375-584v167h-83v250h208l-83-167h125l-167-250z" horiz-adv-x="1000" />

<glyph glyph-name="cash_flow_analysis" unicode="&#xe80b;" d="M751 158c52 64 82 145 82 234 0 207-168 375-375 375s-375-168-375-375 168-375 375-375c89 0 170 31 234 82l195-195 59 59-195 195z m-293-58c-161 0-291 130-291 292s130 291 291 291 292-130 292-291-130-292-292-292z m0 500c-115 0-208-93-208-208s93-209 208-209 209 94 209 209-94 208-209 208z m42-292c0 0 0-41-42-41s-41 41-41 41v167c0 0 0 42 41 42s42-42 42-42v-167z" horiz-adv-x="1000" />

<glyph glyph-name="cash_flow_analysis2" unicode="&#xe80c;" d="M500 558h83v-83h-166v-42h125l41-41v-125l-41-42h-42v-42h-83v42h-84v83h167v42h-125l-42 42v125l42 41h42v42h83v-42z m251-400c52 64 82 145 82 234 0 207-168 375-375 375s-375-168-375-375 168-375 375-375c89 0 170 31 234 82l195-195 59 59-195 195z m-293-58c-161 0-291 130-291 292s130 291 291 291 292-130 292-291-130-292-292-292z" horiz-adv-x="1000" />

<glyph glyph-name="change_control_plan" unicode="&#xe80d;" d="M917 600v-250h-84v108l-291-292-169 169-263-225-54 63 321 275 165-164 232 233h-107v83h250z" horiz-adv-x="1000" />

<glyph glyph-name="change_control_plan2" unicode="&#xe80e;" d="M917 600v-250h-84v108l-211-212c2-6 3-13 3-21 0-46-37-83-83-83-46 0-84 37-84 83 0 2 0 4 1 5l-130 87c-11-6-24-9-37-9-12 0-23 3-33 7l-122-92-50 67 122 92c-1 3-1 6-1 10 0 46 38 83 84 83s83-37 83-83c0-2 0-4 0-6l130-86c11 5 23 8 37 8 7 0 14 0 21-3l211 212h-107v83h250z" horiz-adv-x="1000" />

<glyph glyph-name="clock_in" unicode="&#xe80f;" d="M500 767c-230 0-417-187-417-417 0-230 187-417 417-417 230 0 417 187 417 417 0 230-187 417-417 417z m0-750c-184 0-333 149-333 333 0 77 26 148 70 204l204-204h-108v-83h250v250h-83v-108l-204 204c56 44 127 70 204 70 184 0 333-149 333-333s-149-333-333-333z" horiz-adv-x="1000" />

<glyph glyph-name="clock_out" unicode="&#xe810;" d="M833 183v-107l-70 70c44 56 70 127 70 204 0 184-149 333-333 333-184 0-333-149-333-333 0-184 149-333 333-333 77 0 148 26 204 70l70-70h-107v-84h250v250h-84z m-333-83c-138 0-250 112-250 250 0 138 112 250 250 250 138 0 250-112 250-250 0-54-17-104-46-145l-195 195-59-59 195-194c-41-30-91-47-145-47z" horiz-adv-x="1000" />

<glyph glyph-name="costumers" unicode="&#xe811;" d="M750 17h-500c0 0 0 666 0 666h500c0 0 1-666 0-666z m0 750h-500c-83 0-83-84-83-84v-666c0 0 0-84 83-84h500c0 0 83 0 83 84v666c0 84-83 84-83 84l0 0z m-125-334c0-69-56-125-125-125s-125 56-125 125 56 125 125 125 125-55 125-125z m-125-166c-167 0-167-125-167-125h334c0 0 0 125-167 125z" horiz-adv-x="1000" />

<glyph glyph-name="currency_exchange" unicode="&#xe812;" d="M859 58l43-73c-42-33-94-52-152-52-92 0-173 50-216 125h-159l33 84h96c-3 13-4 27-4 41h-75l33 84h57c33 97 126 166 235 166 58 0 110-19 152-52l-43-72c-30 26-68 41-109 41-62 0-115-33-144-83h227l-50-84h-200c0-14 2-28 6-41h169l-50-84h-68c30-26 68-41 110-41 41 0 79 15 109 41z m-442 375c0-98-65-146-125-161v-47h-84v47c-60 15-125 63-125 161h84c0-43 20-63 41-73v122c-59 12-125 37-125 118 0 98 65 146 125 161v47h84v-46c91-19 125-103 125-162h-42l-42 0v0c0 15-4 57-41 75v-124c59-12 125-36 125-118z m-209 241c-21-10-41-31-41-74 0-16 9-24 41-32v106z m125-241c0 16-9 25-41 33v-106c21 10 41 30 41 73z" horiz-adv-x="1000" />

<glyph glyph-name="data_management" unicode="&#xe813;" d="M833 725c-83 0-333 0-333 0s-250 0-333 0-84-83-84-83v-584c0-83 84-83 84-83h666c0 0 84 0 84 83v584c0 0 0 83-84 83z m0-667h-666v250h666v-250z m0 334h-666v250h666v-250z m-166 166h-334v-83h334v83z m0-416h-334v83h334v-83z" horiz-adv-x="1000" />

<glyph glyph-name="deliverable" unicode="&#xe814;" d="M833 642h-666c-46 0-84-38-84-84v-416c0-46 38-84 84-84h666c46 0 84 38 84 84v416c0 46-38 84-84 84z m-416-476l-155 154 59 60 96-96 262 262 59-59-321-321z" horiz-adv-x="1000" />

<glyph glyph-name="earned_value_management" unicode="&#xe815;" d="M500 725c-207 0-375-168-375-375s168-375 375-375 375 168 375 375-168 375-375 375z m0-667c-161 0-292 131-292 292 0 161 131 292 292 292 161 0 292-131 292-292 0-161-131-292-292-292z m83 417v-250c0-46-37-83-83-83-46 0-83 37-83 83v250c0 46 37 83 83 83 46 0 83-37 83-83z" horiz-adv-x="1000" />

<glyph glyph-name="energy" unicode="&#xe816;" d="M542 433h166l-291-500v375h-125v459h416l-166-334z" horiz-adv-x="1000" />

<glyph glyph-name="equipement" unicode="&#xe817;" d="M820 563l79 80c0 0 54-107-26-186-80-80-187-27-187-27l-266-266c0 0 53-107-26-187-80-80-187-26-187-26l80 80v106h-106l-80-80c0 0-53 107 26 187s187 26 187 26l266 266c0 0-53 107 27 187 79 80 186 26 186 26l-80-79v-107h107z" horiz-adv-x="1000" />

<glyph glyph-name="estimated_cost" unicode="&#xe818;" d="M792 58c0 0 0 0 0 167v83c0 250-209 250-209 250l84 167v42h-334v-42l84-167c0 0-209 0-209-250v-83c0-167 0-167 0-167l-83-83v-42h750v42l-83 83z m-167 250h-167v-41h125l42-42v-125l-42-42h-41v-41h-84v41h-83v84h167v41h-125l-42 42v125l42 42h41v41h84v-41h83v-84z m167-83l125-125v250l-125-125z m-709 125v-250l125 125-125 125z" horiz-adv-x="1000" />

<glyph glyph-name="event" unicode="&#xe819;" d="M833 683h-83v-83h-83v83h-334v-83h-83v83h-84c-46 0-83-37-83-83v-500c0-46 37-83 84-83h666c46 0 84 37 84 83v500c0 46-38 83-84 83z m0-583h-666v417h666v-417z m-583 667v-84h83v84h-83z m417 0v-84h83v84h-83z m83-584h-250v250h250v-250z" horiz-adv-x="1000" />

<glyph glyph-name="external_organizations" unicode="&#xe81a;" d="M125 308v-83h83v-83h-83v-84h83v-83h-166v417h166v-84h-83z m583 417v-750h-416v750h416z m-250-583h-83v-84h83v84z m0 166h-83v-83h83v83z m0 167h-83v-83h83v83z m0 167h-83v-84h83v84z m167-500h-83v-84h83v84z m0 166h-83v-83h83v83z m0 167h-83v-83h83v83z m0 167h-83v-84h83v84z m167-84v-83h83v-83h-83v-84h83v-83h-83v-83h83v-84h-83v-83h166v583h-166z" horiz-adv-x="1000" />

<glyph glyph-name="feasability_study" unicode="&#xe81b;" d="M208 267c-79 0-145 35-166 83h83l83 208 84-208h83c-22-48-87-83-167-83z m292 416c46 0 83-37 83-83 0-23-9-44-24-59l-52-52c-30-31-49-72-49-118v-21h84c0 63 18 88 48 118l38 38c24 24 39 57 39 94 0 92-75 167-167 167s-167-75-167-167h84c0 46 37 83 83 83z m375-333l-83 208-84-208h-83c22-48 88-83 167-83s145 35 166 83h-83z m-333-333v250h-84v-250h-83l-83-84h416l-83 84h-83z" horiz-adv-x="1000" />

<glyph glyph-name="feasability_study2" unicode="&#xe81c;" d="M794 635c28 25 39 68 39 132-60 0-100-10-127-34-47 16-118 34-206 34s-159-18-206-34c-26 24-67 34-127 34 0-64 11-107 39-132-18-63-39-163-39-285 0-122 21-222 39-285-28-25-39-68-39-132 60 0 101 10 127 34 47-16 118-34 206-34s159 18 206 34c27-24 67-34 127-34 0 64-11 107-39 132 18 63 39 163 39 285 0 122-21 222-39 285z m-252-577h-84v84h84v-84z m86 323l-38-38c-30-30-48-55-48-118h-84v21c0 46 19 87 49 118l52 52c15 15 24 36 24 59 0 46-37 83-83 83-46 0-83-37-83-83h-84c0 92 75 167 167 167s167-75 167-167c0-37-15-70-39-94z" horiz-adv-x="1000" />

<glyph glyph-name="flow" unicode="&#xe81d;" d="M417 683v-83h-167v83h167m416-250v-83h-166v83h166m0-333v-83h-166v83h166m-500 0v-83h-166v83h166m167 667h-333v-250h333v83h208v-83h-125v-84h-291c-84 0-84-83-84-83v-167h-125v-250h334v84h166v-84h334v250h-334v-83h-166v83h-125v167h291v-83h334v250h-125v83c0 0 0 83-84 83h-208v84l0 0z" horiz-adv-x="1000" />

<glyph glyph-name="forecasting" unicode="&#xe81e;" d="M917 371v-354h-834v61l84 83v-61h166v226l12 12 72-60v-178h166v102l84 84v-186h166v271h84z m0 312v-250h-84v108l-289-289-202 171-259-256v116l255 252 201-170 235 235h-107v83h250z" horiz-adv-x="1000" />

<glyph glyph-name="future_trends" unicode="&#xe81f;" d="M833 475v149l-607-607h691v-84h-834v834h84v-691l607 607h-149v84h292v-292h-84z" horiz-adv-x="1000" />

<glyph glyph-name="gantt_chart" unicode="&#xe820;" d="M83-67v834h84v-834h-84z m167 834h250v-84h-250v84z m83-167h334v-83h-334v83z m0-167h250v-83h-250v83z m84-166h416v-84h-416v84z m83-167h417v-83h-417v83z" horiz-adv-x="1000" />

<glyph glyph-name="governance_model" unicode="&#xe821;" d="M749 461c-5-103-74-189-166-222 0-4 0-9 0-14 0-74-32-140-83-186 44-40 103-64 167-64 138 0 250 112 250 250 0 109-70 202-168 236z m-332-236c0 5 0 10 1 14-93 33-162 119-167 222-98-34-168-127-168-236 0-138 112-250 250-250 65 0 123 24 167 64-51 46-83 112-83 186z m83 500c-138 0-250-112-250-250 0-5 0-10 1-14 26 9 54 14 82 14 65 0 123-24 167-64 44 40 103 64 167 64 28 0 56-5 82-14 1 4 1 9 1 14 0 138-112 250-250 250z m83-486c-26-9-54-14-83-14-29 0-57 5-82 14 3 69 34 129 82 172 48-43 79-103 83-172z" horiz-adv-x="1000" />

<glyph glyph-name="grouped_tasks" unicode="&#xe822;" d="M792 725h-174c-18 48-64 83-118 83s-100-35-117-83h-175c-83 0-83-83-83-83v-625c0 0 0-84 83-84h584c83 0 83 84 83 84v625c0 83-83 83-83 83z m-292 0c23 0 42-19 42-42s-19-41-42-41-42 18-42 41 19 42 42 42z m292-708h-584v625h84v-125h416v125h84v-625z m-500 416v-83h83v83h-83z m166 0v-83h250v83h-250z m-166-166v-84h83v84h-83z m166 0v-84h250v84h-250z" horiz-adv-x="1000" />

<glyph glyph-name="hand_collaboration" unicode="&#xe823;" d="M729-67h-437c-167 0-250 84-250 84v458c82 103 315 297 315 297 50 38 100 42 129 12 12-13 19-30 19-49 0-30-18-65-47-93l-83-84h479c35 0 63-28 63-62s-28-63-63-63h-291c-12 0-21-9-21-20s9-21 21-21h333c34 0 62-28 62-63s-28-62-62-62h-333c-12 0-21-9-21-21s9-21 21-21h291c35 0 63-28 63-62s-28-63-63-63h-291c-12 0-21-9-21-21s9-21 21-21h166c35 0 63-28 63-62s-28-63-63-63z" horiz-adv-x="1000" />

<glyph glyph-name="human_resources" unicode="&#xe824;" d="M271 517c0 65 27 124 72 166-3 0-7 0-10 0-92 0-166-74-166-166s74-167 166-167c4 0 7 0 10 0-45 42-72 101-72 167z m396 166c-3 0-7 0-9 0 44-42 71-101 71-166s-27-125-72-167c3 0 6 0 10 0 92 0 166 75 166 167s-74 166-166 166z m136-428c91-65 93-149 93-155v-83h104v83c0 0 0 117-197 155z m-803-155v-83h104v83c0 6 2 90 93 155-197-38-197-155-197-155z m667 417c0-92-75-167-167-167s-167 75-167 167 75 166 167 166 167-74 167-166z m-167-250c-333 0-333-167-333-167v-83h666v83c0 0 0 167-333 167z" horiz-adv-x="1000" />

<glyph glyph-name="industry" unicode="&#xe825;" d="M917 558v-625h-167v334h-542v-334h-166v792h125v-333l166 166h84v-166l166 166h84v-166l166 166h84z m-250-375h-375v-250h375v250z" horiz-adv-x="1000" />

<glyph glyph-name="insourcing" unicode="&#xe826;" d="M696 612l-196-196-196 196 59 59 95-96v192h84v-192l95 96 59-59z m12-429v167h-416v-167h-167v-250h750v250h-167z m-416-166h-84v83h84v-83z m166 0h-83v83h83v-83z m0 166h-83v84h83v-84z m167-166h-83v83h83v-83z m0 166h-83v84h83v-84z m167-166h-84v83h84v-83z" horiz-adv-x="1000" />

<glyph glyph-name="instruction_manual" unicode="&#xe827;" d="M250 600h583v-583c0-84-83-84-83-84h-500c-46 0-83 38-83 84v83h233l-55-54 60-59 154 155-154 154-60-59 55-54h-233v167h441l-54-54 59-59 154 155-154 154-59-59 54-54h-441v250c0 46 37 84 83 84h500c0 0 83 0 83-84h-583v-83z" horiz-adv-x="1000" />

<glyph glyph-name="issue_log" unicode="&#xe828;" d="M750 767h-500c-83 0-83-84-83-84v-666c0 0 0-84 83-84h500c83 0 83 84 83 84v666c0 0 0 84-83 84z m-417-250h-83v83h83v-83z m322-387l-60-60-95 96-95-96-60 60 96 95-96 95 60 60 95-96 95 96 60-60-96-95 96-95z m95 387h-333v83h333v-83z" horiz-adv-x="1000" />

<glyph glyph-name="legal_issues" unicode="&#xe829;" d="M958 225c-21-48-87-83-166-83s-145 35-167 83h83l84 208 83-208h83z m-666 0l-84 208-83-208h-83c21-48 87-83 166-83s145 35 167 83h-83z m541 333v-83h-250v-458l-83-125-83 125v458h-250v83h291v95c-25 15-41 41-41 72 0 46 37 83 83 83 46 0 83-37 83-83 0-31-16-57-41-72v-95h291z" horiz-adv-x="1000" />

<glyph glyph-name="lessons_learned_database" unicode="&#xe82a;" d="M167 642c0 69 149 125 333 125s333-56 333-125-149-125-333-125-333 56-333 125z m666-84v-500c0-69-149-125-333-125s-333 56-333 125v500c0-69 149-125 333-125s333 56 333 125z m-95-238l-59 60-221-221-95 96-59-60 154-154 280 279z" horiz-adv-x="1000" />

<glyph glyph-name="macro" unicode="&#xe82b;" d="M750 433v-166h-250v-417h500v583h-250z m-83-500h-84v84h84v-84z m0 167h-84v83h84v-83z m250-167h-84v84h84v-84z m0 167h-84v83h84v-83z m0 167h-84v83h84v-83z m-500 583c-230 0-417-187-417-417 0-230 187-416 417-416v333h125v42c0 23-19 41-42 41h-250v84h83c23 0 42 18 42 41v84h83c46 0 84 37 84 83 0 0 0 7-1 17 97-39 172-123 198-225h86c-39 190-207 333-408 333z m-166-540c-20-126 82-127 82-127l1-73c-144 38-251 168-251 323 0 22 2 42 6 62l162-185z" horiz-adv-x="1000" />

<glyph glyph-name="materials" unicode="&#xe82c;" d="M500 517l167-167-167-167-167 167 167 167z m333-167c0-122-21-222-39-285 28-25 39-68 39-132-60 0-100 10-127 34-47-16-118-34-206-34s-159 18-206 34c-26-24-67-34-127-34 0 64 11 107 39 132-18 63-39 163-39 285 0 122 21 222 39 285-28 25-39 68-39 132 60 0 101-10 127-34 47 16 118 34 206 34s159-18 206-34c27 24 67 34 127 34 0-64-11-107-39-132 18-63 39-163 39-285z m-83 0c0 138-112 250-250 250-138 0-250-112-250-250 0-138 112-250 250-250 138 0 250 112 250 250z" horiz-adv-x="1000" />

<glyph glyph-name="milestone" unicode="&#xe82d;" d="M500 100c69 0 125-56 125-125s-56-125-125-125c-69 0-125 56-125 125s56 125 125 125z m-375 375c69 0 125-56 125-125s-56-125-125-125c-69 0-125 56-125 125s56 125 125 125z m750 0c69 0 125-56 125-125s-56-125-125-125-125 56-125 125 56 125 125 125z m-375 375c69 0 125-56 125-125s-56-125-125-125-125 56-125 125 56 125 125 125z m95-512l-53-54v233h-84v-233l-53 54-60-59 155-154 155 154-60 59z" horiz-adv-x="1000" />

<glyph glyph-name="network_diagram" unicode="&#xe82e;" d="M667 433h166c46 0 84 38 84 84v166c0 46-38 84-84 84h-166c-46 0-84-38-84-84v-41h-166v41c0 46-38 84-84 84h-166c-46 0-84-38-84-84v-166c0-46 38-84 84-84h166c46 0 84 38 84 84v41h166v-41c0-8 2-15 3-22l-231-231c-7 1-14 3-22 3h-166c-46 0-84-38-84-84v-166c0-46 38-84 84-84h166c46 0 84 38 84 84v41h166v-41c0-46 38-84 84-84h166c46 0 84 38 84 84v166c0 46-38 84-84 84h-166c-46 0-84-38-84-84v-41h-166v41c0 8-2 15-3 22l231 232c7-2 14-4 22-4z m0 250h166v-166h-166v166z m-334-166h-166v166h166v-166z m0-500h-166v166h166v-166z m334 166h166v-166h-166v166z" horiz-adv-x="1000" />

<glyph glyph-name="node" unicode="&#xe82f;" d="M738 421l-59-59 96-95h-192c27 34 42 78 42 125 0 115-93 208-208 208h-334v-83h167c-26-35-42-78-42-125 0-115 94-209 209-209h358l-96-95 59-59 196 196-196 196z m-321-154c-69 0-125 56-125 125 0 68 56 125 125 125s125-57 125-125c0-69-57-125-125-125z" horiz-adv-x="1000" />

<glyph glyph-name="offshore" unicode="&#xe830;" d="M917 767v-334h-84v191l-338-339c81-94 130-217 130-352h-542v542c135 0 258-49 352-130l339 338h-191v84h334z" horiz-adv-x="1000" />

<glyph glyph-name="opportunity_cost" unicode="&#xe831;" d="M833 17v250h-166v-250h-167v250h-167v-250h-166v750h-84v-834h834v84h-84z m-375 333h84v42h41l42 41v125l-42 42h-125v42h167v83h-83v42h-84v-42h-41l-42-42v-125l42-41h125v-42h-167v-83h83v-42z" horiz-adv-x="1000" />

<glyph glyph-name="outsourcing" unicode="&#xe832;" d="M696 588l-196 196-196-196 59-59 95 96v-192h84v192l95-96 59 59z m12-405v167h-416v-167h-167v-250h750v250h-167z m-416-166h-84v83h84v-83z m166 0h-83v83h83v-83z m0 166h-83v84h83v-84z m167-166h-83v83h83v-83z m0 166h-83v84h83v-84z m167-166h-84v83h84v-83z" horiz-adv-x="1000" />

<glyph glyph-name="overdue_task" unicode="&#xe833;" d="M500 767c-230 0-417-187-417-417 0-230 187-417 417-417 230 0 417 187 417 417 0 230-187 417-417 417z m0-750c-184 0-333 149-333 333s149 333 333 333c184 0 333-149 333-333s-149-333-333-333z m142 175l-184 137v271h84v-229l150-113-50-66z" horiz-adv-x="1000" />

<glyph glyph-name="overtime_rate" unicode="&#xe834;" d="M500 767c-230 0-417-187-417-417 0-230 187-417 417-417 230 0 417 187 417 417 0 230-187 417-417 417z m0-750c-184 0-333 149-333 333s149 333 333 333c184 0 333-149 333-333s-149-333-333-333z m167 291h-209v292h84v-208h125v-84z" horiz-adv-x="1000" />

<glyph glyph-name="pert_network_diagram" unicode="&#xe835;" d="M917 267v250h-125v166h-375v84h-334v-250h125v-84h-125v-250h125v-166h375v-84h334v250h-125v84h125z m-84 83h-166v83h166v-83z m-666 333h166v-83h-166v83z m0-416v83h166v-83h-166z m666-250h-166v83h166v-83z m-125 166h-125v-83h-291v83h125v250h-125v84h125v83h291v-83h-125v-250h125v-84z" horiz-adv-x="1000" />

<glyph glyph-name="phases" unicode="&#xe836;" d="M500 767c46 0 83-38 83-84s-37-83-83-83c-46 0-83 37-83 83s37 84 83 84z m-125-334c46 0 83-37 83-83 0-46-37-83-83-83s-83 37-83 83c0 46 37 83 83 83z m250 0c46 0 83-37 83-83 0-46-37-83-83-83s-83 37-83 83c0 46 37 83 83 83z m-125-333c46 0 83-37 83-83s-37-84-83-84c-46 0-83 38-83 84s37 83 83 83z m250 0c46 0 83-37 83-83s-37-84-83-84-83 38-83 84 37 83 83 83z m-500 0c46 0 83-37 83-83s-37-84-83-84-83 38-83 84 37 83 83 83z m167 458h166l-83-83-83 83z m0-333h166l-83-83-83 83z" horiz-adv-x="1000" />

<glyph glyph-name="plan" unicode="&#xe837;" d="M934 350l-196-196-59 59 96 95h-286c-8-12-18-23-31-30v-106c25-14 42-41 42-72 0-46-37-83-83-83-31 0-58 16-72 41h-262v84h262c7 12 18 23 30 30v106c-25 15-42 41-42 72s17 58 42 72v106c-12 7-23 18-30 30h-262v84h262c14 25 41 41 72 41 46 0 83-37 83-83 0-31-17-57-42-72v-106c13-7 23-18 31-30h286l-96 95 59 59 196-196z" horiz-adv-x="1000" />

<glyph glyph-name="plan_communication" unicode="&#xe838;" d="M917 683v-500c0-83-84-83-84-83h-583l-166-166 0 458h177c15-25 42-42 72-42s58 17 72 42h286l-96-96 60-59 195 196-195 197-60-60 96-95h-286c-14 25-41 42-72 42s-57-17-72-42h-177l-1 208c0 0 0 84 84 84h666c84 0 84-84 84-84z" horiz-adv-x="1000" />

<glyph glyph-name="policies" unicode="&#xe839;" d="M708 183v167h-416v-167h-167v-250h750v250h-167z m-416-166h-84v83h84v-83z m166 0h-83v83h83v-83z m0 166h-83v84h83v-84z m167-166h-83v83h83v-83z m0 166h-83v84h83v-84z m167-166h-84v83h84v-83z m-667 500h83v-84h-83v84z m167 0h583v-84h-583v84z m-167 166h83v-83h-83v83z m167 0h583v-83h-583v83z" horiz-adv-x="1000" />

<glyph glyph-name="problems" unicode="&#xe83a;" d="M500 767c-230 0-417-187-417-417s187-417 417-417 417 187 417 417-187 417-417 417z m0-750c-184 0-333 149-333 333 0 184 149 333 333 333 184 0 333-149 333-333 0-184-149-333-333-333z m-42 541v-250h84v250h-84z m0-333v-83h84v83h-84z" horiz-adv-x="1000" />

<glyph glyph-name="procedure" unicode="&#xe83b;" d="M792 475h-584v-250h584v250z m-417-187c-34 0-62 28-62 62s28 63 62 63 63-28 63-63-28-62-63-62z m250 0c-34 0-62 28-62 62s28 63 62 63 63-28 63-63-28-62-63-62z m-542-105v-250h834v250h-834z m167-187c-34 0-62 28-62 62s28 63 62 63 63-28 63-63-28-62-63-62z m250 0c-34 0-62 28-62 62s28 63 62 63 63-28 63-63-28-62-63-62z m250 0c-34 0-62 28-62 62s28 63 62 63 63-28 63-63-28-62-63-62z m-83 771h-334v-250h334v250z m-167-188c-34 0-62 28-62 63s28 62 62 62 63-28 63-62-28-63-63-63z" horiz-adv-x="1000" />

<glyph glyph-name="production" unicode="&#xe83c;" d="M667 225v-167h-167v167h-167v-167h-166v-41c0 0 0-84 83-84s500 0 500 0 83 0 83 84v208h-166z m83 542c0 0-417 0-500 0s-83-84-83-84v-458h166v167h167v-167h167v167h166v291c0 84-83 84-83 84z m-42-292h-416c-23 0-42 19-42 42s19 41 42 41h416c23 0 42-18 42-41s-19-42-42-42z" horiz-adv-x="1000" />

<glyph glyph-name="project" unicode="&#xe83d;" d="M833 600h-333l-83 83h-250c-84 0-84-83-83-83l-1-500c0-83 84-83 84-83h666c84 0 84 83 84 83v417c0 83-84 83-84 83z m-41-500h-334c-23 0-41 19-41 42s18 41 41 41h334c23 0 41-18 41-41s-18-42-41-42z" horiz-adv-x="1000" />

<glyph glyph-name="project_acceptance" unicode="&#xe83e;" d="M833 600h-333l-83 83h-250c-84 0-84-83-83-83l-1-500c0-83 84-83 84-83h666c84 0 84 83 84 83v417c0 83-84 83-84 83z m-375-475l-154 154 59 59 95-96 179 179 59-59-238-237z" horiz-adv-x="1000" />

<glyph glyph-name="project_center" unicode="&#xe83f;" d="M917 600v-83h-250v-167h-250v-250h-250c0 0-84 0-84 83 0 0 0 417 1 417 0 50 0 83 0 83-1 0-1 84 83 84h250l83-84h333c0 0 84 0 84-83z m-167-167v-166h-250v-417h500v583h-250z m-83-500h-84v84h84v-84z m0 167h-84v83h84v-83z m250-167h-84v84h84v-84z m0 167h-84v83h84v-83z m0 167h-84v83h84v-83z" horiz-adv-x="1000" />

<glyph glyph-name="project_charter" unicode="&#xe840;" d="M833 600h-333l-83 83h-250c-84 0-84-83-83-83l-1-500c0-83 84-83 84-83h666c84 0 84 83 84 83v417c0 83-84 83-84 83z m-583-458h-83v83h83v-83z m0 166h-83v84h83v-84z m583-166h-500v83h500v-83z m0 166h-500v84h500v-84z" horiz-adv-x="1000" />

<glyph glyph-name="project_filter" unicode="&#xe841;" d="M833 433h-666l0 250c0 0 0 84 83 84h125l83-84h292c0 0 83 0 83-83v-167z m84-83v-83l-375-209v-125h-84v125l-375 209v83h834z" horiz-adv-x="1000" />

<glyph glyph-name="project_guide" unicode="&#xe842;" d="M833 600h-333l-83 83h-250c-84 0-84-83-83-83l-1-500c0-83 84-83 84-83h666c84 0 84 83 84 83v417c0 83-84 83-84 83z m-613-429l96 96-96 95 60 59 154-154-154-155-60 59z m209 0l96 96-96 95 59 59 154-154-154-155-59 59z m267-59l-59 59 96 96-96 95 59 59 154-154-154-155z" horiz-adv-x="1000" />

<glyph glyph-name="project_server" unicode="&#xe843;" d="M792 642v41c0 0 0 84-84 84h-416c-84 0-84-84-84-84v-666c0 0 0-41 29-65l248 273h-110v83h250v-250h-83v105l-209-230h375c0 0 84 0 84 84v375h-334v250h334z m-250-84v-83h250v83h-250z" horiz-adv-x="1000" />

<glyph glyph-name="project_stage_closing" unicode="&#xe844;" d="M833 600h-333l-83 83h-250c-84 0-83-83-83-83l-1-500c0-83 84-83 84-83h666c84 0 84 83 84 83v417c0 83-84 83-84 83z m-178-429l-60-59-95 96-95-96-60 59 96 96-96 95 60 59 95-95 95 95 60-59-96-95 96-96z" horiz-adv-x="1000" />

<glyph glyph-name="project_stage_execution" unicode="&#xe845;" d="M833 600h-333l-83 83h-250c-84 0-84-83-83-83l-1-500c0-83 84-83 84-83h666c84 0 84 83 84 83v417c0 83-84 83-84 83z m0-500h-83v83h-208v108l53-54 60 59-155 154-155-154 60-59 53 54v-108h-208v-83h-83v500c0 0 215 0 215 0l83-83h368c1 0 0-417 0-417z" horiz-adv-x="1000" />

<glyph glyph-name="project_stage_initiation" unicode="&#xe846;" d="M833 600h-333l-83 83h-250c-84 0-84-83-83-83l-1-500c0-83 84-83 84-83h666c84 0 84 83 84 83v417c0 83-84 83-84 83z m0-500c0 0-291 0-291 0v191l53-54 60 59-155 154-155-154 60-59 53 54v-191c0 0-290 0-291 0v500c0 0 215 0 215 0l83-83h368c1 0 0-417 0-417z" horiz-adv-x="1000" />

<glyph glyph-name="project_stage_monitoring" unicode="&#xe847;" d="M458 350c46 0 84-37 84-83s-38-84-84-84-83 38-83 84 38 83 83 83z m375 250h-333l-83 83h-250c-84 0-84-83-83-83l-1-500c0-83 84-83 84-83h482l-106 106c-25-15-54-23-85-23-92 0-166 75-166 167s74 166 166 166 167-74 167-166c0-31-8-60-23-84l166-166h65c84 0 84 83 84 83v417c0 83-84 83-84 83z" horiz-adv-x="1000" />

<glyph glyph-name="project_stage_planning" unicode="&#xe848;" d="M833 600h-333l-83 83h-250c-84 0-84-83-83-83 0 0 0-34 0-83 0-142-1-417-1-417 0-83 84-83 84-83h666c84 0 84 83 84 83v417c0 83-84 83-84 83z m-500-500v78l79-78h-79z m100 21l-79 78 210 209 78-78-209-209z m269 270l-38-38-78 78 38 38c8 8 22 8 30 0l48-49c8-8 8-21 0-29z" horiz-adv-x="1000" />

<glyph glyph-name="project_stats" unicode="&#xe849;" d="M833 600h-333l-83 83h-250c-84 0-84-83-83-83l-1-500c0-83 84-83 84-83h666c84 0 84 83 84 83v417c0 83-84 83-84 83z m-333-500c-92 0-167 75-167 167s75 166 167 166v-166h167c0-92-75-167-167-167z" horiz-adv-x="1000" />

<glyph glyph-name="project2" unicode="&#xe84a;" d="M917 517v-417c0 0 0-83-84-83h-440l274 274v-108h83v250h-250v-83h108l-334-333h-107c0 0-84 0-84 83l1 500c-1 0-1 83 83 83h250l83-83h333c0 0 84 0 84-83z" horiz-adv-x="1000" />

<glyph glyph-name="prototype" unicode="&#xe84b;" d="M750 767h-500c0 0-83 0-83-84v-666c0-84 83-84 83-84h500c0 0 83 0 83 84v666c0 84-83 84-83 84z m-191-417l191 191v-382l-191 191z m132 250l-191-191-191 191c96 0 286 0 382 0z m-250-250l-191-191v382l191-191z m-132-250l191 191 191-191c-96 0-286 0-382 0z" horiz-adv-x="1000" />

<glyph glyph-name="provisions" unicode="&#xe84c;" d="M56 392l111-334c31-83 83-83 83-83h500c0 0 52 0 83 83l112 334h-889z m819 83h-750c0 92 75 167 167 167 21 0 40-4 58-11 27 56 84 94 150 94s123-38 150-94c18 7 38 11 58 11 92 0 167-75 167-167z" horiz-adv-x="1000" />

<glyph glyph-name="public_access" unicode="&#xe84d;" d="M125 767v-834h750v834h-750z m667-750h-84v62c0 63-125 104-208 104s-208-41-208-104v-62h-84v666h584v-666z m-417 333c0 69 56 125 125 125s125-56 125-125-56-125-125-125-125 56-125 125z" horiz-adv-x="1000" />

<glyph glyph-name="public_document" unicode="&#xe84e;" d="M583 767v-167c0-46 38-83 84-83h166l-250 250z m84-334c-92 0-167 75-167 167v167h-250c-46 0-83-38-83-84v-666c0-46 37-84 83-84h42v42c0 83 125 125 208 125s208-42 208-125v-42h42c46 0 83 38 83 84v416h-166z m-167-291c-69 0-125 56-125 125s56 125 125 125 125-56 125-125-56-125-125-125z" horiz-adv-x="1000" />

<glyph glyph-name="publish" unicode="&#xe84f;" d="M667 433c-92 0-167 75-167 167v167h-250c-46 0-83-38-83-84v-666c0-46 37-84 83-84h208v275l-95-96-59 59 196 196 196-196-59-59-95 96v-275h208c46 0 83 38 83 84v416h-166z m-84 334v-167c0-46 38-83 84-83h166l-250 250z" horiz-adv-x="1000" />

<glyph glyph-name="quality" unicode="&#xe850;" d="M750 517c0 138-112 250-250 250-138 0-250-112-250-250 0-82 40-155 100-200l-58-384 208 125 208-125-58 384c60 45 100 118 100 200z m-250-167c-92 0-167 75-167 167s75 166 167 166 167-74 167-166-75-167-167-167z" horiz-adv-x="1000" />

<glyph glyph-name="rating_system" unicode="&#xe851;" d="M917 465l-300 25-117 277-117-277-300-25 228-197-68-293 257 155 258-155-69 293 228 197z m-285-317l-132 80v325l60-141 153-13-116-101 35-150z" horiz-adv-x="1000" />

<glyph glyph-name="reference" unicode="&#xe852;" d="M833 725h-666c-46 0-84-37-84-83v-584c0-45 38-83 84-83h666c46 0 84 38 84 83v584c0 46-38 83-84 83z m-220-571l-59 59 96 95h-192v-250h-291v584h291v-250h192l-96 95 59 59 196-196-196-196z" horiz-adv-x="1000" />

<glyph glyph-name="repetitive_tasks" unicode="&#xe853;" d="M625 600h-417c-45 0-83-37-83-83v-500c0-46 38-84 83-84h417c46 0 83 38 83 84v500c0 46-37 83-83 83z m-333-542h-84v84h84v-84z m0 167h-84v83h84v-83z m0 167h-84v83h84v-83z m333-334h-250v84h250v-84z m0 167h-250v83h250v-83z m0 167h-250v83h250v-83z m250 291v-500c0-45-37-83-83-83v500c0 46-38 83-84 83h-416c0 46 37 84 83 84h417c46 0 83-38 83-84z" horiz-adv-x="1000" />

<glyph glyph-name="resources" unicode="&#xe854;" d="M794 635c28 25 39 68 39 132-60 0-100-10-127-34-47 16-118 34-206 34s-159-18-206-34c-26 24-67 34-127 34 0-64 11-107 39-132-18-63-39-163-39-285 0-122 21-222 39-285-28-25-39-68-39-132 60 0 101 10 127 34 47-16 118-34 206-34s159 18 206 34c27-24 67-34 127-34 0 64-11 107-39 132 18 63 39 163 39 285 0 122-21 222-39 285z m-86-535h-416v42l41 41c0 0 0 42 0 167s125 125 125 125l-41 83v42h166v-42l-41-83c0 0 125 0 125-125s0-167 0-167l41-41v-42z" horiz-adv-x="1000" />

<glyph glyph-name="resources_center" unicode="&#xe855;" d="M628 718c17-63 39-163 39-285 0-29-2-57-4-83h-94c9 26 14 54 14 83 0 138-112 250-250 250s-250-112-250-250c0-138 112-250 250-250 30 0 57 5 84 15v-176c-26-3-54-5-84-5-88 0-159 17-206 34-26-24-67-34-127-34 0 64 11 106 39 132-18 62-39 162-39 284 0 122 21 222 39 285-28 26-39 68-39 132 60 0 101-10 127-34 47 17 118 34 206 34s160-17 207-34c26 24 66 34 127 34 0-64-12-106-39-132z m-295-118l-166-167 166-166 167 166-167 167z m417-167v-166h-250v-417h500v583h-250z m-83-500h-84v84h84v-84z m0 167h-84v83h84v-83z m250-167h-84v84h84v-84z m0 167h-84v83h84v-83z m0 167h-84v83h84v-83z" horiz-adv-x="1000" />

<glyph glyph-name="resources_management" unicode="&#xe856;" d="M833 350c0-122-21-222-39-285 28-25 39-68 39-132-60 0-100 10-127 34-47-16-118-34-206-34-14 0-28 1-42 2 1 93 38 134 80 182 41 45 87 97 87 191v150l54-54 59 59-155 154-154-154 59-59 54 54v-150c0-63-29-95-66-136-43-49-97-109-101-227-32 7-59 15-81 22-26-24-67-34-127-34 0 64 11 107 39 132-18 63-39 163-39 285 0 122 21 222 39 285-28 25-39 68-39 132 60 0 101-10 127-34 47 16 118 34 206 34s159-18 206-34c27 24 67 34 127 34 0-64-11-107-39-132 18-63 39-163 39-285z" horiz-adv-x="1000" />

<glyph glyph-name="respponsibility_assessment" unicode="&#xe857;" d="M875 600v-667h-83v84h-250v129c95 19 166 103 166 204 0 115-93 208-208 208s-208-93-208-208c0-101 71-185 166-204v-129h-250v-84h-83v667h167v167h416v-167h167z" horiz-adv-x="1000" />

<glyph glyph-name="results" unicode="&#xe858;" d="M83 767v-167h209v-583h458v583h167v167h-834z m438-542c-81 0-146 65-146 146 0 80 65 146 146 146 80 0 146-66 146-146 0-81-66-146-146-146z" horiz-adv-x="1000" />

<glyph glyph-name="risk" unicode="&#xe859;" d="M498 764l-456-789c0 0 916 0 916 0s-460 789-460 789z m44-664h-84v83h84v-83z m-84 167v166h84v-166h-84z" horiz-adv-x="1000" />

<glyph glyph-name="risk_database" unicode="&#xe85a;" d="M500 767c-184 0-333-56-333-125v-417c0-69 149-125 333-125s333 56 333 125v417c0 69-149 125-333 125z m42-584h-84v84h84v-84z m0 167h-84v167h84v-167z m291-208v-84c0-69-149-125-333-125s-333 56-333 125v84c0-69 149-125 333-125s333 56 333 125z" horiz-adv-x="1000" />

<glyph glyph-name="risk_management" unicode="&#xe85b;" d="M595 319l60 59-155 154-155-154 60-59 53 54v-150c0-63-29-95-65-136-27-29-57-63-78-112h-273l456 789 460-789h-549c13 20 29 38 46 57 40 45 87 97 87 191v150l53-54z" horiz-adv-x="1000" />

<glyph glyph-name="risk_register" unicode="&#xe85c;" d="M750 767h-500c-46 0-83-38-83-84v-666c0-46 37-84 83-84h500c46 0 83 38 83 84v666c0 46-37 84-83 84z m-500-84h83v-83h-83v83z m0-625l250 459 250-459h-500z m500 542h-333v83h333v-83z m-292-500h84v83h-84v-83z m0 125h84v125h-84v-125z" horiz-adv-x="1000" />

<glyph glyph-name="safety" unicode="&#xe85d;" d="M500 808l-375-166v-250c0-232 160-448 375-500 215 52 375 268 375 500v250l-375 166z m292-416c0-14-1-28-2-42h-290v-372c-155 48-273 200-290 372h290v367l292-129v-196z" horiz-adv-x="1000" />

<glyph glyph-name="sampling" unicode="&#xe85e;" d="M83 767h167v-167h-167v167z m667 0h167v-167h-167v167z m-333-334h166v-166h-166v166z m-334-333h167v-167h-167v167z m667 0h167v-167h-167v167z m-250 83l-167-250h334l-167 250z m0 334l167 250h-334l167-250z m-167-167l-250 167v-334l250 167z m334 0l250-167v334l-250-167z" horiz-adv-x="1000" />

<glyph glyph-name="scope" unicode="&#xe85f;" d="M333 767v-84h-166v-166h-84v250h250z m0-834v84h-166v166h-84v-250h250z m334 834v-84h166v-166h84v250h-250z m0-834v84h166v166h84v-250h-250z m0 459v-84h-125v-125h-84v125h-125v84h125v125h84v-125h125z" horiz-adv-x="1000" />

<glyph glyph-name="scope_statement" unicode="&#xe860;" d="M458 183h84v84h-84v-84z m0 334v-167h84v167h-84z m0-334h84v84h-84v-84z m0 334v-167h84v167h-84z m375-334v-166h-166v-84h250v250h-84z m-166 584v-84h166v-166h84v250h-250z m-500-750v166h-84v-250h250v84h-166z m-84 750v-250h84v166h166v84h-250z" horiz-adv-x="1000" />

<glyph glyph-name="screen_tip" unicode="&#xe861;" d="M500 683v-250c0-23-19-41-42-41h-291l-84-84 1 375c0 23 18 42 41 42h333c23 0 42-19 42-42z m83-41h334v83h-334v-83z m0-167h334v83h-334v-83z m0-167h334v84h-334v-84z m-500-166h834v83h-834v-83z m0-167h834v83h-834v-83z" horiz-adv-x="1000" />

<glyph glyph-name="sigmoid_curve" unicode="&#xe862;" d="M417 142c8 0 198 3 289 278 72 215 205 222 211 222v83c-8 0-198-3-290-278-72-216-205-222-210-222-204 0-247 194-250 214v328h-84v-834h834v84h-750v236c53-62 133-111 250-111z" horiz-adv-x="1000" />

<glyph glyph-name="spaces" unicode="&#xe863;" d="M667 517v-334h-334v334h334z m-584 191v-716l167 167v382l-167 167z m667-167v-382l167-167v716l-167-167z m-59-441h-382l-167-167h716l-167 167z m-549 667l167-167h382l167 167h-716z" horiz-adv-x="1000" />

<glyph glyph-name="split_task" unicode="&#xe864;" d="M750 767h-500c-46 0-83-38-83-84v-666c0-46 37-84 83-84h500c46 0 83 38 83 84v666c0 46-37 84-83 84z m-500-125h83v-84h-83v84z m208-625h-208v208h83v-125h125v-83z m0 375h-125v-84h-83v167h208v-83z m292-375h-208v83h125v125h83v-208z m0 291h-83v84h-125v83h208v-167z m0 250h-333v84h333v-84z" horiz-adv-x="1000" />

<glyph glyph-name="stakeholder_analysis" unicode="&#xe865;" d="M583 433c0-69-55-125-125-125s-125 56-125 125 56 125 125 125 125-55 125-125z m363-470l-59-59-195 195c-64-51-145-82-234-82-207 0-375 168-375 375s168 375 375 375 375-168 375-375c0-89-30-170-82-234l195-195z m-196 429c0 161-130 291-292 291s-291-130-291-291c0-84 34-159 91-212 38 87 200 87 200 87s163 0 201-87c56 53 91 128 91 212z" horiz-adv-x="1000" />

<glyph glyph-name="standard_rate" unicode="&#xe866;" d="M583 683l167-166 167 166h-334z m167-416l-167-167h334l-167 167z m-191 83l-333-333h691v-84h-834v834h84v-691l358 357h392v-83h-358z" horiz-adv-x="1000" />

<glyph glyph-name="status_report" unicode="&#xe867;" d="M667 433c-92 0-167 75-167 167v167h-250c-46 0-83-38-83-84v-666c0-46 37-84 83-84h500c46 0 83 38 83 84v416h-166z m-375-250c-46 0-84 38-84 84s38 83 84 83 83-37 83-83-37-84-83-84z m208 0c-46 0-83 38-83 84s37 83 83 83c46 0 83-37 83-83s-37-84-83-84z m208 0c-45 0-83 38-83 84s38 83 83 83 84-37 84-83-38-84-84-84z m-125 584v-167c0-46 38-83 84-83h166l-250 250z" horiz-adv-x="1000" />

<glyph glyph-name="status_report2" unicode="&#xe868;" d="M833 600h-333l-83 83h-250c-84 0-84-83-84-83v-500c0-83 84-83 84-83h666c84 0 84 83 84 83v417c0 83-84 83-84 83z m-541-417c-46 0-84 38-84 84s38 83 84 83 83-37 83-83-37-84-83-84z m208 0c-46 0-83 38-83 84s37 83 83 83c46 0 83-37 83-83s-37-84-83-84z m208 0c-45 0-83 38-83 84s38 83 83 83 84-37 84-83-38-84-84-84z" horiz-adv-x="1000" />

<glyph glyph-name="strategy" unicode="&#xe869;" d="M917 183v84h-167v125c0 50-33 125-125 125h-292v108l54-55 59 60-154 154-155-154 59-60 54 55v-108h-167v-84h167v-125c0-50 33-125 125-125h292v-108l-54 55-59-60 154-154 155 154-59 60-54-55v108h167z m-250 84h-292c-34 0-41 23-42 41v125h292c34 0 41-23 42-41v-125z" horiz-adv-x="1000" />

<glyph glyph-name="subproject" unicode="&#xe86a;" d="M917 600v-333c0 0 0 166-167 166h-215l-84 84h-201c-167 0-166-166-166-166v332c-1 0-1 84 83 84h250l83-84h333c0 0 84 0 84-83z m-167-250h-250l-83 83h-167c-83 0-83-83-83-83l0-333c0-84 83-84 83-84h500c83 0 83 84 83 84v250c0 83-83 83-83 83z" horiz-adv-x="1000" />

<glyph glyph-name="supplies" unicode="&#xe86b;" d="M833 767v-750h-750v-84h834v834h-84z m-363-667h113v113l-113-113z m-220 446l-113-113 292-291 113 113-292 291z m-87 87c-11 12-30 12-42 0l-71-70c-11-12-11-31 0-43l45-45 113 113-45 45z m167 167c-12 11-31 11-42 0l-71-71c-12-11-12-31 0-42l45-45 113 113-45 45z m307-533h113v113l-113-113z m-220 446l-113-113 291-292 113 113-291 292z" horiz-adv-x="1000" />

<glyph glyph-name="target" unicode="&#xe86c;" d="M831 392c-19 150-139 270-289 289v86h-84v-86c-150-19-270-139-289-289h-86v-84h86c19-150 139-270 289-289v-86h84v86c150 19 270 139 289 289h86v84h-86z m-85-84c-17-104-100-187-204-204v79h-84v-79c-104 17-187 100-204 204h79v84h-79c17 104 100 187 204 204v-79h84v79c104-17 187-100 204-204h-79v-84h79z" horiz-adv-x="1000" />

<glyph glyph-name="task_completed" unicode="&#xe86d;" d="M750 767h-500c-83 0-83-84-83-84v-666c0 0 0-84 83-84h500c83 0 83 84 83 84v666c0 0 0 84-83 84z m-500-167h83v-83h-83v83z m208-559l-154 154 59 60 95-96 221 221 59-60-280-279z m292 476h-333v83h333v-83z" horiz-adv-x="1000" />

<glyph glyph-name="task_incomplete" unicode="&#xe86e;" d="M750 767h-500c-83 0-83-84-83-84v-291h666v291c0 0 0 84-83 84z m-417-250h-83v83h83v-83z m417 0h-333v83h333v-83z m-583-209v-291c0 0 0-84 83-84h500c83 0 83 84 83 84v291h-666z m166-208h-83v83h83v-83z m417 0h-333v83h333v-83z" horiz-adv-x="1000" />

<glyph glyph-name="task_notes" unicode="&#xe86f;" d="M667 767h-500c-46 0-84-38-84-84v-666c0-46 38-84 84-84h500c46 0 83 38 83 84v83h-417v417h417v166c0 46-37 84-83 84z m-417-667h-83v83h83v-83z m0 167h-83v83h83v-83z m0 166h-83v84h83v-84z m0 167h-83v83h83v-83z m417 0h-334v83h334v-83z m-250-417h416v84h-416v-84z m0 167h416v83h-416v-83z" horiz-adv-x="1000" />

<glyph glyph-name="task_report" unicode="&#xe870;" d="M833 600h-333l-83 83h-250c-84 0-84-83-83-83l-1-500c0-83 84-83 84-83h666c84 0 84 83 84 83v417c0 83-84 83-84 83z m-500-458h-83v83h83v-83z m0 166h-83v84h83v-84z m417-166h-333v83h333v-83z m0 166h-333v84h333v-84z" horiz-adv-x="1000" />

<glyph glyph-name="task_report2" unicode="&#xe871;" d="M583 767v-167c0-46 38-83 84-83h166l-250 250z m84-334c-92 0-167 75-167 167v167h-250c-46 0-83-38-83-84v-666c0-46 37-84 83-84h500c46 0 83 38 83 84v416h-166z m-334-333h-83v83h83v-83z m0 167h-83v83h83v-83z m417-167h-333v83h333v-83z m0 167h-333v83h333v-83z" horiz-adv-x="1000" />

<glyph glyph-name="task_types" unicode="&#xe872;" d="M750 767h-500c-83 0-83-84-83-84v-666c0 0 0-84 83-84h500c83 0 83 84 83 84v666c0 0 0 84-83 84z m-500-167h83v-83h-83v83z m451-443l-41-72-118 68v-136h-84v136l-118-68-41 72 117 68-117 68 41 72 118-67v135h84v-135l118 67 41-72-117-68 117-68z m49 360h-333v83h333v-83z" horiz-adv-x="1000" />

<glyph glyph-name="task2" unicode="&#xe873;" d="M667 100h-334v292h334v-292z m166 583v-666c0 0 0-84-83-84h-500c-83 0-83 84-83 84v666c0 0 0 84 83 84h500c83 0 83-84 83-84z m-583-125h83v84h-83v-84z m500-83h-500v-458h500v458z m0 167h-333v-84h333v84z" horiz-adv-x="1000" />

<glyph glyph-name="teleconference" unicode="&#xe874;" d="M500 225c-125 0-417-42-417-208v-84h834v84c0 166-292 208-417 208z m0 500c-68 0-129-33-167-83v-188c0-10 4-62 63-62h108c8 24 31 41 59 41 34 0 62-28 62-62 0-9-2-18-5-25 53 38 88 100 88 171 0 115-93 208-208 208z m4-375h-108c-8 0-16 1-23 2 35-27 79-44 127-44 14 0 27 2 40 4-17 7-30 21-36 38z m-132 2c-51 10-72 50-78 81h-2c0 0-42 0-42 42v125c0 0 0 42 42 42h41c-26-35-41-78-41-125 0-67 31-127 80-165z m0 0c-51 10-72 50-78 81h-2c0 0-42 0-42 42v125c0 0 0 42 42 42h41c-26-35-41-78-41-125 0-67 31-127 80-165z" horiz-adv-x="1000" />

<glyph glyph-name="tester" unicode="&#xe875;" d="M542 265v89c81 17 146 81 162 163h88v83h-88c-16 82-81 146-162 163v87h-84v-87c-81-17-145-81-162-163h-88v-83h88c17-82 81-146 162-163v-89c-163-12-375-92-375-207v-125h834v125c0 115-212 195-375 207z m-167 293c0 69 56 125 125 125 69 0 125-56 125-125s-56-125-125-125c-69 0-125 57-125 125z" horiz-adv-x="1000" />

<glyph glyph-name="time_cycles" unicode="&#xe876;" d="M833 517l-166-167h125c0-161-131-292-292-292-80 0-153 33-206 86-9 8-16 16-23 26l-59-60c68-82 172-135 288-135 207 0 375 168 375 375h125l-167 167z m-500-167h-125c0 161 131 292 292 292 93 0 176-44 229-111l59 59c-68 82-172 135-288 135-207 0-375-168-375-375h-125l167-167 166 167z m292-42h-167v250h84v-166h83v-84z" horiz-adv-x="1000" />

<glyph glyph-name="training" unicode="&#xe877;" d="M83 767v-584h167v84h-83v416h666v-416h-83v-84h167v584h-834z m417-167c92 0 167-75 167-167s-75-166-167-166-167 74-167 166 75 167 167 167z m0-417c0 0-333 0-333-166v-84h666v84c0 166-333 166-333 166z" horiz-adv-x="1000" />

<glyph glyph-name="vacation" unicode="&#xe878;" d="M833 683h-83v-83h-83v83h-334v-83h-83v83h-84c-46 0-83-37-83-83v-583c0-46 37-84 84-84h666c46 0 84 38 84 84v583c0 46-38 83-84 83z m0-666h-666v500h666v-500z m-45 175c-3-4-72-92-288-92-216 0-285 88-287 92-8 9-5 22 4 29 9 7 22 5 29-4 1-2 62-75 254-75 193 0 254 74 254 75 7 9 21 11 29 4 10-7 11-20 5-29z m4 200v-42c0-125-125-125-125-125s-125 0-125 125c0 42-42 42-42 42s-42 0-42-42c0-125-125-125-125-125s-125 0-125 125v42c0 0 0 41 42 41h500c42 0 42-41 42-41z m-542 375v-84h83v84h-83z m417 0v-84h83v84h-83z" horiz-adv-x="1000" />

<glyph glyph-name="work_breakdown_structure" unicode="&#xe879;" d="M792 183v-83h125v-167h-334v167h125v83h-125v167h125v83h-416v-83h125v-167h-125v-83h125v-167h-334v167h125v83h-125v167h125v83c0 41 30 84 84 84h166v83h-208v167h500v-167h-208v-83h166c41 0 84-29 84-84v-83h125v-167h-125z" horiz-adv-x="1000" />
</font>
</defs>
</svg>
