<?xml version="1.0" standalone="no"?>
<!DOCTYPE svg PUBLIC "-//W3C//DTD SVG 1.1//EN" "http://www.w3.org/Graphics/SVG/1.1/DTD/svg11.dtd">
<svg xmlns="http://www.w3.org/2000/svg">
<metadata>iconshock</metadata>
<defs>
<font id="materialblack_web_design" horiz-adv-x="1000" >
<font-face font-family="materialblack_web_design" font-weight="400" font-stretch="normal" units-per-em="1000" ascent="850" descent="-150" />
<missing-glyph horiz-adv-x="1000" />
<glyph glyph-name="3d_design" unicode="&#xe800;" d="M167 591l333 192 333-192-333-193-333 193z m375-265v-385l333 193v384l-333-192z m-84 0l-333 192v-384l333-193v385z" horiz-adv-x="1000" />

<glyph glyph-name="alien" unicode="&#xe801;" d="M458 767h84v-84h-84v84z m250-167v83h-166v-83h-84v83h-166v-83h-125v-375h83v-83h83v-167h84v83h166v-83h84v167h83v83h83v375h-125z m-250-375h-83v83h-83v167h83v-83h83v-167z m250 83h-83v-83h-83v167h83v83h83v-167z m-541-166h83v-84h-83v84z m583 0h83v-84h-83v84z" horiz-adv-x="1000" />

<glyph glyph-name="alien2" unicode="&#xe802;" d="M708 100v-83h84v83h-84z m0 667v-84h84v84h-84z m-500-667v-83h84v83h-84z m0 667v-84h84v84h-84z m584-334v167h-84v83h-83v-83h-250v83h-83v-83h-84v-167h-166v-166h83v83h83v-167h84v-83h416v83h84v167h83v-83h83v166h-166z m-375-125h-125v125h125v-125z m291 0h-125v125h125v-125z" horiz-adv-x="1000" />

<glyph glyph-name="animation" unicode="&#xe803;" d="M458 267c46 0 84-38 84-84s-38-83-84-83-83 37-83 83 37 84 83 84z m-166 333c46 0 83-37 83-83s-37-84-83-84-84 38-84 84 38 83 84 83z m-125-333c46 0 83-38 83-84s-37-83-83-83-84 37-84 83 38 84 84 84z m666 0c46 0 84-38 84-84s-38-83-84-83-83 37-83 83 37 84 83 84z m-166 250c46 0 83-38 83-84s-37-83-83-83-84 37-84 83 38 84 84 84z" horiz-adv-x="1000" />

<glyph glyph-name="architecture_info" unicode="&#xe804;" d="M943 383l-52-66-99 80v-130h-84v196l-208 167-208-167v-196h-84v130l-99-79-52 65 151 120v264h84v-197l208 167 208-167v197h84v-264l151-120z m-651-200h-84v-83h-83v-83h83v-84h84v84h166v83h-166v83z m500 0h-84v-83h-166v-83h166v-84h84v84h83v83h-83v83z m-334 0h84v167h-84v-167z m84 334h-84v-84h84v84z" horiz-adv-x="1000" />

<glyph glyph-name="back_up" unicode="&#xe805;" d="M917 350c0-207-168-375-375-375-104 0-198 42-265 110l58 59c53-53 126-86 207-86 161 0 291 131 291 292 0 161-130 292-291 292s-292-131-292-292h125l-167-167-166 167h125c0 207 168 375 375 375s375-168 375-375z m-334 42v166h-83v-250h167v84h-84z" horiz-adv-x="1000" />

<glyph glyph-name="bandwidth1" unicode="&#xe806;" d="M83-67h834v834l-834-834z m750 84h-548l548 548v-548z" horiz-adv-x="1000" />

<glyph glyph-name="bandwidth2" unicode="&#xe807;" d="M83-67h834v834l-834-834z m750 84h-416v132l416 416v-548z" horiz-adv-x="1000" />

<glyph glyph-name="bandwidth3" unicode="&#xe808;" d="M83-67h834v834l-834-834z m750 84h-291v257l291 291v-548z" horiz-adv-x="1000" />

<glyph glyph-name="bandwidth4" unicode="&#xe809;" d="M83-67h834v834l-834-834z m750 84h-166v382l166 166v-548z" horiz-adv-x="1000" />

<glyph glyph-name="bandwidth5" unicode="&#xe80a;" d="M83-67h834v834l-834-834z m750 84h-41v507l41 41v-548z" horiz-adv-x="1000" />

<glyph glyph-name="bandwidth6" unicode="&#xe80b;" d="M83-67h834v834l-834-834z" horiz-adv-x="1000" />

<glyph glyph-name="banner" unicode="&#xe80c;" d="M83 600v-500h834v500h-834z m648-417h-564v334h564c-40-44-64-103-64-167s24-122 64-167z m-148 209v-84h-333v84h333z" horiz-adv-x="1000" />

<glyph glyph-name="banner_design" unicode="&#xe80d;" d="M917 600v-500h-530l83 83h261c-40 45-64 103-64 167s24 123 64 167h-564v-250h-84v333h834z m-630-500h-79v78l79-78z m290 320l-49 49c-7 8-21 8-29 0l-38-38 78-78 38 38c8 8 8 21 0 29z m-138-12l-210-209 79-78 209 209-78 78z" horiz-adv-x="1000" />

<glyph glyph-name="briefcase" unicode="&#xe80e;" d="M833 517v-459h-666v459h666z m-250 250h-166c-92 0-125-75-125-125v-42h-125c-46 0-84-37-84-83v-459c0-45 38-83 84-83h666c46 0 84 38 84 83v459c0 46-38 83-84 83h-125v42c0 91-74 125-125 125l0 0z m-208-167v41c0 19 8 42 42 42h166c19 0 42-8 42-41v-42h-250l0 0z" horiz-adv-x="1000" />

<glyph glyph-name="brochure" unicode="&#xe80f;" d="M708 600v167h-583v-667h167v-167h541v667h-125z m-198 0l115 58v-58h-115z m-302-417v500h282l-198-98v-402h-84z m542-83h-375v83h375v-83z m0 167h-375v250h375v-250z" horiz-adv-x="1000" />

<glyph glyph-name="brochure_design" unicode="&#xe810;" d="M708 600v167h-583v-667h167v-167h541v667h-125z m-83 58v-58h-115l115 58z m-333-475h-84v500h282l-198-98v-402z m83-125v79l78-79h-78z m99 21l-78 79 209 209 78-78-209-210z m270 270l-38-38-78 78 38 38c8 8 21 8 29 0l49-49c8-8 8-21 0-29z" horiz-adv-x="1000" />

<glyph glyph-name="bulletin_board" unicode="&#xe811;" d="M83 683v-666h834v666h-834z m750-583h-666v500h666v-500z m-250 417v-84h84v-83h83v167h-167z m-333 0v-167h167v167h-167z m417-167v-83h-167v166h83v-83h84z" horiz-adv-x="1000" />

<glyph glyph-name="card" unicode="&#xe812;" d="M833 642h-666c-46 0-84-38-84-84v-416c0-46 38-84 84-84h666c46 0 84 38 84 84v416c0 46-38 84-84 84z m-208-84c69 0 125-55 125-125s-56-125-125-125-125 56-125 125 56 125 125 125z m-458 0h250v-83h-250v83z m0-166h166v-84h-166v84z m666-250h-416v10c0 69 138 115 208 115s208-46 208-115v-10z" horiz-adv-x="1000" />

<glyph glyph-name="card_design" unicode="&#xe813;" d="M833 683h-666c-46 0-84-37-84-83v-458c0-46 38-84 84-84h666c46 0 84 38 84 84v458c0 46-38 83-84 83z m-666-83h333v-83h-333v83z m0-167h250v-83h-250v83z m291-291v78l79-78h-79z m100 21l-79 78 210 209 78-78-209-209z m269 270l-38-39-78 79 38 37c8 9 22 9 29 0l49-48c8-8 8-22 0-29z" horiz-adv-x="1000" />

<glyph glyph-name="catalogue" unicode="&#xe814;" d="M542 767v-834h458v834h-458z m375-750h-292v83h292v-83z m0 166h-292v84h292v-84z m0 167h-292v333h292v-333z m-917-417h458v834h-458v-834z m83 750h292v-333h-292v333z m0-416h292v-84h-292v84z m0-167h292v-83h-292v83z" horiz-adv-x="1000" />

<glyph glyph-name="cms" unicode="&#xe815;" d="M875 683h-750c-42 0-42-41-42-41v-584c0-41 42-41 42-41h750c42 0 42 41 42 41v584c0 41-42 41-42 41z m-167-41c23 0 42-19 42-42s-19-42-42-42-41 19-41 42 18 42 41 42z m-125 0c23 0 42-19 42-42s-19-42-42-42-41 19-41 42 18 42 41 42z m250-542h-666v417h666v-417z m0 458c-23 0-41 19-41 42s18 42 41 42 42-19 42-42-19-42-42-42z m-83-291v-84h-83v84h83z m-83 166v-83h83v83h-83z m-417 0v-83h333v83h-333z m0-166v-84h333v84h-333z" horiz-adv-x="1000" />

<glyph glyph-name="company2" unicode="&#xe816;" d="M708 600v167h-416v-334h-167v-500h750v667h-167z m-416-500h-84v83h84v-83z m0 167h-84v83h84v-83z m166-167h-83v83h83v-83z m0 167h-83v83h83v-83z m0 166h-83v84h83v-84z m0 167h-83v83h83v-83z m167-500h-83v83h83v-83z m0 167h-83v83h83v-83z m0 166h-83v84h83v-84z m0 167h-83v83h83v-83z m167-500h-84v83h84v-83z m0 167h-84v83h84v-83z m0 166h-84v84h84v-84z" horiz-adv-x="1000" />

<glyph glyph-name="comparison" unicode="&#xe817;" d="M333 579c-34 0-62-28-62-62s28-63 62-63 63 28 63 63-28 62-63 62z m0 0c-34 0-62-28-62-62s28-63 62-63 63 28 63 63-28 62-63 62z m-250 188v-834h834v834h-834z m250-125c70 0 125-56 125-125s-55-125-125-125-125 56-125 125 56 125 125 125z m334-584c-69 0-125 56-125 125s56 125 125 125 125-55 125-125-56-125-125-125z m166 292h-333v-333h-333v333h333v333h333v-333z m-166-104c-35 0-63-28-63-63s28-62 63-62 62 28 62 62-28 63-62 63z m-334 208c35 0 63 28 63 63s-28 62-63 62-62-28-62-62 28-63 62-63z m59-271l54-53-59-59-54 53-53-53-59 59 53 53-53 54 59 59 53-54 54 54 59-59-54-54z m334 334l54-54-59-59-54 54-54-54-59 59 54 54-54 54 59 59 54-54 54 54 59-59-54-54z" horiz-adv-x="1000" />

<glyph glyph-name="crm" unicode="&#xe818;" d="M583 350c0-46-37-83-83-83-46 0-83 37-83 83 0 46 37 83 83 83 46 0 83-37 83-83z m334 292v-584c0 0 0-41-42-41h-750c0 0-42 0-42 41v584c0 0 0 41 42 41h750c0 0 42 0 42-41z m-250-42c0-23 18-42 41-42s42 19 42 42-19 42-42 42-41-19-41-42z m-125 0c0-23 18-42 41-42s42 19 42 42-19 42-42 42-41-19-41-42z m291-83h-666v-417h166v42c0 83 167 83 167 83s167 0 167-83v-42h166v417z m42 83c0 23-19 42-42 42s-41-19-41-42 18-42 41-42 42 19 42 42z" horiz-adv-x="1000" />

<glyph glyph-name="database_development" unicode="&#xe819;" d="M583 517h209v-84h-209v84z m209 83c0 51 0 83 0 83s0 84-84 84h-416c-84 0-84-84-84-84s0-583 0-666 84-84 84-84h166v99c-48 16-83 63-83 117 0 55 35 101 83 118v-118l42-41 42 41v118c48-17 83-63 83-118 0-54-35-101-83-117v-99h166c0 0 84 0 84 84v333h-292v250h292z" horiz-adv-x="1000" />

<glyph glyph-name="database_development2" unicode="&#xe81a;" d="M708 767h-416c-84 0-84-84-84-84s0-583 0-666 84-84 84-84h416c0 0 84 0 84 84v666c0 0 0 84-84 84z m0-750c0 0-415-1-416 0 0 0-1 666 0 666h416v-125h-250v-416h250c0 0 1-125 0-125z m0 208h-166v83h166v-83z m0 167h-166v83h166v-83z" horiz-adv-x="1000" />

<glyph glyph-name="dedicated_server" unicode="&#xe81b;" d="M792 683v-41h-292v-584h292v-41c0-84-84-84-84-84h-416c0 0-84 0-84 84v666c0 0 0 84 84 84h416c84 0 84-84 84-84z m0-291v-84h-209v84h209z m0-167v-83h-209v83h209z m0 333v-83h-209v83h209z" horiz-adv-x="1000" />

<glyph glyph-name="domain" unicode="&#xe81c;" d="M479 808c-241 0-437-195-437-437s196-438 437-438 438 196 438 438-196 437-438 437z m0-83c127 0 238-67 301-167h-601c63 100 174 167 300 167z m-19-250h38l44-104v104h41v-208h-41l-63 146-62-146h-42v208h42v-104l43 104z m-293-208h-42v208h42v-104l43 104h38l44-104v104h41v-208h-41l-63 146-62-146z m312-250c-126 0-237 66-300 166h601c-63-100-174-166-301-166z m313 250l-63 146-62-146h-42v208h42v-104l43 104h38l44-104v104h41v-208h-41z" horiz-adv-x="1000" />

<glyph glyph-name="e_commerce" unicode="&#xe81d;" d="M500 808c-230 0-417-186-417-416v-500h834v500c0 230-187 416-417 416z m-333-416c0 161 115 296 268 327l-90-89c-16-17-16-43 0-60 9-7 19-12 30-12h250v-83h-83c0 23-19 42-42 42 0 0-21 0-83 0-69 0-125-56-125-125h-125z m333-417c-92 0-167 75-167 167s75 166 167 166 167-74 167-166-75-167-167-167z" horiz-adv-x="1000" />

<glyph glyph-name="e_commerce2" unicode="&#xe81e;" d="M572 392h-144c15 25 41 41 72 41s58-16 72-41z m345 208v-500h-834v500h834z m-250-250c0 92-75 167-167 167s-167-75-167-167 75-167 167-167c51 0 98 24 128 60l-67 51c-15-17-37-27-61-27-31 0-57 16-72 41h233c4 14 6 27 6 42z" horiz-adv-x="1000" />

<glyph glyph-name="error" unicode="&#xe81f;" d="M750 767h-500c-46 0-83-38-83-84v-666c0-46 37-84 83-84h500c46 0 83 38 83 84v666c0 46-37 84-83 84z m-405-238l60 59 95-95 95 95 60-59-96-96 96-95-60-59-95 95-95-95-60 59 96 95-96 96z m363-429h-416v83h416v-83z" horiz-adv-x="1000" />

<glyph glyph-name="error_400" unicode="&#xe820;" d="M458 225v-125h42v125h-42z m167 0v-125h42v125h-42z m125 542h-500c-46 0-83-38-83-84v-666c0-46 37-84 83-84h500c46 0 83 38 83 84v666c0 46-37 84-83 84z m-375-709h-42v84h-83v125h42v-84h41v84h42v-209z m-30 363l96 96-96 95 60 59 95-95 95 95 60-59-96-95 96-96-60-59-95 96-95-96-60 59z m197-363h-125v209h125v-209z m166 0h-125v209h125v-209z" horiz-adv-x="1000" />

<glyph glyph-name="error_401" unicode="&#xe821;" d="M542 100h-42v125h42v-125z m291 583v-666c0-46-37-84-83-84h-500c-46 0-83 38-83 84v666c0 46 37 84 83 84h500c46 0 83-38 83-84z m-416-416h-42v-84h-42v84h-41v-125h83v-84h42v209z m166 0h-125v-209h125v209z m12 95l60 59-96 96 96 95-60 59-95-95-95 95-60-59 96-95-96-96 60-59 95 96 95-96z m113-95h-83v-42h42v-167h41v209z" horiz-adv-x="1000" />

<glyph glyph-name="error_403" unicode="&#xe822;" d="M500 100h-42v125h42v-125z m333 583v-666c0-46-37-84-83-84h-500c-46 0-83 38-83 84v666c0 46 37 84 83 84h500c46 0 83-38 83-84z m-458-416h-42v-84h-41v84h-42v-125h83v-84h42v209z m30 95l95 96 95-96 60 59-96 96 96 95-60 59-95-95-95 95-60-59 96-95-96-96 60-59z m137-95h-125v-209h125v209z m166 0h-125v-42h84v-42h-84v-41h84v-42h-84v-42h125v209z" horiz-adv-x="1000" />

<glyph glyph-name="error_404" unicode="&#xe823;" d="M458 225v-125h42v125h-42z m292 542h-500c-46 0-83-38-83-84v-666c0-46 37-84 83-84h500c46 0 83 38 83 84v666c0 46-37 84-83 84z m-375-709h-42v84h-83v125h42v-84h41v84h42v-209z m-30 363l96 96-96 95 60 59 95-95 95 95 60-59-96-95 96-96-60-59-95 96-95-96-60 59z m197-363h-125v209h125v-209z m166 0h-41v84h-84v125h42v-84h42v84h41v-209z" horiz-adv-x="1000" />

<glyph glyph-name="error_500" unicode="&#xe824;" d="M750 767h-500c-46 0-83-38-83-84v-666c0-46 37-84 83-84h500c46 0 83 38 83 84v666c0 46-37 84-83 84z m-375-542h-83v-42h83v-125h-125v42h83v42h-83v125h125v-42z m-30 196l96 96-96 95 60 59 95-95 95 95 60-59-96-95 96-96-60-59-95 96-95-96-60 59z m197-363h-125v209h125v-209z m166 0h-125v209h125v-209z m-208 42h-42v125h42v-125z m167 0h-42v125h42v-125z" horiz-adv-x="1000" />

<glyph glyph-name="faq" unicode="&#xe825;" d="M583 767v-167c0-46 38-83 84-83h166l-250 250z m84-334c-92 0-167 75-167 167v167h-250c-46 0-83-38-83-84v-666c0-46 37-84 83-84h500c46 0 83 38 83 84v416h-166z m-125-416h-84v83h84v-83z m29 178c-20-20-29-30-29-53h-84c0 58 32 90 54 113 21 20 30 30 30 53 0 34-23 42-42 42-34 0-41-23-42-42l-83 0c0 51 33 125 125 125 50 0 125-33 125-125 0-58-31-90-54-113z" horiz-adv-x="1000" />

<glyph glyph-name="flash_design" unicode="&#xe826;" d="M833 767h-666c-46 0-84-38-84-84v-666c0-46 38-84 84-84h666c46 0 84 38 84 84v666c0 46-38 84-84 84z m-458-250h-125v-84h125v-83h-125v-208h-83v458h208v-83z m83-250v333h84v-333c0-17 6-37 30-41l-62-63c-37 27-52 70-52 104z m42-250v78l78-78h-78z m99 21l-78 77 209 210 78-78-209-209z m270 270l-38-39-78 79 38 38c8 8 21 8 29 0l49-49c8-8 8-21 0-29z" horiz-adv-x="1000" />

<glyph glyph-name="ftp" unicode="&#xe827;" d="M741 625l-66-50 45-58h-720v-375h720l-45-58 66-51 228 296-228 296z m-449-233h-84v-42h84v-42h-84v-83h-41v208h125v-41z m166 0h-41v-167h-42v167h-42v41h125v-41z m167-84h-83v-83h-42v208h125v-125z m-42 84h-41v-42h41v42z" horiz-adv-x="1000" />

<glyph glyph-name="gallery" unicode="&#xe828;" d="M667 600c-84 0-500 0-500 0-84 0-84-83-84-83v-500c0 0 0-84 80-84s504 0 504 0c83 0 83 84 83 84v500c0 0-1 83-83 83z m-417-125c46 0 83-37 83-83s-37-84-83-84-83 38-83 84 37 83 83 83z m-83-458l125 208 82-137 126 220 167-291h-500z m666 583c0 83-83 83-83 83h-500c0 84 83 84 83 84h500c84 0 84-84 84-84v-500c0-83-84-83-84-83v500z" horiz-adv-x="1000" />

<glyph glyph-name="graphic_design" unicode="&#xe829;" d="M542 805v-250c61 54 134 107 197 152-51 53-120 89-197 98z m284-260c-17-22-35-46-53-70h60c0 24-2 48-7 70z m-121-153c-12-15-25-29-38-42-62-62-229-164-229-164l-102 102c0 0 30 49 68 104h-237v-167c0-9 0-18 1-27 20 18 46 27 82 27 69 0 125-58 125-137 0-56-30-103-75-130 56-41 125-66 200-66 184 0 333 149 333 333v167h-128z m-538 83h291v330c-164-20-291-160-291-330z m1-277c-19-17-31-42-40-74-18-63-19-91-86-124 38-41 103-67 166-67 34 0 66 9 92 25-74 56-124 142-132 240z m727 547c-28 29-71 24-103 0-17-12-34-25-53-38 43-44 74-99 86-162 26 35 49 68 70 97 24 32 29 75 0 103z" horiz-adv-x="1000" />

<glyph glyph-name="html" unicode="&#xe82a;" d="M583 600v167l250-250h-166c-46 0-84 37-84 83z m334-167v-375h-84v-41c0-46-37-84-83-84h-500c-46 0-83 38-83 84v41h-84v375h84v250c0 46 37 84 83 84h250v-167c0-92 75-167 167-167h250z m-625-83h-42v-83h-42v83h-41v-208h41v83h42v-83h42v208z m166 0h-125v-42h42v-166h42v166h41v42z m250 0h-41l-63-147-62 147h-42v-208h42v104l43-104h38l44 104v-104h41v208z m167-167h-83v167h-42v-208h125v41z" horiz-adv-x="1000" />

<glyph glyph-name="http" unicode="&#xe82b;" d="M667 350h-42v42h42v-42z m302-21l-228-296-66 51 45 58h-720v375h720l-45 58 66 50 228-296z m-761 104h-41v-83h-42v83h-42v-208h42v83h42v-83h41v208z m167 0h-125v-41h42v-167h41v167h42v41z m167 0h-125v-41h41v-167h42v167h42v41z m166 0h-125v-208h42v83h83v125z" horiz-adv-x="1000" />

<glyph glyph-name="junk_mail_filter" unicode="&#xe82c;" d="M917 267v-84l-375-208v-83h-84v83l-375 208v84h834z m-417 255l-333 166c0 79 83 79 83 79h500c0 0 83 0 83-79l-333-166z m0-94l-333 167v-245h666v245l-333-167z" horiz-adv-x="1000" />

<glyph glyph-name="logo_design" unicode="&#xe82d;" d="M333 767c-166 0-250-84-250-250v-584h834v834h-584z m-166-750v156l156-156h-156z m198 41l-157 157 336 335 157-156-336-336z m456 457l-76-76-156 156 76 76c16 17 43 17 59 0l97-97c17-16 17-43 0-59z" horiz-adv-x="1000" />

<glyph glyph-name="mailing_list" unicode="&#xe82e;" d="M917 683l-417-208-417 208c0 0 0 84 84 84h666c84 0 84-84 84-84z m-417-291l-417 208v-333c0-84 84-84 84-84v84h83v-84h-83v-83h666v83h-500v84h500v-84c0 0 84 0 84 84v333l-417-208z m-167-375v-84h500v84h-500z m-166 0v-84h83v84h-83z" horiz-adv-x="1000" />

<glyph glyph-name="member" unicode="&#xe82f;" d="M833 683h-666c-84 0-84-83-84-83v-500c0 0 0-83 84-83h666c84 0 84 83 84 83v500c0 0 0 83-84 83z m-520-125c57 0 104-46 104-104s-47-104-104-104-105 47-105 104 47 104 105 104z m145-416h-291c0 0 0 0 0 83s146 83 146 83 145 0 145-83 0-83 0-83z m375 125h-291v83h291v-83z m0 166h-291v84h291v-84z" horiz-adv-x="1000" />

<glyph glyph-name="minisets" unicode="&#xe830;" d="M875 767h-750c-42 0-42-42-42-42v-833c0-42 42-42 42-42h750c42 0 42 42 42 42v833c0 42-42 42-42 42z m-167-42c23 0 42-19 42-42s-19-41-42-41-41 18-41 41 18 42 41 42z m-125 0c23 0 42-19 42-42s-19-41-42-41-41 18-41 41 18 42 41 42z m-416-125h666v-83h-666v83z m583-167c0-23-19-41-42-41s-41 18-41 41 18 42 41 42 42-19 42-42z m-125 0c0-23-19-41-42-41s-41 18-41 41 18 42 41 42 42-19 42-42z m208-500h-666v417h666v-417z m0 459c-23 0-41 18-41 41s18 42 41 42 42-19 42-42-19-41-42-41z m0 250c-23 0-41 18-41 41s18 42 41 42 42-19 42-42-19-41-42-41z m-83-375v-250h-83v250h83z m-250 0v-250h83v250h-83z m-250-167v-83h167v83h-167z m0 167v-84h167v84h-167z" horiz-adv-x="1000" />

<glyph glyph-name="multimedia" unicode="&#xe831;" d="M750 433v167c0 42-42 42-42 42h-583c-42 0-42-42-42-42v-500c0-42 42-42 42-42h583c42 0 42 42 42 42v167l167-167v500l-167-167z m-417-208h-83v250h83v-250z m250-83l-166 83v250l166 83v-416z" horiz-adv-x="1000" />

<glyph glyph-name="offer" unicode="&#xe832;" d="M500 649l91-91h117v-117l91-91-91-90v-118h-117l-91-91-90 91h-118v118l-91 90 91 91v117h118l90 91z m0 118l-125-125h-167v-167l-125-125 125-125v-167h167l125-125 125 125h167v167l125 125-125 125v167h-167l-125 125 0 0z" horiz-adv-x="1000" />

<glyph glyph-name="offer_bullet" unicode="&#xe833;" d="M1000 475h-191c-49 122-169 208-309 208-140 0-260-86-309-208h-191l83-125-83-125h191c49-122 169-208 309-208 140 0 260 86 309 208h191l-83 125 83 125z m-333-208v-84h-84l-83-83-83 83h-84v83l-83 84 83 83v84h84l83 83 83-83h84v-84l83-83-83-83z" horiz-adv-x="1000" />

<glyph glyph-name="offer2" unicode="&#xe834;" d="M500 767c-230 0-417-187-417-417 0-230 187-417 417-417 230 0 417 187 417 417 0 230-187 417-417 417z m176-667l-176 106-176-106 46 201-155 134 205 18 80 189 80-189 205-18-155-134 46-201z" horiz-adv-x="1000" />

<glyph glyph-name="our_costumers" unicode="&#xe835;" d="M833 600h-125v42c0 91-74 125-125 125h-166c-92 0-125-75-125-125v-42h-125c-46 0-84-37-84-83v-459c0-45 38-83 84-83h666c46 0 84 38 84 83v459c0 46-38 83-84 83z m-458 41c0 19 8 42 42 42h166c19 0 42-8 42-41v-42h-250v41z m458-583h-208c0 0 0 12 0 84 0 83-125 83-125 83s-125 0-125-83c0-72 0-84 0-84h-208v459h666v-459z m-250 292c0-46-37-83-83-83-46 0-83 37-83 83 0 46 37 83 83 83 46 0 83-37 83-83z" horiz-adv-x="1000" />

<glyph glyph-name="our_proccess" unicode="&#xe836;" d="M560 508l-63 37c2 11 3 23 3 34s-1 24-3 34l63 37c10 6 14 18 8 28l-42 73c-6 10-18 13-28 7l-64-36c-17 15-37 26-59 34v73c0 12-9 21-21 21h-83c-12 0-21-9-21-21v-73c-22-8-42-19-59-34l-64 36c-10 6-22 3-28-7l-42-73c-6-10-2-22 8-28l63-37c-2-10-3-22-3-34s1-23 3-34l-63-37c-10-5-14-18-8-28l42-72c6-10 18-14 28-8l64 37c17-15 37-27 59-34v-74c0-11 9-21 21-21h83c12 0 21 10 21 21v74c22 7 42 19 59 34l64-37c10-6 22-2 28 8l42 72c6 10 2 23-8 28z m-247-33c-58 0-105 47-105 104s47 104 105 104 104-46 104-104-47-104-104-104z m622-425l-63 37c2 11 3 22 3 34s-1 23-3 34l63 37c10 6 14 18 8 28l-42 73c-6 10-18 13-28 7l-64-37c-17 15-37 27-59 35v73c0 12-9 21-21 21h-83c-12 0-21-9-21-21v-73c-22-8-42-20-59-35l-64 37c-10 6-22 3-28-7l-42-73c-6-10-2-22 8-28l63-37c-2-11-3-22-3-34s1-23 3-34l-63-37c-10-6-14-18-8-28l42-73c6-10 18-13 28-7l64 36c17-15 37-26 59-34v-73c0-12 9-21 21-21h83c12 0 21 9 21 21v73c22 8 42 19 59 34l64-36c10-6 22-3 28 7l42 73c6 10 2 22-8 28z m-247-33c-58 0-105 46-105 104s47 104 105 104 104-47 104-104-47-104-104-104z" horiz-adv-x="1000" />

<glyph glyph-name="our_proccess2" unicode="&#xe837;" d="M625 350c0-69-56-125-125-125s-125 56-125 125 56 125 125 125 125-56 125-125z m292 333v-666c0-46-38-84-84-84h-666c-46 0-84 38-84 84v666c0 46 38 84 84 84h666c46 0 84-38 84-84z m-169-300l70 55c6 5 8 14 4 21l-67 115c-4 8-12 10-20 8l-83-34c-17 14-36 25-56 33l-13 88c-1 9-8 14-16 14h-134c-8 0-15-5-16-14l-13-88c-20-8-39-20-56-33l-83 34c-7 3-16 0-20-8l-67-115c-4-7-2-16 4-21l71-55c-2-11-3-22-3-33s1-22 3-32l-71-55c-6-5-8-15-4-22l67-115c4-8 13-10 20-8l83 34c17-14 36-24 56-33l13-88c1-8 8-14 16-14h134c8 0 15 6 16 14l13 88c20 9 39 20 56 33l83-34c8-3 16 0 21 8l66 115c4 7 2 17-4 22l-70 55c1 10 2 21 2 32s-1 22-2 33z" horiz-adv-x="1000" />

<glyph glyph-name="our_team" unicode="&#xe838;" d="M271 517c0 65 27 124 72 166-3 0-7 0-10 0-92 0-166-74-166-166s74-167 166-167c4 0 7 0 10 0-45 42-72 101-72 167z m396 166c-3 0-7 0-9 0 44-42 71-101 71-166s-27-125-72-167c3 0 6 0 10 0 92 0 166 75 166 167s-74 166-166 166z m-667-583v-83h104v83c0 6 2 90 93 155-197-38-197-155-197-155z m803 155c91-65 93-149 93-155v-83h104v83c0 0 0 117-197 155z m-303 95c-92 0-167 75-167 167s75 166 167 166 167-74 167-166-75-167-167-167z m0-83c-333 0-333-167-333-167v-83h666v83c0 0 0 167-333 167z" horiz-adv-x="1000" />

<glyph glyph-name="plan1_a" unicode="&#xe839;" d="M875 767h-750c-83 0-83-84-83-84v-500c0-83 83-83 83-83h292l-84-125v-42h334v42l-84 125h292c83 0 83 83 83 83v500c0 0 0 84-83 84z m-750-500v416h250v-83h83v-333h-333z m750 0h-333v416h333v-416z" horiz-adv-x="1000" />

<glyph glyph-name="plan1_b" unicode="&#xe83a;" d="M875 767h-750c-83 0-83-84-83-84v-500c0-83 83-83 83-83h292l-84-125v-42h334v42l-84 125h292c83 0 83 83 83 83v500c0 0 0 84-83 84z m-750-500v416h250v-83h167v-83h-84c-45 0-83-37-83-84v-166h-250z m750 0h-250v83h-167v83h84c46 0 83 38 83 84v83c0 46-37 83-83 83h333v-416z" horiz-adv-x="1000" />

<glyph glyph-name="plan1_c" unicode="&#xe83b;" d="M875 767h-750c-83 0-83-84-83-84v-500c0-83 83-83 83-83h292l-84-125v-42h334v42l-84 125h292c83 0 83 83 83 83v500c0 0 0 84-83 84z m-750-500v416h250v-83h167v-83h-84v-84h84v-83h-167v-83h-250z m750 0h-333c46 0 83 37 83 83v63c0 34-28 62-62 62 34 0 62 28 62 63v62c0 46-37 83-83 83h333v-416z" horiz-adv-x="1000" />

<glyph glyph-name="plan1_d" unicode="&#xe83c;" d="M875 767h-750c-83 0-83-84-83-84v-500c0-83 83-83 83-83h292l-84-125v-42h334v42l-84 125h292c83 0 83 83 83 83v500c0 0 0 84-83 84z m-333-84v-166h-84v166h84z m-417-416v416h250v-250h167v-166h-417z m750 0h-250v416h250v-416z" horiz-adv-x="1000" />

<glyph glyph-name="plan1_e" unicode="&#xe83d;" d="M875 767h-750c-83 0-83-84-83-84v-500c0-83 83-83 83-83h292l-84-125v-42h334v42l-84 125h292c83 0 83 83 83 83v500c0 0 0 84-83 84z m-750-500v416h250v-250h167v-83h-167v-83h-250z m750 0h-333c46 0 83 37 83 83v83c0 47-37 84-83 84h-84v83h167v83h250v-416z" horiz-adv-x="1000" />

<glyph glyph-name="plan2_a" unicode="&#xe83e;" d="M500 767l-375-584v-166h250l125-84 125 84h250v166l-375 584z m-100-667h-192v59l262 406-70-465z m392 0h-192l-70 466 262-407v-59z" horiz-adv-x="1000" />

<glyph glyph-name="plan2_b" unicode="&#xe83f;" d="M792 475h-215l3 42 3 41c0 31-17 58-42 73 46-13 119-31 147-31 0 0 62 0 62 63s-62 62-62 62c-42 0-188-42-188-42v21c0 12-9 21-21 21s-21-9-21-21v-21c0 0-145 42-187 42 0 0-63 0-63-62s63-63 63-63c27 0 100 18 147 31-26-15-43-42-43-73l7-83h-215c-46 0-84-37-84-83 0-23 10-44 25-59 15-15 36-25 59-25h227l16-208h-56c-34 0-62-28-62-62s28-63 62-63h71c8-21 23-42 54-42s47 21 55 42h70c35 0 63 28 63 63s-28 62-63 62h-56l16 208h228c46 0 83 38 83 84s-37 83-83 83z" horiz-adv-x="1000" />

<glyph glyph-name="plan2_c" unicode="&#xe840;" d="M958 433c0 3 0 42-41 42h-292c0 26 0 42 0 42 0 32-19 61-47 74-2 15-6 33-10 51h120c11 0 20 9 20 21s-9 20-20 20h-133c-9 24-21 42-34 42s-25-18-34-42h-133c-11 0-21-9-21-20s10-21 21-21h120c-4-18-8-36-11-51-27-13-46-42-46-74 0 0 0-16 0-42h-292c-41 0-42-39-42-42 0-55 206-111 342-142 4-64 10-132 20-191h-49c-23 0-42-19-42-42s19-41 42-41h67c14-51 33-84 58-84s44 33 58 84h67c23 0 42 18 42 41s-19 42-42 42h-49c10 59 16 127 20 191 136 31 341 87 341 142z" horiz-adv-x="1000" />

<glyph glyph-name="plan2_d" unicode="&#xe841;" d="M604 246l313-125-42 208c0 0-271 166-271 167 0 208-104 271-104 271s-104-63-104-271c0-1-271-167-271-167l-42-208 313 125 42-146-105-83v-84l167 63 167-63v84l-104 83 41 146z m-156 354c13 57 35 91 52 111 17-19 39-54 52-111h-104z" horiz-adv-x="1000" />

<glyph glyph-name="plan2_e" unicode="&#xe842;" d="M917 142l-417 625-417-625v-125l334 125-84-125v-84l167 84 167-84v84l-84 125 334-125v125z m-509 375l92 137 92-137h-184z" horiz-adv-x="1000" />

<glyph glyph-name="plan3_a" unicode="&#xe843;" d="M583 558h-125c-83 0-83-125-125-125s-125 0-125 0-125 0-125-125v-83c0 0 0-42 42-42h44c9-47 51-83 102-83s92 36 102 83h254c10-47 52-83 102-83s93 36 102 83h44c42 0 42 42 42 42v42c0 0 0 291-334 291z m-312-416c-35 0-63 28-63 62s28 63 63 63 62-28 62-63-28-62-62-62z m507 291h-49v33c19-9 36-20 49-33z m-349 20c13 28 21 43 29 43h84v-63h-123c4 7 7 15 10 20z m175-20v62c23-1 44-4 63-8v-54h-63z m125-291c-34 0-62 28-62 62s28 63 62 63 63-28 63-63-28-62-63-62z" horiz-adv-x="1000" />

<glyph glyph-name="plan3_b" unicode="&#xe844;" d="M875 475c-42 0-42-42-42-42s0 42-41 42c0 0-84 0-167 0-93 0-35-125-167-125h-41v123l28 139-82 16-31-153c-207-42-249-42-249-83v-167c0 0 0-42 42-42 0-69 56-125 125-125s125 56 125 125h167c0-69 56-125 125-125s125 56 125 125c0 0 41 0 41 42v42c0 0 0-42 42-42s42 42 42 42v166c0 0 0 42-42 42z m-625-375c-46 0-83 38-83 83s37 84 83 84 83-38 83-84-37-83-83-83z m417 0c-46 0-84 38-84 83s38 84 84 84 83-38 83-84-37-83-83-83z" horiz-adv-x="1000" />

<glyph glyph-name="plan3_c" unicode="&#xe845;" d="M833 392c-83 41-83 166-166 166h-209c-125 0-127-146-208-166-167-42-167-42-167-84v-125c0-41 42-41 42-41h44c9-48 51-84 102-84s92 36 102 84h254c10-48 52-84 102-84s93 36 102 84h44c42 0 42 41 42 41s0 39 0 84v41c0 42 0 42-84 84z m-562-292c-35 0-63 28-63 63s28 62 63 62 62-28 62-62-28-63-62-63z m250 292h-170c10 13 19 26 27 39 31 47 46 65 80 65h63v-104z m62 0v104h84c8 0 19-19 34-45 10-19 22-40 38-59h-156z m146-292c-34 0-62 28-62 63s28 62 62 62 63-28 63-62-28-63-63-63z" horiz-adv-x="1000" />

<glyph glyph-name="plan3_d" unicode="&#xe846;" d="M917 558c-42 0-42-41-42-41v83c0 42-42 42-42 42h-125c0 0-333 0-354 0 0 0-39-2-62-42-21-35-84-125-84-125-125-42-166-42-166-83v-167c0 0 0-42 41-42h42c0-69 56-125 125-125s125 56 125 125h208c0-69 56-125 125-125s125 56 125 125c0 0 42 0 42 42v42c0 0 0-42 42-42s41 42 41 42v250c0 0 0 41-41 41z m-667-458c-46 0-83 38-83 83s37 84 83 84 83-38 83-84-37-83-83-83z m208 375h-174c21 30 49 71 61 93 5 8 11 10 14 11h99v-104z m63 0v104h104v-104h-104z m187-375c-45 0-83 38-83 83s38 84 83 84 84-38 84-84-38-83-84-83z m105 375h-125v104h125v-104z" horiz-adv-x="1000" />

<glyph glyph-name="plan3_e" unicode="&#xe847;" d="M958 517c0 41-41 41-41 41h-84c-41 0-41-41-41-41v-69c-67 49-147 69-167 69-42 0-42-42-42-42v-104c0 34-28 62-62 62s-63-28-63-62v-21h-41c-254-57-337-94-363-125-12-15-12-28-12-42 0-41 41-41 41-41h105c19-26 49-42 83-42s64 16 83 42h345c22-26 56-42 93-42 69 0 125 56 125 125 0 27-9 53-24 73 47 70 60 134 64 177 1 18 1 32 1 42z m-687-375c-35 0-63 28-63 62s28 63 63 63 62-28 62-63-28-62-62-62z m521 0c-46 0-84 37-84 83s38 83 84 83 83-37 83-83-37-83-83-83z" horiz-adv-x="1000" />

<glyph glyph-name="portfolio" unicode="&#xe848;" d="M833 600h-125v42c0 91-74 125-125 125h-166c-92 0-125-75-125-125v-42h-125c-46 0-84-37-84-83v-459c0-45 38-83 84-83v542h666v-459h-304l-83-83h387c46 0 84 38 84 83v459c0 46-38 83-84 83z m-208 0h-250v41c0 19 8 42 42 42h166c19 0 42-8 42-41v-42z m-44-372l-78 78 38 38c8 8 21 8 29 0l49-49c8-8 8-21 0-29l-38-38z m-331-175l78-78h-78v78z m99-57l210 209-79 78-209-209 78-78z" horiz-adv-x="1000" />

<glyph glyph-name="push_pin" unicode="&#xe849;" d="M208 17v-84h584v84h-584z m542 500c0 138-112 250-250 250-138 0-250-112-250-250 0-188 250-459 250-459s250 271 250 459z m-333 0c0 46 37 83 83 83 46 0 83-37 83-83s-37-84-83-84c-46 0-83 38-83 84z" horiz-adv-x="1000" />

<glyph glyph-name="redesign" unicode="&#xe84a;" d="M833 517h-416c-46 0-84-38-84-84v-416c0-46 38-84 84-84h416c46 0 84 38 84 84v416c0 46-38 84-84 84z m-208-500c-115 0-208 93-208 208s93 208 208 208 208-93 208-208-93-208-208-208z m22 562h-230c-81 0-146-65-146-146v-230c-110 42-188 147-188 272 0 161 131 292 292 292 125 0 230-78 272-188z" horiz-adv-x="1000" />

<glyph glyph-name="seo" unicode="&#xe84b;" d="M751 158c52 64 82 145 82 234 0 207-168 375-375 375s-375-168-375-375 168-375 375-375c89 0 170 31 234 82l195-195 59 59-195 195z m-251-55v355l95-96 60 59-197 196-196-196 59-59 96 96v-355c-142 20-250 142-250 289 0 161 130 291 291 291s292-130 292-291c0-147-108-269-250-289z" horiz-adv-x="1000" />

<glyph glyph-name="software_development" unicode="&#xe84c;" d="M667 767h-250v-84h83v-83h-83v-83h-84v-84h-83v-83h-83v83h-84v-333c0-83 84-83 84-83h261c-34 47-53 104-53 166 0 162 130 292 292 292 29 0 57-4 83-12v220c0 84-83 84-83 84z m-250-167v83h-167v-83h-83v-83h166v83h84z m-250 167v-84h83v84h-83z m-84-84v-83h84v83h-84z m584-416c-46 0-84-38-84-84s38-83 84-83 83 38 83 83-37 84-83 84z m0 0c-46 0-84-38-84-84s38-83 84-83 83 38 83 83-37 84-83 84z m0 0c-46 0-84-38-84-84s38-83 84-83 83 38 83 83-37 84-83 84z m0 0c-46 0-84-38-84-84s38-83 84-83 83 38 83 83-37 84-83 84z m83 196v-363c0-83-83-83-83-83h-239c52-76 140-125 239-125 161 0 291 130 291 291 0 133-87 244-208 280z m-83-196c-46 0-84-38-84-84s38-83 84-83 83 38 83 83-37 84-83 84z m0 0c-46 0-84-38-84-84s38-83 84-83 83 38 83 83-37 84-83 84z m0 0c-46 0-84-38-84-84s38-83 84-83 83 38 83 83-37 84-83 84z m0 0c-46 0-84-38-84-84s38-83 84-83 83 38 83 83-37 84-83 84z m0 0c-46 0-84-38-84-84s38-83 84-83 83 38 83 83-37 84-83 84z m0 0c-46 0-84-38-84-84s38-83 84-83 83 38 83 83-37 84-83 84z" horiz-adv-x="1000" />

<glyph glyph-name="spam_assasin" unicode="&#xe84d;" d="M833 641c0 0-583 0-665 0-76 0-84-71-84-83l-1-416c0-84 84-84 84-84 0 1 666 0 666 0 83 0 83 84 83 84v416c0 83-83 83-83 83z m-354-83v-43c-75-9-135-69-144-144h-42c10 98 88 177 186 187z m0-415c-98 10-176 88-186 186h42c9-75 69-135 144-144v-42z m-62 186v42h62v62h42v-62h62v-42h-62v-62h-42v62h-62z m104-186v42c75 9 135 69 144 144h42c-9-98-88-176-186-186z m144 228c-9 75-69 135-144 144v43c98-10 177-89 186-187h-42z" horiz-adv-x="1000" />

<glyph glyph-name="storage1" unicode="&#xe84e;" d="M833 392v-125c0-69-149-125-333-125s-333 56-333 125v125c0-69 149-125 333-125s333 56 333 125z m-333-334c-184 0-333 56-333 125v-125c0-69 149-125 333-125s333 56 333 125v125c0-69-149-125-333-125z" horiz-adv-x="1000" />

<glyph glyph-name="storage2" unicode="&#xe84f;" d="M833 600v-125c0-69-149-125-333-125s-333 56-333 125v125c0-69 149-125 333-125s333 56 333 125z m-333-333c-184 0-333 56-333 125v-125c0-69 149-125 333-125s333 56 333 125v125c0-69-149-125-333-125z m0-209c-184 0-333 56-333 125v-125c0-69 149-125 333-125s333 56 333 125v125c0-69-149-125-333-125z" horiz-adv-x="1000" />

<glyph glyph-name="storage3" unicode="&#xe850;" d="M833 392v-125c0-69-149-125-333-125s-333 56-333 125v125c0-69 149-125 333-125s333 56 333 125z m-333-334c-184 0-333 56-333 125v-125c0-69 149-125 333-125s333 56 333 125v125c0-69-149-125-333-125z m333 542v-125c0-69-149-125-333-125s-333 56-333 125v125c0 69 149 125 333 125s333-56 333-125z m-564 0c39-19 119-42 231-42 112 0 193 23 231 42-38 19-119 42-231 42-112 0-192-23-231-42z" horiz-adv-x="1000" />

<glyph glyph-name="subdomain" unicode="&#xe851;" d="M479 850c-241 0-437-196-437-437 0-160 85-299 212-375 19-107 113-188 225-188s206 81 226 188c127 76 212 215 212 375 0 241-196 437-438 437z m0-83c126 0 237-67 300-167h-600c63 100 174 167 300 167z m-19-250h38l44-104v104h41v-209h-41l-63 147-62-147h-42v209h42v-104l43 104z m-202-380c-31 25-58 55-79 88h124c-21-25-37-55-45-88z m34 171l-63 147-62-147h-42v209h42v-104l43 104h38l44-104v104h41v-209h-41z m187-375c-80 0-146 66-146 146s66 146 146 146c81 0 146-65 146-146s-65-146-146-146z m222 204c-8 33-24 63-45 88h123c-21-33-48-63-78-88z m91 171l-63 147-62-147h-42v209h42v-104l43 104h38l44-104v104h41v-209h-41z" horiz-adv-x="1000" />

<glyph glyph-name="testimonials" unicode="&#xe852;" d="M521 767c-219 0-396-159-396-354 0-135 84-253 208-312v-168l129 129c19-2 39-4 59-4 219 0 396 159 396 355 0 195-177 354-396 354z m-125-209c34 0 62-28 62-62s-28-63-62-63-63 28-63 63 28 62 63 62z m125-333c-188 0-188 167-188 167h375c0 0 0-167-187-167z m125 208c-35 0-63 28-63 63s28 62 63 62 62-28 62-62-28-63-62-63z" horiz-adv-x="1000" />

<glyph glyph-name="thermometer" unicode="&#xe853;" d="M625 267v416c0 35-14 66-37 89s-53 36-88 36c-69 0-125-55-125-125v-416c-50-38-83-99-83-167 0-115 93-208 208-208s208 93 208 208c0 68-33 129-83 167z m-167 416c0 0 0 42 42 42s42-42 42-42v-208h-84v208z m42-708c-69 0-125 56-125 125 0 55 35 101 83 118v174h84v-174c48-17 83-63 83-118 0-69-56-125-125-125z" horiz-adv-x="1000" />

<glyph glyph-name="web_design" unicode="&#xe854;" d="M500 767c-230 0-417-187-417-417 0-230 187-417 417-417 230 0 417 187 417 417 0 230-187 417-417 417z m-250-667v157l155-157h-155z m203 47l-155 157 201 201 156-156-202-202z m285 285l-35-35-156 156 35 35c16 16 42 16 58 0l98-98c16-16 16-42 0-58z" horiz-adv-x="1000" />

<glyph glyph-name="web_development" unicode="&#xe855;" d="M500 767c-230 0-417-187-417-417 0-230 187-417 417-417 230 0 417 187 417 417 0 230-187 417-417 417z m253-352c-41-40-102-49-151-25l-142-142c24-49 16-110-25-151-41-41-102-49-151-25l88 88v62h-62l-88-88c-24 49-16 110 25 151 41 41 102 49 151 25l142 142c-25 49-16 110 25 151 41 41 102 50 151 25l-88-88v-62h62l88 88c25-49 16-110-25-151z" horiz-adv-x="1000" />

<glyph glyph-name="web_mail" unicode="&#xe856;" d="M583 433v-114l-16-11h-25c0 0 0 42-42 42h-83c0 0-18 0-37-8l-109 68c31 68 91 120 164 140-35-34-60-63-60-75 0-42 42-42 42-42h166z m294 113l-377 221-377-221c-11-7-20-16-27-27l104-65c54 111 168 188 300 188s246-77 300-188l104 65c-7 11-16 20-27 27z m-377-363l-417 262v-387c0-83 84-83 84-83h666c0 0 84 0 84 83v384l-417-259z m417 292v-33l-417-259-417 262v30c0 16 5 31 13 44l404-252 404 252c8-13 13-28 13-44z" horiz-adv-x="1000" />

<glyph glyph-name="web_master" unicode="&#xe857;" d="M333 100c-83 0-333-42-333-167v-83h667v83c0 125-250 167-334 167z m0 417c-92 0-166-75-166-167s74-167 166-167 167 75 167 167-75 167-167 167z m250 333c-189 0-350-127-400-300 32 24 69 40 110 47 47 83 129 144 225 163l-89-89c-16-16-16-43 0-59 8-8 19-12 29-12h250v-83c0-84 84-84 84-84h125c0-164-120-302-278-328 31-18 57-40 77-67 165 56 284 212 284 395 0 230-187 417-417 417z" horiz-adv-x="1000" />

<glyph glyph-name="webpage" unicode="&#xe858;" d="M875 642h-750c-42 0-42-42-42-42v-542c0-41 42-41 42-41h750c42 0 42 41 42 41v542c0 42-42 42-42 42z m-167-42c23 0 42-19 42-42s-19-41-42-41-41 18-41 41 18 42 41 42z m-125 0c23 0 42-19 42-42s-19-41-42-41-41 18-41 41 18 42 41 42z m-138-500l55 146 55-146h-110z m388 0h-220l97 292h-87l-43-146-52 146h-56l-50-146-44 146h-89l104-292h-226v375h666v-375z m0 417c-23 0-41 18-41 41s18 42 41 42 42-19 42-42-19-41-42-41z" horiz-adv-x="1000" />

<glyph glyph-name="webpage_correction" unicode="&#xe859;" d="M875 642h-750c-42 0-42-42-42-42v-542c0-41 42-41 42-41h750c42 0 42 41 42 41v542c0 42-42 42-42 42z m-167-42c23 0 42-19 42-42s-19-41-42-41-41 18-41 41 18 42 41 42z m-125 0c23 0 42-19 42-42s-19-41-42-41-41 18-41 41 18 42 41 42z m250-500h-666v375h666v-375z m0 417c-23 0-41 18-41 41s18 42 41 42 42-19 42-42-19-41-42-41z m-375-351l-112 113 59 59 53-54 138 137 59-59-197-196z" horiz-adv-x="1000" />

<glyph glyph-name="whois" unicode="&#xe85a;" d="M458 58v-83h-83v83h83z m-41 334c-92 0-125-75-125-125l83-1c0 19 8 42 41 42 19 0 42-7 42-41 0-24-9-34-29-54-23-23-54-54-54-113h83c0 23 10 33 30 54 22 23 54 54 54 113 0 91-75 125-125 125z m83 375c-230 0-417-187-417-417 0-154 84-289 209-361v101c-77 61-125 155-125 260 0 161 115 296 268 327l-90-89c-16-16-16-43 0-59 9-8 19-12 30-12h250v-84c0-83 83-83 83-83h125c0-170-127-310-291-331v-84c210 21 375 199 375 415 0 230-187 417-417 417z" horiz-adv-x="1000" />
</font>
</defs>
</svg>
